<svg width="322" height="271" viewBox="0 0 322 271" fill="none" xmlns="http://www.w3.org/2000/svg">
<path d="M205.12 268.911C205.12 268.911 173.212 269 173.159 269C173.106 269 158.73 245.015 158.704 245.002L158.863 245.079C158.717 245.079 129.795 245.194 129.729 245.168C129.663 245.143 114.97 220.519 114.878 220.468L115.168 220.621H86.4835H86.2721L86.1664 220.443L71.791 196.445L72.1345 196.636H43.4762H43.2384L43.1063 196.432L27.1321 169.74L27 169.522L27.1321 169.305L43.0534 142.638L43.1988 142.396H43.4762H71.7778L71.3286 142.651L86.0078 118.002L86.1664 117.747H86.4967H115.565L115.076 118.015L127.958 96.3927V96.9802L113.424 72.7142L113.239 72.4077L113.424 72.1012L129.306 45.3193L129.491 45H129.874H161.783H162.152L162.324 45.3065L176.647 69.3298L176.132 69.036H202.266L201.764 69.317L216.126 45.3704L216.285 45.1149H216.602H248.511H248.814L248.96 45.3704L264.868 72.1267L265 72.3566L264.868 72.5865L250.334 96.8524V96.4182L264.868 120.684L264.987 120.888L264.868 121.093L250.334 145.359V144.976L264.868 169.242L264.974 169.42L264.868 169.599L248.881 196.292L248.788 196.445H248.59L219.522 196.368L219.747 196.253L206.732 217.99V217.812L221.174 242.154C221.279 242.244 205.133 268.821 205.133 268.974L205.12 268.911ZM205.12 268.911C205.12 268.911 221.107 241.873 220.975 242.244L206.322 217.901C206.415 217.901 219.139 196.189 219.218 196.189L219.297 196.075H219.443L248.511 195.998L248.22 196.151L264.154 169.459V169.816L249.62 145.55L249.515 145.359L249.62 145.167L264.154 120.901V121.31L249.62 97.044L249.488 96.8269L249.62 96.6098L264.154 72.3439V72.8036L248.061 45.8812L248.511 46.1367H216.602L217.078 45.8812L202.768 69.93L202.597 70.211H202.266H176.132H175.788L175.616 69.9173L161.241 45.9451L161.783 46.2516H129.874L130.442 45.9323L114.455 72.6376V72.0246L128.989 96.2905L129.16 96.5842L128.989 96.878L116.067 118.475L115.895 118.743H115.565H86.4967L86.9724 118.487L72.2402 143.06L72.0817 143.315H71.791H43.4894L43.9122 143.073L27.9381 169.778V169.344L43.7933 196.062L43.4233 195.857H72.0817H72.3063L72.4252 196.049L86.7477 220.072L86.4306 219.893H115.115H115.314L115.406 220.047L130.099 244.811C128.777 244.542 159.166 244.811 158.863 244.811H158.968V244.887C158.889 244.887 173.502 269.153 173.159 268.885L205.067 268.974L205.12 268.911Z" fill="#DBDBDB"/>
<path d="M220.42 92.6889C227.529 92.4207 237.729 92.0887 244.705 91.9226L244.018 92.3058L249.885 82.0886L255.817 71.8713V73.0208C251.655 66.2008 247.691 59.4319 243.556 52.6629L244.705 53.3015C236.606 53.3015 228.52 53.3015 220.42 53.1738L221.451 52.5991L215.241 62.6886L208.965 72.7398V71.9735C212.281 77.8612 217.117 86.648 220.42 92.6889ZM220.42 92.6889C216.06 85.9966 211.647 79.2022 207.366 72.3694L207.591 71.9735L213.457 61.6924L219.39 51.4752L219.72 50.9132C228.044 50.7983 236.368 50.8111 244.705 50.7855H245.472L245.842 51.4241C249.977 58.3463 254.152 65.3451 258.261 72.395L257.918 72.9569L251.655 83.0209L245.379 93.0721L245.128 93.4552C236.87 93.2892 228.573 92.9827 220.407 92.6889H220.42Z" fill="#DBDBDB"/>
<path d="M177.03 116.687C184.125 116.418 194.338 116.086 201.302 115.933L200.628 116.303L206.494 106.086L212.427 95.869V97.0184C208.278 90.275 204.248 83.4295 200.126 76.6734L201.262 77.3119C193.176 77.3119 185.076 77.3119 176.99 77.1842L178.021 76.6095L171.811 86.699L165.535 96.7502V95.9839C168.851 101.872 173.674 110.646 176.99 116.687H177.03ZM177.03 116.687C172.67 110.007 168.243 103.213 163.962 96.3798L164.2 95.9839L170.067 85.7667L175.999 75.5495L176.343 74.9492C184.667 74.8343 192.991 74.847 201.315 74.8087H202.081L202.464 75.4473C206.6 82.4333 210.775 89.4066 214.831 96.4309L214.488 96.9929L208.278 107.07L201.989 117.095L201.751 117.491C193.493 117.325 185.195 117.019 177.03 116.712V116.687Z" fill="#DBDBDB"/>
<path d="M177.03 165.308C184.125 165.04 194.338 164.708 201.302 164.542L200.628 164.925L206.494 154.708L212.427 144.49V145.64C208.278 138.909 204.248 132.14 200.165 125.371L201.302 126.01C193.215 126.01 185.116 126.01 177.03 125.882L178.06 125.307L171.85 135.397L165.574 145.448V144.682C168.891 150.57 173.713 159.356 177.03 165.397V165.308ZM177.03 165.308C172.67 158.616 168.243 151.821 163.962 144.988L164.2 144.592L170.067 134.375L175.999 124.158L176.343 123.481C184.667 123.366 192.991 123.379 201.315 123.353H202.081L202.464 124.005C206.6 130.991 210.775 137.951 214.831 144.976L214.488 145.538L208.278 155.627L202.002 165.678L201.764 166.061C193.506 165.895 185.208 165.589 177.043 165.295L177.03 165.308Z" fill="#DBDBDB"/>
<path d="M177.03 213.916C184.125 213.648 194.338 213.316 201.302 213.15L200.628 213.533L206.494 203.316L212.427 193.099V194.235C208.278 187.518 204.248 180.736 200.165 173.98L201.302 174.618C193.215 174.618 185.116 174.618 177.03 174.491L178.06 173.916L171.85 184.005L165.574 194.044V193.277C168.891 199.165 173.713 207.952 177.03 213.993V213.916ZM177.03 213.916C172.67 207.224 168.243 200.43 163.963 193.61L164.2 193.201L170.067 182.984L175.999 172.766L176.33 172.204C184.654 172.09 192.978 172.102 201.302 172.064H202.068L202.451 172.703C206.587 179.689 210.762 186.662 214.818 193.686L214.475 194.235L208.265 204.325L201.989 214.376L201.751 214.772C193.493 214.593 185.195 214.299 177.03 213.993V213.916Z" fill="#DBDBDB"/>
<path d="M177.03 262.525C184.125 262.257 194.338 261.925 201.302 261.759L200.628 262.142L206.494 251.924L212.427 241.707V242.857C208.278 236.126 204.248 229.344 200.165 222.588L201.302 223.227C193.215 223.227 185.116 223.227 177.03 223.099L178.06 222.524L171.85 232.614L165.574 242.665V241.899C168.891 247.787 173.713 256.561 177.03 262.601V262.525ZM177.03 262.525C172.67 255.845 168.243 249.038 163.963 242.218L164.2 241.822L170.067 231.605L175.999 221.388L176.33 220.826C184.654 220.711 192.978 220.724 201.302 220.685H202.068L202.451 221.324C206.587 228.31 210.762 235.283 214.818 242.308L214.475 242.869L208.265 252.946L201.989 262.997L201.751 263.393C193.493 263.215 185.195 262.921 177.03 262.614V262.525Z" fill="#DBDBDB"/>
<path d="M220.42 141.361C227.529 141.093 237.729 140.761 244.705 140.595L244.018 140.978L249.885 130.697L255.817 120.48V121.629C251.655 114.822 247.691 108.04 243.556 101.284L244.705 101.923C236.606 101.923 228.52 101.923 220.42 101.795L221.451 101.22L215.241 111.31L208.965 121.348V120.582C212.281 126.47 217.117 135.256 220.42 141.297V141.361ZM220.42 141.361C216.06 134.669 211.647 127.874 207.366 121.054L207.591 120.646L213.457 110.429L219.39 100.211L219.72 99.6366C228.044 99.5345 236.368 99.5345 244.705 99.5089H245.472L245.842 100.147C249.977 107.134 254.152 114.094 258.209 121.131L257.865 121.68L251.668 131.77L245.392 141.821L245.141 142.204C236.883 142.038 228.586 141.744 220.42 141.438V141.361Z" fill="#DBDBDB"/>
<path d="M220.42 189.893C227.529 189.625 237.729 189.293 244.705 189.127L244.018 189.51L249.885 179.293L255.817 169.076V170.212C251.655 163.431 247.691 156.687 243.556 149.893L244.705 150.531C236.606 150.531 228.52 150.531 220.42 150.404L221.451 149.829L215.241 159.918L208.965 169.97V169.203C212.281 175.091 217.117 183.865 220.42 189.906V189.893ZM220.42 189.893C216.06 183.201 211.647 176.406 207.366 169.586L207.591 169.19L213.457 158.909L219.39 148.692L219.72 148.13C228.044 148.015 236.368 148.028 244.705 147.99H245.472L245.842 148.628C249.977 155.614 254.152 162.588 258.209 169.612L257.865 170.161L251.668 180.251L245.392 190.302L245.141 190.698C236.883 190.519 228.586 190.225 220.42 189.919V189.893Z" fill="#DBDBDB"/>
<path d="M133.692 92.6889C140.801 92.4207 151.001 92.0887 157.964 91.9226L157.29 92.3058L163.157 82.0886L169.089 71.8713V73.0208C164.94 66.2902 160.911 59.5213 156.828 52.7523L157.977 53.3909C149.878 53.3909 141.779 53.3909 133.692 53.2632L134.723 52.6885L128.513 62.778L122.171 72.7398V71.9735C125.487 77.8612 130.31 86.648 133.626 92.6889H133.692ZM133.692 92.6889C129.332 85.9966 124.906 79.2022 120.625 72.3694L120.863 71.9735L126.729 61.6924L132.662 51.4752L132.992 50.9132C141.316 50.7983 149.64 50.8111 157.977 50.7855H158.73L159.114 51.4241C163.249 58.4229 167.424 65.3834 171.481 72.4077L171.137 72.9697L164.927 83.0592L158.651 93.1104L158.413 93.4935C150.155 93.3275 141.858 93.021 133.692 92.7272V92.6889Z" fill="#DBDBDB"/>
<path d="M90.2887 165.308C97.3972 165.04 107.611 164.708 114.574 164.542L113.887 164.925L119.753 154.708L125.686 144.49V145.64C121.55 138.909 117.507 132.14 113.437 125.371L114.574 126.01C106.487 126.01 98.3881 126.01 90.2887 125.882L91.3193 125.307L85.1226 135.397L78.8466 145.448V144.682C82.163 150.57 86.9856 159.356 90.2887 165.397V165.308ZM90.2887 165.308C85.9285 158.616 81.5155 151.821 77.2346 144.988L77.4592 144.592L83.3257 134.375L89.2581 124.158L89.5885 123.583C97.9257 123.468 106.25 123.481 114.574 123.456H115.34L115.723 124.107C119.859 131.093 124.021 138.053 128.09 145.078L127.747 145.64L121.537 155.729L115.261 165.78L115.023 166.164C106.765 165.998 98.4674 165.691 90.2887 165.397V165.308Z" fill="#DBDBDB"/>
<path d="M90.2887 213.916C97.3972 213.648 107.611 213.316 114.574 213.15L113.887 213.533L119.753 203.316L125.686 193.099V194.235C121.55 187.518 117.507 180.736 113.437 173.98L114.574 174.618C106.487 174.618 98.3881 174.618 90.2887 174.491L91.3193 173.916L85.1226 184.005L78.8466 194.044V193.277C82.163 199.165 86.9856 207.952 90.2887 213.993V213.916ZM90.2887 213.916C85.9285 207.224 81.5155 200.43 77.2346 193.61L77.4592 193.201L83.3257 182.984L89.2581 172.766L89.5885 172.204C97.9257 172.09 106.25 172.102 114.574 172.064H115.34L115.723 172.703C119.859 179.689 124.021 186.662 128.09 193.686L127.747 194.235L121.537 204.325L115.261 214.376L115.023 214.772C106.765 214.593 98.4674 214.299 90.2887 213.993V213.916Z" fill="#DBDBDB"/>
<path d="M133.692 141.361C140.801 141.093 151.001 140.761 157.964 140.595L157.29 140.978L163.13 130.633L169.063 120.416V121.565C164.914 114.848 160.884 108.066 156.801 101.31L157.951 101.948C149.852 101.948 141.752 101.948 133.666 101.821L134.697 101.246L128.487 111.335L122.171 121.348V120.582C125.487 126.47 130.31 135.256 133.626 141.297L133.692 141.361ZM133.692 141.361C129.332 134.669 124.906 127.874 120.625 121.054L120.863 120.646L126.729 110.429L132.662 100.211L132.992 99.6366C141.316 99.5345 149.64 99.5345 157.977 99.5089H158.73L159.114 100.147C163.249 107.134 167.424 114.094 171.481 121.131L171.137 121.68L164.927 131.77L158.651 141.821L158.413 142.204C150.155 142.038 141.858 141.744 133.692 141.438V141.361Z" fill="#DBDBDB"/>
<path d="M133.692 189.893C140.801 189.625 151.001 189.293 157.964 189.127L157.29 189.51L163.157 179.293L169.089 169.076V170.212C164.94 163.494 160.911 156.713 156.828 149.957L157.977 150.595C149.878 150.595 141.779 150.595 133.692 150.467L134.723 149.893L128.513 159.982L122.171 169.97V169.203C125.487 175.091 130.31 183.865 133.626 189.906L133.692 189.893ZM133.692 189.893C129.332 183.201 124.906 176.406 120.625 169.586L120.863 169.19L126.729 158.909L132.662 148.692L132.992 148.13C141.316 148.015 149.64 148.028 157.977 147.99H158.73L159.114 148.628C163.249 155.614 167.424 162.588 171.481 169.612L171.137 170.161L164.927 180.251L158.651 190.302L158.413 190.698C150.155 190.519 141.858 190.225 133.692 189.919V189.893Z" fill="#DBDBDB"/>
<path d="M133.692 238.514C140.801 238.246 151.001 237.927 157.964 237.761L157.29 238.144L163.13 227.863L169.063 217.646V218.795C164.914 212.064 160.884 205.283 156.801 198.527L157.951 199.165C149.852 199.165 141.752 199.165 133.666 199.037L134.697 198.463L128.487 208.552L122.211 218.603V217.837C125.527 223.725 130.35 232.499 133.666 238.54L133.692 238.514ZM133.692 238.514C129.332 231.835 124.906 225.04 120.625 218.208L120.863 217.812L126.729 207.531L132.662 197.313L132.992 196.751C141.316 196.636 149.64 196.649 157.977 196.611H158.73L159.114 197.249C163.249 204.248 167.424 211.209 171.481 218.233L171.137 218.795L164.927 228.885L158.651 238.923L158.413 239.319C150.155 239.153 141.858 238.846 133.692 238.54V238.514Z" fill="#DBDBDB"/>
<path d="M47.2948 189.893C54.4032 189.625 64.6034 189.293 71.5797 189.127L70.8926 189.51L76.759 179.293L82.6915 169.076V170.212C78.5427 163.494 74.5129 156.713 70.4302 149.957L71.5797 150.595C63.4803 150.595 55.3809 150.595 47.2948 150.467L48.3253 149.893L42.1154 159.982L35.8394 170.033V169.267C39.1557 175.155 43.9916 183.929 47.2948 189.97V189.893ZM47.2948 189.893C42.9346 183.201 38.5083 176.406 34.2274 169.586L34.4652 169.19L40.3317 158.909L46.2642 148.692L46.5945 148.13C54.9185 148.015 63.2425 148.028 71.5797 147.99H72.3328L72.716 148.628C76.8515 155.614 81.0267 162.588 85.083 169.612L84.7395 170.161L78.5295 180.251L72.2535 190.302L72.0157 190.698C63.7577 190.519 55.4602 190.225 47.2948 189.919V189.893Z" fill="#DBDBDB"/>
<path d="M168.056 18.9263C168.937 19.1102 169.765 19.4945 170.477 20.0499C170.794 20.3782 171.162 20.6531 171.566 20.8641C172.079 21.0809 172.624 21.2102 173.179 21.2467C172.372 22.8018 171.299 24.8454 170.436 26.3842H170.356C170.462 24.516 171.193 22.7393 172.429 21.3444L172.614 21.8248C172.147 21.605 171.808 21.3119 171.412 21.1002C170.606 20.6768 169.67 20.5873 168.992 19.9848C168.617 19.7209 168.281 19.4058 167.992 19.0485L168.032 18.9752L168.056 18.9263Z" fill="#263238"/>
<path d="M169.807 17.9493C170.705 18.0193 171.575 18.298 172.348 18.7635C172.709 19.0276 173.106 19.2387 173.526 19.3904C174.076 19.548 174.65 19.6059 175.22 19.5614C174.623 21.1897 173.808 23.3717 173.147 25.0082H173.066C172.936 23.1408 173.436 21.2839 174.486 19.7405L174.728 20.1964C174.244 20.0417 173.873 19.7893 173.445 19.6428C172.639 19.3171 171.654 19.3497 170.888 18.8286C170.481 18.6102 170.107 18.3363 169.775 18.0144V17.9412L169.807 17.9493Z" fill="#263238"/>
<path d="M158.593 25.5864C159.425 25.9561 160.162 26.5131 160.747 27.2147C161 27.5857 161.307 27.9153 161.659 28.1917C162.127 28.5174 162.649 28.7572 163.2 28.9001C162.119 30.2598 160.65 32.051 159.505 33.3862H159.432C159.906 31.5763 160.972 29.981 162.457 28.8594L162.538 29.3723C161.901 28.7046 161.166 28.139 160.36 27.6951C159.588 27.2119 158.958 26.5287 158.537 25.7166L158.593 25.6596V25.5864Z" fill="#263238"/>
<path d="M160.497 24.9757C161.361 25.2244 162.158 25.667 162.829 26.2703C163.13 26.5935 163.478 26.8681 163.861 27.0844C164.367 27.3432 164.913 27.5139 165.475 27.5892C164.563 29.0792 163.337 31.0413 162.369 32.4743H162.296C162.535 30.6175 163.388 28.8964 164.717 27.5892L164.862 28.0859C164.145 27.5421 163.351 27.1111 162.506 26.8076C161.681 26.4221 160.972 25.8239 160.449 25.0734L160.497 25.0083V24.9757Z" fill="#263238"/>
<path d="M153.382 26.4168C154.047 27.018 154.569 27.7642 154.907 28.5988C155.034 29.0331 155.228 29.445 155.479 29.8201C155.827 30.2728 156.25 30.6612 156.73 30.9681C155.278 31.9288 153.333 33.1664 151.833 34.0782L151.776 34.0213C152.781 32.4492 154.286 31.2691 156.044 30.675L155.963 31.1798C155.563 30.3466 155.038 29.5805 154.406 28.9082C153.822 28.2096 153.432 27.3665 153.277 26.4657H153.35L153.382 26.4168Z" fill="#263238"/>
<path d="M155.383 26.4331C156.133 26.9505 156.754 27.636 157.198 28.436C157.381 28.849 157.623 29.2329 157.916 29.5758C158.32 29.981 158.789 30.3141 159.303 30.561C157.98 31.6927 156.213 33.1745 154.842 34.2655H154.769C155.57 32.5748 156.915 31.2084 158.585 30.39V30.903C158.084 30.1276 157.466 29.4355 156.754 28.8512C156.089 28.2285 155.599 27.4391 155.334 26.5634L155.399 26.5145L155.383 26.4331Z" fill="#263238"/>
<path opacity="0.7" d="M170.372 13.2759C170.372 13.2759 164.442 4.59678 157.206 1.87742C149.969 -0.841943 143.967 -0.622115 142.2 2.63461C140.434 5.89133 150.453 9.08291 154.455 10.1902C158.456 11.2975 170.372 13.2759 170.372 13.2759Z" fill="#EBEBEB"/>
<path opacity="0.7" d="M167.137 12.1524C167.137 12.1524 158.787 5.07717 150.76 4.35255C142.733 3.62793 136.755 5.54125 135.876 9.31091C134.996 13.0806 145.952 13.4876 150.276 13.4795C154.6 13.4714 167.137 12.1524 167.137 12.1524Z" fill="#EBEBEB"/>
<path d="M164.281 12.7386C162.329 12.2745 156.923 12.9177 153.745 14.1227C149.606 15.694 145.411 25.684 145.105 27.4508C144.798 29.2176 145.911 32.4906 148.985 32.2789C152.059 32.0672 159.336 29.3315 160.965 27.9067C163.797 25.4642 167.766 20.7989 167.976 19.5044C168.185 18.2098 165.33 12.9665 164.281 12.7386Z" fill="#FFC727"/>
<path d="M163.313 25.6352C164.2 24.7233 165.079 23.73 165.822 22.8181C162.989 20.1067 161.063 16.5724 160.312 12.706C159.068 12.8356 157.832 13.0313 156.609 13.2922C157.497 18.0172 159.844 22.3375 163.313 25.6352Z" fill="#263238"/>
<path d="M150.228 17.2084C151.435 22.0035 153.97 26.3525 157.537 29.7468C158.753 29.2864 159.903 28.6649 160.957 27.8986C160.987 27.8815 161.015 27.8595 161.038 27.8335C156.99 24.3577 154.301 19.5401 153.455 14.2448C152.169 14.972 151.066 15.9856 150.228 17.2084Z" fill="#263238"/>
<path d="M145.686 25.6515C146.785 28.0489 148.264 30.249 150.066 32.1649C151.524 31.8734 152.961 31.4816 154.366 30.9925C150.72 28.0859 148.8 23.8359 147.856 20.9781C147.036 22.4883 146.311 24.0492 145.686 25.6515Z" fill="#263238"/>
<path opacity="0.1" d="M148.985 32.287C152.067 32.0753 159.335 29.3315 160.965 27.8986C163.797 25.4561 167.766 20.7989 167.976 19.4963C167.993 19.076 167.922 18.6569 167.766 18.2668C164.886 20.8559 158.553 25.8876 156.867 26.7832C154.818 27.8579 148.872 29.5514 147.839 28.5011C146.807 27.4508 146.032 26.9623 146.839 23.0624C146.132 24.4707 145.565 25.9461 145.145 27.4671C144.806 29.2501 145.903 32.5069 148.985 32.287Z" fill="black"/>
<path opacity="0.3" d="M161.627 14.1145C159.197 14.1947 156.794 14.6533 154.503 15.4742C152.72 16.2884 151.518 18.0063 150.566 19.6509C151.704 18.564 152.917 17.56 154.196 16.6466C156.536 15.5556 159.231 15.1729 161.627 14.1145Z" fill="white"/>
<path d="M167.347 9.11547C170.573 8.44785 173.171 10.2146 174.696 12.8688C176.221 15.5231 174.696 18.5681 172.534 19.6917C170.372 20.8152 165.951 20.3756 163.958 17.9086C161.966 15.4417 163.393 9.92151 167.347 9.11547Z" fill="#263238"/>
<path opacity="0.1" d="M163.442 17.0375C163.571 17.3543 163.745 17.6505 163.958 17.9168C165.951 20.3594 170.372 20.8641 172.534 19.6999C173.528 19.1695 174.324 18.3255 174.798 17.2965C175.273 16.2675 175.402 15.1101 175.164 14.0006C174.887 15.141 174.301 16.1812 173.472 17.005C172.642 17.8289 171.603 18.4039 170.469 18.6659C169.573 18.8531 166.144 19.594 163.442 17.0375Z" fill="black"/>
<path d="M177.132 8.08151C179.31 8.43161 180.408 10.4345 180.948 11.9407C181.489 13.447 181.44 14.9206 180.327 15.4987C179.214 16.0768 176.89 15.8569 175.18 14.7822C173.47 13.7075 172.76 11.094 173.22 10.003C173.632 9.34897 174.216 8.82316 174.907 8.48396C175.597 8.14476 176.368 8.00545 177.132 8.08151Z" fill="#263238"/>
<path d="M181.529 4.1327C180.95 4.64631 180.287 5.05408 179.569 5.33769C178.859 6.08673 178.883 7.24287 178.375 8.1059C178.272 8.36112 178.143 8.60414 177.987 8.83052H177.915C177.775 8.42722 177.73 7.99669 177.783 7.57284C177.836 7.14899 177.986 6.74339 178.221 6.38798C178.488 5.88319 179.028 5.5738 179.391 5.17485C179.565 4.77321 179.872 4.44455 180.258 4.24431C180.645 4.04408 181.088 3.98453 181.513 4.07571V4.15712L181.529 4.1327Z" fill="#263238"/>
<path d="M184.111 7.10451C183.35 7.23928 182.572 7.23928 181.811 7.10451C181.069 7.23477 180.545 7.96753 179.964 8.36648C179.544 8.67999 179.096 8.9526 178.625 9.18066L178.56 9.13181C178.654 8.71112 178.845 8.31896 179.119 7.9877C179.393 7.65644 179.74 7.39557 180.133 7.22663C180.657 7.04218 181.198 6.90859 181.747 6.82768C182.106 6.58223 182.539 6.47002 182.972 6.51009C183.404 6.55016 183.809 6.74006 184.119 7.04751V7.12079L184.111 7.10451Z" fill="#263238"/>
<path opacity="0.7" d="M23.6017 139.588C23.6017 139.588 30.9833 132.13 38.5909 130.762C46.1985 129.394 52.0554 130.721 53.209 134.247C54.3627 137.772 43.9396 139.083 39.801 139.441C35.6624 139.8 23.6017 139.588 23.6017 139.588Z" fill="#EBEBEB"/>
<path d="M29.5554 140.036C31.4351 139.327 36.8805 139.278 40.1801 140.076C44.48 141.11 49.861 150.498 50.4015 152.208C50.942 153.917 50.2401 157.313 47.1745 157.492C44.1089 157.671 36.5417 155.863 34.7427 154.666C31.6287 152.574 27.119 148.471 26.7479 147.209C26.3768 145.947 28.5469 140.418 29.5554 140.036Z" fill="#FFC727"/>
<path d="M32.1128 152.712C31.1124 151.898 30.1201 151.084 29.2731 150.27C31.7452 147.222 33.2194 143.476 33.4923 139.547C34.7412 139.513 35.991 139.551 37.2356 139.661C36.9248 144.446 35.1329 149.011 32.1128 152.712Z" fill="#263238"/>
<path d="M44.0525 142.698C43.4443 147.607 41.4662 152.241 38.3488 156.059C37.0773 155.745 35.8515 155.266 34.7024 154.634L34.6136 154.577C38.1991 150.615 40.2722 145.496 40.4625 140.133C41.8365 140.702 43.0642 141.579 44.0525 142.698Z" fill="#263238"/>
<path d="M49.6029 150.498C48.805 153.007 47.6089 155.369 46.0613 157.492C44.5778 157.386 43.1033 157.176 41.6484 156.865C44.8754 153.527 46.2872 149.065 46.868 146.118C47.8722 147.517 48.7857 148.98 49.6029 150.498Z" fill="#263238"/>
<path opacity="0.1" d="M47.1504 157.5C44.0606 157.679 36.5176 155.871 34.7185 154.658C31.6045 152.574 27.0949 148.471 26.7238 147.209C26.6536 146.794 26.6728 146.369 26.7802 145.963C29.9588 148.161 36.8645 152.354 38.6474 153.03C40.8094 153.844 46.9245 154.772 47.82 153.6C48.7155 152.427 49.4335 151.841 48.1749 148.072C49.0497 149.382 49.7954 150.775 50.4016 152.232C50.9179 153.926 50.2321 157.313 47.1504 157.5Z" fill="black"/>
<path opacity="0.3" d="M32.3629 141.07C34.7912 140.843 37.2396 140.991 39.6236 141.509C41.4871 142.096 42.8989 143.651 44.0364 145.165C42.7769 144.226 41.4502 143.382 40.0673 142.641C37.6067 141.827 34.8961 141.827 32.3871 141.07H32.3629Z" fill="white"/>
<path opacity="0.7" d="M26.1995 139.344C26.1995 139.344 36.324 135.273 44.1736 137.137C52.0232 139.002 57.0814 142.706 56.7507 146.565C56.4199 150.425 45.892 147.339 41.7857 145.955C37.6794 144.571 26.1995 139.344 26.1995 139.344Z" fill="#EBEBEB"/>
<path d="M26.0621 136.828C22.7626 136.575 20.415 138.652 19.2291 141.477C18.0432 144.302 19.939 147.095 22.2301 147.99C24.5213 148.886 28.8373 147.835 30.5153 145.141C32.1934 142.446 30.0878 137.129 26.0621 136.828Z" fill="#263238"/>
<path opacity="0.1" d="M30.9188 144.188C30.8329 144.519 30.6968 144.835 30.5155 145.124C28.8455 147.827 24.5214 148.861 22.2303 147.982C21.1739 147.582 20.2771 146.842 19.6781 145.877C19.079 144.912 18.8107 143.775 18.9146 142.641C19.3298 143.737 20.0399 144.694 20.9649 145.405C21.8899 146.115 22.9931 146.551 24.1503 146.663C25.0619 146.769 28.5551 147.07 30.9188 144.188Z" fill="black"/>
<path d="M16.228 137.064C14.1143 137.691 13.2673 139.816 12.9284 141.379C12.5896 142.942 12.8074 144.392 13.9853 144.831C15.1631 145.271 17.43 144.75 18.9951 143.472C20.5602 142.193 20.9636 139.498 20.3504 138.481C19.8593 137.884 19.2144 137.436 18.487 137.186C17.7595 136.936 16.9778 136.894 16.228 137.064Z" fill="#263238"/>
<path d="M11.4199 133.587C11.8293 133.439 12.277 133.439 12.6863 133.588C13.0956 133.736 13.4408 134.024 13.6627 134.402C14.058 134.784 14.6469 134.988 14.9696 135.452C15.2571 135.78 15.4628 136.173 15.5694 136.598C15.676 137.023 15.6806 137.467 15.5827 137.894H15.5101C15.1833 137.481 14.8969 137.036 14.6549 136.567C14.2919 135.948 14.1225 135.069 13.5094 134.621C12.7638 134.431 12.0567 134.112 11.4199 133.677V133.595V133.587Z" fill="#263238"/>
<path d="M9.1449 136.877C9.41633 136.534 9.79555 136.296 10.2196 136.201C10.6437 136.107 11.0872 136.161 11.4764 136.356C12.0347 136.368 12.5909 136.431 13.1383 136.543C13.5498 136.663 13.9273 136.88 14.2399 137.176C14.5525 137.472 14.7915 137.838 14.9373 138.244L14.8808 138.301C14.3851 138.128 13.9069 137.907 13.4529 137.642C12.8236 137.316 12.2105 136.665 11.4522 136.624C10.7206 136.863 9.9538 136.973 9.18524 136.95L9.1449 136.877Z" fill="#263238"/>
<path d="M24.2148 245.993C25.0699 247.703 25.6589 252.857 25.2555 256.064C24.723 260.249 16.5346 266.315 14.9938 266.983C13.4529 267.65 10.2259 267.341 9.74996 264.434C9.27398 261.528 10.1856 254.192 11.1295 252.368C12.743 249.201 16.1232 244.519 17.2607 244.031C18.3982 243.542 23.7227 245.073 24.2148 245.993Z" fill="#FFC727"/>
<path d="M12.6382 249.698C13.2836 248.672 13.9935 247.646 14.6631 246.75C17.7498 248.786 21.3852 249.807 25.07 249.673C25.2277 250.853 25.3193 252.041 25.3443 253.231C20.8462 253.431 16.4001 252.194 12.6382 249.698Z" fill="#263238"/>
<path d="M23.166 260.005C18.5342 259.918 14.0219 258.506 10.1533 255.934C10.3072 254.698 10.6219 253.488 11.0891 252.336L11.1375 252.246C15.1856 255.243 20.1595 256.687 25.1667 256.317C24.7903 257.685 24.1056 258.948 23.166 260.005Z" fill="#263238"/>
<path d="M16.462 266.054C14.0499 265.547 11.7345 264.651 9.60477 263.4C9.55224 261.985 9.59537 260.568 9.73385 259.158C13.1706 261.91 17.4705 262.765 20.2699 263.018C19.0676 264.113 17.7956 265.127 16.462 266.054Z" fill="#263238"/>
<path opacity="0.1" d="M9.69352 264.434C9.20948 261.528 10.1292 254.192 11.073 252.368C12.6865 249.201 16.0587 244.511 17.2043 244.031C17.5825 243.926 17.9786 243.904 18.366 243.966C16.6395 247.222 13.4368 254.167 12.9931 255.926C12.4445 258.059 12.1863 263.946 13.3803 264.67C14.5743 265.395 15.1874 266.046 18.5677 264.459C17.4489 265.421 16.2382 266.269 14.9535 266.991C13.4126 267.642 10.1856 267.341 9.69352 264.434Z" fill="black"/>
<path opacity="0.3" d="M23.5049 248.753C23.9598 251.025 24.066 253.353 23.8195 255.657C23.4645 257.489 22.1657 258.979 20.8668 260.217C21.614 258.926 22.2666 257.582 22.8191 256.195C23.2951 253.752 23.0692 251.212 23.5049 248.753Z" fill="white"/>
<path d="M27.2078 242.044C25.7073 239.284 22.8675 238.478 20.044 238.983C17.2204 239.488 16.0103 242.443 16.4862 244.682C16.9622 246.921 20.0117 249.893 22.9886 249.893C25.9654 249.893 29.0552 245.415 27.2078 242.044Z" fill="#263238"/>
<path opacity="0.1" d="M23.9324 249.722C23.6271 249.821 23.309 249.873 22.9885 249.877C20.0036 249.934 16.9702 247.011 16.4781 244.723C16.2413 243.67 16.3567 242.568 16.8063 241.588C17.2558 240.609 18.0142 239.807 18.9629 239.309C18.3179 240.206 17.9326 241.267 17.8499 242.372C17.7673 243.478 17.9906 244.585 18.495 245.57C18.8903 246.359 20.4473 249.315 23.9324 249.722Z" fill="black"/>
<path d="M28.063 235.604C27.59 234.957 26.9331 234.47 26.1795 234.208C25.426 233.946 24.6113 233.922 23.8438 234.139C22.3594 234.391 21.117 235.392 21.1573 236.581C21.1969 237.356 21.4338 238.108 21.845 238.764C22.2561 239.42 22.8278 239.958 23.5049 240.326C25.1749 241.246 27.6516 240.644 28.3454 239.74C28.6793 239.091 28.8295 238.362 28.7797 237.632C28.7299 236.902 28.4819 236.201 28.063 235.604Z" fill="#263238"/>
<path d="M24.8602 228.944C25.2507 229.081 25.5803 229.353 25.7902 229.713C26 230.072 26.0764 230.495 26.0058 230.906C26.1599 231.417 26.2705 231.94 26.3365 232.47C26.351 232.88 26.2668 233.287 26.0912 233.657C25.9156 234.027 25.6537 234.349 25.3281 234.595H25.2555C25.2529 234.094 25.3043 233.594 25.4088 233.105C25.5056 232.445 25.9331 231.704 25.7476 231.004C25.3081 230.419 24.9873 229.752 24.8037 229.042L24.8602 228.985V228.944Z" fill="#263238"/>
<path d="M32.024 232.673C31.3537 232.966 30.6328 233.124 29.9023 233.137C29.6751 233.224 29.4767 233.374 29.3295 233.569C28.7971 234.383 28.1504 235.116 27.4095 235.743L27.3369 235.702C27.3268 235.156 27.4877 234.62 27.7967 234.171C28.3328 233.566 29.0257 233.123 29.7974 232.893C30.0732 232.582 30.4499 232.381 30.8596 232.326C31.2694 232.271 31.6851 232.365 32.0321 232.592V232.673H32.024Z" fill="#263238"/>
<path opacity="0.7" d="M24.2713 241.181C24.2713 241.181 30.9833 249.054 31.7578 256.708C32.5323 264.361 30.7978 270.068 27.2804 270.948C23.763 271.827 23.2467 261.389 23.2467 257.261C23.2467 253.133 24.2713 241.181 24.2713 241.181Z" fill="#EBEBEB"/>
<path opacity="0.7" d="M23.5372 240.424C23.5372 240.424 13.2754 241.189 7.40237 246.042C1.52931 250.894 -1.29428 256.162 0.569289 259.297C2.43286 262.431 10.113 255.421 13.0415 252.539C15.9699 249.657 23.5372 240.424 23.5372 240.424Z" fill="#EBEBEB"/>
<path d="M298.506 186.159C300.402 186.159 305.21 188.023 307.848 189.863C311.285 192.257 312.858 202.394 312.737 204.079C312.616 205.764 310.865 208.516 308.082 207.604C305.299 206.693 299.272 202.508 298.095 200.822C296.062 197.908 293.488 192.738 293.577 191.5C293.666 190.262 297.49 186.143 298.506 186.159Z" fill="#FFC727"/>
<path d="M296.465 198.201C295.86 197.159 295.279 196.043 294.803 195.033C298.014 193.204 300.582 190.413 302.153 187.046C303.253 187.454 304.33 187.921 305.38 188.447C303.498 192.563 300.378 195.976 296.465 198.201Z" fill="#263238"/>
<path d="M310.373 193.511C308.17 197.615 304.858 201.003 300.822 203.281C299.816 202.587 298.902 201.766 298.103 200.839L298.046 200.749C302.546 198.503 306.106 194.713 308.09 190.059C309.104 191.017 309.885 192.198 310.373 193.511Z" fill="#263238"/>
<path d="M312.616 202.296C311.061 204.227 309.209 205.893 307.13 207.23C305.858 206.624 304.629 205.93 303.451 205.154C307.485 203.338 310.18 199.886 311.696 197.492C312.103 199.072 312.41 200.677 312.616 202.296Z" fill="#263238"/>
<path opacity="0.1" d="M308.082 207.613C305.299 206.701 299.272 202.508 298.095 200.822C296.062 197.908 293.48 192.738 293.577 191.5C293.662 191.109 293.827 190.74 294.061 190.417C296.11 193.454 300.773 199.528 302.128 200.741C303.742 202.206 308.824 205.129 310.01 204.405C311.196 203.68 312.043 203.42 312.196 199.666C312.527 201.12 312.713 202.604 312.753 204.095C312.608 205.764 310.857 208.516 308.082 207.613Z" fill="black"/>
<path opacity="0.3" d="M300.628 188.015C302.837 188.647 304.936 189.622 306.848 190.906C308.292 192.062 309.01 193.91 309.502 195.644C308.709 194.38 307.825 193.177 306.856 192.046C304.96 190.507 302.588 189.53 300.628 187.975V188.015Z" fill="white"/>
<path d="M296.425 181.632C293.303 181.705 291.294 183.879 290.439 186.648C289.584 189.416 291.625 191.858 293.851 192.477C296.078 193.096 300.055 191.712 301.378 189.017C302.701 186.322 300.232 181.502 296.425 181.632Z" fill="#263238"/>
<path opacity="0.1" d="M301.669 188.097C301.618 188.416 301.52 188.727 301.378 189.017C300.055 191.712 296.086 193.088 293.851 192.477C292.819 192.204 291.905 191.595 291.252 190.744C290.598 189.893 290.241 188.848 290.237 187.771C290.735 188.756 291.494 189.582 292.43 190.157C293.366 190.732 294.442 191.034 295.537 191.028C296.401 191.068 299.716 191.028 301.669 188.097Z" fill="black"/>
<path d="M291.157 177.903C290.37 178.03 289.64 178.396 289.063 178.951C288.487 179.507 288.092 180.226 287.93 181.013C287.47 182.454 287.785 184.034 288.849 184.539C289.548 184.863 290.318 184.998 291.085 184.933C291.851 184.867 292.587 184.602 293.222 184.164C294.835 183.09 295.416 180.59 294.924 179.589C294.512 178.983 293.942 178.505 293.277 178.207C292.612 177.91 291.878 177.804 291.157 177.903Z" fill="#263238"/>
<path d="M283.815 177.716C284.114 177.425 284.507 177.252 284.922 177.229C285.337 177.207 285.746 177.336 286.074 177.594C286.595 177.686 287.105 177.828 287.599 178.017C287.968 178.189 288.288 178.449 288.533 178.776C288.778 179.103 288.939 179.485 289.003 179.89L288.938 179.939C288.094 179.469 287.324 178.873 286.655 178.172C286.469 178.008 286.242 177.899 285.998 177.858C285.755 177.816 285.505 177.843 285.276 177.936C284.795 177.956 284.314 177.906 283.848 177.789V177.716H283.815Z" fill="#263238"/>
<path d="M290.439 173.01C290.387 173.744 290.193 174.461 289.866 175.119C289.841 175.364 289.883 175.612 289.987 175.835C290.458 176.687 290.803 177.603 291.011 178.555L290.947 178.603C290.458 178.362 290.059 177.968 289.809 177.48C289.521 176.723 289.451 175.898 289.608 175.102C289.46 174.712 289.456 174.281 289.596 173.888C289.737 173.495 290.013 173.166 290.374 172.961L290.439 173.01Z" fill="#263238"/>
<path opacity="0.7" d="M294.319 183.863C294.319 183.863 304.331 181.469 311.414 184.295C318.497 187.12 322.708 191.288 321.902 194.879C321.095 198.469 311.64 194.065 307.993 192.233C304.347 190.401 294.319 183.863 294.319 183.863Z" fill="#EBEBEB"/>
<path opacity="0.7" d="M293.311 184.172C293.311 184.172 289.277 193.723 290.818 201.27C292.359 208.818 295.731 213.711 299.345 213.483C302.959 213.255 300.321 203.143 299.127 199.202C297.933 195.261 293.311 184.172 293.311 184.172Z" fill="#EBEBEB"/>
</svg>
