<svg width="500" height="500" viewBox="0 0 500 500" fill="none" xmlns="http://www.w3.org/2000/svg">
<path opacity="0.1" d="M384.09 360.33L370.31 341.59C370.31 341.59 372.31 266.64 373.55 256.1C374.79 245.56 361.81 225.31 357.75 207.89C353.69 190.47 348 179.94 348 179.94C346.79 136.18 342.73 141.39 342.73 141.39C323.63 137.53 315.73 158.39 313.37 177.39V101.7C313.371 98.6477 312.771 95.6251 311.604 92.8049C310.436 89.9847 308.724 87.4222 306.566 85.2639C304.408 83.1056 301.845 81.3938 299.025 80.2264C296.205 79.0589 293.182 78.4587 290.13 78.46H177.44C174.388 78.4587 171.365 79.0589 168.545 80.2264C165.725 81.3938 163.162 83.1056 161.004 85.2639C158.846 87.4222 157.134 89.9847 155.966 92.8049C154.799 95.6251 154.199 98.6477 154.2 101.7V142.84C144.2 140.45 131.68 140.15 128.04 148.74C126.754 151.744 126.339 155.049 126.841 158.277C127.343 161.506 128.743 164.529 130.88 167C130.88 167 108.19 158.09 103.73 173.48C99.27 188.87 116.29 203 116.29 203C116.29 203 111.03 205.84 108.19 221.64C105.35 237.44 109.81 241.89 113.46 253.24C117.11 264.59 126.83 271.06 126.83 271.06C126.83 271.06 120.75 281.6 126.83 297.8C131.67 310.72 147.83 328.52 154.2 335.21V376.91C154.2 383.074 156.648 388.985 161.007 393.343C165.365 397.702 171.276 400.15 177.44 400.15H210.9C245.29 427.61 300.63 447.9 300.63 447.9L306.48 453.69C343.91 442.06 376.86 416.17 404.1 378.26C391.55 367.17 384.09 360.33 384.09 360.33Z" fill="black"/>
<path d="M392.909 359.995L379.098 341.132C379.098 341.132 381.104 265.689 382.348 255.079C383.591 244.47 370.562 224.087 366.5 206.552C362.438 189.017 356.741 178.418 356.741 178.418C355.527 134.37 351.465 139.614 351.465 139.614C323.019 133.846 319.368 182.897 321.795 199.214C324.223 215.531 327.081 242.497 327.081 242.497C327.081 242.497 307.572 245.758 295.787 231.485C284.001 217.212 256.378 203.301 256.378 203.301C256.378 203.301 228.745 182.505 215.736 172.308C202.726 162.111 178.764 146.62 168.594 142.946C158.423 139.272 140.509 136.423 136.086 147.023C134.797 150.041 134.38 153.362 134.882 156.606C135.384 159.851 136.785 162.888 138.924 165.373C138.924 165.373 116.166 156.404 111.702 171.905C107.239 187.407 124.3 201.67 124.3 201.67C124.3 201.67 119.014 204.529 116.166 220.433C113.317 236.337 117.801 240.816 121.452 252.241C125.103 263.665 134.872 270.168 134.872 270.168C134.872 270.168 128.774 280.777 134.872 297.084C140.97 313.391 164.963 337.458 164.963 337.458C164.963 337.458 177.159 359.885 209.667 391.693C242.175 423.501 309.217 448.182 309.217 448.182L315.085 454C352.628 442.293 385.678 416.233 413 378.074C400.402 366.9 392.909 359.995 392.909 359.995ZM220.821 234.696C216.809 237.142 180.279 202.274 180.279 202.274L149.506 173.214C149.506 173.214 172.355 190.648 180.891 198.298C189.426 205.948 224.783 232.25 220.821 234.696Z" fill="white"/>
<mask id="mask0_1_2" style="mask-type:luminance" maskUnits="userSpaceOnUse" x="110" y="139" width="303" height="315">
<path d="M392.909 359.995L379.098 341.132C379.098 341.132 381.104 265.689 382.348 255.079C383.591 244.47 370.562 224.087 366.5 206.552C362.438 189.017 356.741 178.418 356.741 178.418C355.527 134.37 351.465 139.614 351.465 139.614C323.019 133.846 319.368 182.897 321.795 199.214C324.223 215.531 327.081 242.497 327.081 242.497C327.081 242.497 307.572 245.758 295.787 231.485C284.001 217.212 256.378 203.301 256.378 203.301C256.378 203.301 228.745 182.505 215.736 172.308C202.726 162.111 178.764 146.62 168.594 142.946C158.423 139.272 140.509 136.423 136.086 147.023C134.797 150.041 134.38 153.362 134.882 156.606C135.384 159.851 136.785 162.888 138.924 165.373C138.924 165.373 116.166 156.404 111.702 171.905C107.239 187.407 124.3 201.67 124.3 201.67C124.3 201.67 119.014 204.529 116.166 220.433C113.317 236.337 117.801 240.816 121.452 252.241C125.103 263.665 134.872 270.168 134.872 270.168C134.872 270.168 128.774 280.777 134.872 297.084C140.97 313.391 164.963 337.458 164.963 337.458C164.963 337.458 177.159 359.885 209.667 391.693C242.175 423.501 309.217 448.182 309.217 448.182L315.085 454C352.628 442.293 385.678 416.233 413 378.074C400.402 366.9 392.909 359.995 392.909 359.995ZM220.821 234.696C216.809 237.142 180.279 202.274 180.279 202.274L149.506 173.214C149.506 173.214 172.355 190.648 180.891 198.298C189.426 205.948 224.783 232.25 220.821 234.696Z" fill="white"/>
</mask>
<g mask="url(#mask0_1_2)">
<path opacity="0.2" d="M146.708 224.972C146.564 224.712 146.339 224.507 146.068 224.387C145.797 224.267 145.494 224.24 145.206 224.31C144.918 224.38 144.661 224.542 144.474 224.773C144.286 225.003 144.18 225.289 144.17 225.586C144.04 230.176 143.317 237.112 140.489 242.487C136.076 250.771 159.396 248.295 146.708 224.972Z" fill="black"/>
<path opacity="0.2" d="M164.231 337.851V160.551H162.325C162.325 160.551 162.224 179.757 153.087 176.002C153.087 176.002 159.928 193.164 157.711 209.219C155.494 225.274 143.408 209.672 143.408 209.672C143.408 209.672 143.127 216.356 152.866 229.683C161.442 241.42 160.309 258.3 153.277 258.552C156.949 260.082 162.255 264.31 160.65 275.724C159.988 278.593 158.072 282.519 152.626 284.784C145.113 287.884 155.966 291.387 160.479 292.635V337.428L164.231 337.851Z" fill="black"/>
<path opacity="0.2" d="M336.901 226.07C335.125 216.728 328.345 214.051 327.793 197.14C327.774 195.754 327.589 194.375 327.242 193.034V156.525C326.883 157.44 326.271 158.234 325.476 158.81L324.814 160.823C322.277 169.006 321.996 177.663 320.06 185.987C319.997 186.251 319.906 186.508 319.789 186.752C319.861 187.134 319.892 187.522 319.879 187.91C319.589 198.127 323.009 207.669 323.972 217.584C324.253 218.409 324.523 219.235 324.804 220.09C326.219 224.439 325.195 229.079 326.56 233.337C326.856 234.185 326.905 235.1 326.7 235.974C327.543 238.893 326.008 242.608 322.086 242.608C321.29 242.619 320.503 242.439 319.789 242.084C319.599 242.527 319.398 242.96 319.197 243.373C318.714 244.264 317.953 244.971 317.031 245.386V347.051H319.197V380.399H309.809V391.995H189.647C192.226 393.266 194.966 394.177 197.792 394.702C206.448 396.514 216.358 396.504 222.677 403.661C222.787 403.792 222.887 403.912 222.977 404.043H298.966C306.465 404.043 313.657 401.054 318.96 395.732C324.263 390.411 327.242 383.193 327.242 375.668V248.879C327.248 247.017 327.63 245.177 328.365 243.468C329.099 241.758 330.17 240.216 331.515 238.934C334.574 236.045 337.914 231.414 336.901 226.07Z" fill="black"/>
<path opacity="0.2" d="M317.001 452.983C317.312 452.983 317.633 452.983 317.944 452.913C318.606 452.767 319.275 452.66 319.95 452.591C324.273 451.675 328.836 449.41 332.568 447.679C336.981 445.666 341.214 443.25 345.446 440.874L346.6 440.19C335.346 423.772 339.779 422.132 327.753 426.641C301.564 436.455 242.125 415.941 242.125 415.941V416.102C242.953 416.27 243.73 416.632 244.392 417.159C256.649 426.802 271.263 432.781 285.516 438.69C292.136 441.438 298.926 444.035 305.326 447.306C308.591 449.05 311.596 451.246 314.253 453.829C315.064 453.278 316.021 452.984 317.001 452.983Z" fill="black"/>
</g>
<path d="M338.195 408.955C339.318 406.674 340.421 404.251 341.505 401.688" stroke="#263238" stroke-linecap="round" stroke-linejoin="round"/>
<path d="M314.082 442.062C314.082 442.062 325.115 433.637 335.928 413.395" stroke="#263238" stroke-linecap="round" stroke-linejoin="round"/>
<path d="M140.489 262.83C143.087 259.649 146.989 255.975 150.108 257.636C150.108 257.636 163.217 259.166 160.469 276.902L170.84 290.4C170.84 290.4 186.989 300.184 183.639 314.87" stroke="#263238" stroke-linecap="round" stroke-linejoin="round"/>
<path d="M137.62 266.806C137.62 266.806 138.072 266.061 138.844 264.984" stroke="#263238" stroke-linecap="round" stroke-linejoin="round"/>
<path d="M144.1 212.4C146.648 222.033 149.205 224.6 149.205 224.6L162.616 242.95C162.616 242.95 170.85 242.95 191.573 264.974" stroke="#263238" stroke-linecap="round" stroke-linejoin="round"/>
<path d="M135.133 200.724C137.221 201.242 139.115 202.358 140.584 203.936C142.053 205.514 143.034 207.486 143.408 209.612" stroke="#263238" stroke-linecap="round" stroke-linejoin="round"/>
<path d="M127.56 200.442C128.976 200.186 130.418 200.105 131.853 200.2" stroke="#263238" stroke-linecap="round" stroke-linejoin="round"/>
<path d="M351.073 147.234C351.224 146.529 351.394 145.815 351.565 145.08" stroke="#263238" stroke-linecap="round" stroke-linejoin="round"/>
<path d="M353.39 175.972C353.39 175.972 346.46 171.422 350.552 149.801" stroke="#263238" stroke-linecap="round" stroke-linejoin="round"/>
<path d="M333.42 235.34C311.354 265.699 293.059 337.629 331.123 380.54" stroke="#263238" stroke-linecap="round" stroke-linejoin="round"/>
<path d="M359.99 202.968C370.652 217.292 377.954 239.306 381.304 246.805" stroke="#263238" stroke-linecap="round" stroke-linejoin="round"/>
<path d="M412.98 378.074C400.402 366.88 392.92 359.955 392.92 359.955L379.098 341.132C379.098 341.132 381.104 265.689 382.348 255.079C383.591 244.47 370.562 224.087 366.5 206.552C362.438 189.017 356.741 178.418 356.741 178.418C355.527 134.37 351.465 139.614 351.465 139.614C323.019 133.846 319.368 182.897 321.795 199.214C324.223 215.531 327.081 242.497 327.081 242.497C327.081 242.497 307.572 245.758 295.787 231.485C284.001 217.212 256.378 203.301 256.378 203.301C256.378 203.301 228.745 182.505 215.736 172.308C202.726 162.111 178.764 146.62 168.594 142.946C158.423 139.272 140.509 136.423 136.086 147.023C134.797 150.041 134.38 153.362 134.882 156.606C135.384 159.851 136.785 162.888 138.924 165.373C138.924 165.373 116.166 156.404 111.702 171.905C107.239 187.407 124.3 201.67 124.3 201.67C124.3 201.67 119.014 204.529 116.166 220.433C113.317 236.337 117.801 240.816 121.452 252.241C125.103 263.665 134.872 270.168 134.872 270.168C134.872 270.168 128.774 280.777 134.872 297.084C140.97 313.391 164.963 337.458 164.963 337.458C164.963 337.458 177.159 359.885 209.667 391.693C242.175 423.501 309.217 448.182 309.217 448.182L315.085 454" stroke="#263238" stroke-linecap="round" stroke-linejoin="round"/>
<path d="M144.1 167.788C144.1 167.788 151.502 172.036 159.145 182.283" stroke="#263238" stroke-linecap="round" stroke-linejoin="round"/>
<path d="M299.608 76.27H182.536C170.77 76.27 161.231 85.8421 161.231 97.6498V378.728C161.231 390.536 170.77 400.108 182.536 400.108H299.608C311.374 400.108 320.913 390.536 320.913 378.728V97.6498C320.913 85.8421 311.374 76.27 299.608 76.27Z" fill="#263238" stroke="#263238" stroke-linecap="round" stroke-linejoin="round"/>
<path d="M295.486 86.6177H282.818C282.384 86.6163 281.953 86.701 281.552 86.8668C281.15 87.0327 280.785 87.2764 280.478 87.5841C280.17 87.8917 279.926 88.2572 279.76 88.6597C279.594 89.0621 279.508 89.4936 279.508 89.9293C279.508 92.8125 278.367 95.5776 276.335 97.6163C274.304 99.6551 271.548 100.8 268.675 100.8H219.888C217.015 100.8 214.26 99.6551 212.228 97.6163C210.197 95.5776 209.056 92.8125 209.056 89.9293C209.056 89.051 208.708 88.2087 208.089 87.5876C207.47 86.9666 206.631 86.6177 205.756 86.6177H186.698C182.689 86.6177 178.845 88.2158 176.01 91.0606C173.175 93.9054 171.583 97.7637 171.583 101.787V374.571C171.583 378.594 173.175 382.452 176.01 385.297C178.845 388.142 182.689 389.74 186.698 389.74H295.526C299.525 389.729 303.356 388.129 306.181 385.29C309.007 382.451 310.596 378.603 310.601 374.591V101.807C310.604 99.8132 310.215 97.8385 309.457 95.9958C308.698 94.1531 307.585 92.4785 306.181 91.0677C304.777 89.657 303.11 88.5378 301.275 87.7743C299.44 87.0107 297.473 86.6177 295.486 86.6177Z" fill="#F9BD1C" stroke="#263238" stroke-width="0.75" stroke-linecap="round" stroke-linejoin="round"/>
<path d="M166.728 319.843V326.144" stroke="#7F7F7F" stroke-linecap="round" stroke-linejoin="round"/>
<path d="M166.728 192.53V310.723" stroke="#7F7F7F" stroke-linecap="round" stroke-linejoin="round"/>
<path d="M166.728 111.138V177.603" stroke="#7F7F7F" stroke-linecap="round" stroke-linejoin="round"/>
<path d="M166.728 99.8542V105.632" stroke="#7F7F7F" stroke-linecap="round" stroke-linejoin="round"/>
<path d="M315.175 152.398V146.107" stroke="#7F7F7F" stroke-linecap="round" stroke-linejoin="round"/>
<path d="M315.175 279.71V161.517" stroke="#7F7F7F" stroke-linecap="round" stroke-linejoin="round"/>
<path d="M315.175 361.103V294.648" stroke="#7F7F7F" stroke-linecap="round" stroke-linejoin="round"/>
<path d="M315.175 372.386V366.609" stroke="#7F7F7F" stroke-linecap="round" stroke-linejoin="round"/>
<path d="M260.25 90.493C260.25 90.917 260.125 91.3316 259.89 91.6841C259.655 92.0367 259.321 92.3115 258.931 92.4738C258.541 92.6361 258.111 92.6785 257.697 92.5958C257.282 92.5131 256.901 92.3089 256.603 92.009C256.304 91.7092 256.1 91.3272 256.018 90.9113C255.936 90.4954 255.978 90.0643 256.14 89.6725C256.301 89.2807 256.575 88.9459 256.926 88.7103C257.278 88.4747 257.691 88.349 258.113 88.349C258.68 88.349 259.223 88.5749 259.624 88.9769C260.025 89.379 260.25 89.9244 260.25 90.493Z" fill="#F9BD1C" stroke="#263238" stroke-linecap="round" stroke-linejoin="round"/>
<path d="M247.582 88.349H233.93C233.364 88.349 232.82 88.5749 232.42 88.9769C232.019 89.379 231.794 89.9244 231.794 90.493C231.794 91.0616 232.019 91.607 232.42 92.009C232.82 92.4111 233.364 92.637 233.93 92.637H247.582C248.148 92.637 248.692 92.4111 249.092 92.009C249.493 91.607 249.718 91.0616 249.718 90.493C249.718 89.9244 249.493 89.379 249.092 88.9769C248.692 88.5749 248.148 88.349 247.582 88.349Z" fill="#F9BD1C" stroke="#263238" stroke-linecap="round" stroke-linejoin="round"/>
<path d="M298.28 238.79H183.17V258.31H298.28V238.79Z" fill="white"/>
<path d="M298.29 258.81H183.17C183.037 258.81 182.91 258.757 182.816 258.664C182.723 258.57 182.67 258.443 182.67 258.31V238.79C182.673 238.658 182.726 238.532 182.819 238.439C182.912 238.346 183.038 238.293 183.17 238.29H298.29C298.422 238.293 298.548 238.346 298.641 238.439C298.734 238.532 298.787 238.658 298.79 238.79V258.31C298.79 258.443 298.737 258.57 298.644 258.664C298.55 258.757 298.423 258.81 298.29 258.81ZM183.67 257.81H297.8V239.29H183.67V257.81Z" fill="#263238"/>
<path d="M298.28 275.14H183.17V294.66H298.28V275.14Z" fill="white"/>
<path d="M298.29 295.17H183.17C183.038 295.167 182.912 295.114 182.819 295.021C182.726 294.927 182.673 294.802 182.67 294.67V275.14C182.673 275.008 182.726 274.882 182.819 274.789C182.912 274.696 183.038 274.643 183.17 274.64H298.29C298.422 274.643 298.548 274.696 298.641 274.789C298.734 274.882 298.787 275.008 298.79 275.14V294.67C298.787 294.802 298.734 294.927 298.641 295.021C298.548 295.114 298.422 295.167 298.29 295.17ZM183.67 294.17H297.8V275.64H183.67V294.17Z" fill="#263238"/>
<path d="M260.5 177.25C260.494 181.165 259.328 184.991 257.148 188.243C254.968 191.495 251.873 194.029 248.254 195.522C244.635 197.016 240.654 197.403 236.815 196.635C232.976 195.867 229.451 193.978 226.685 191.207C223.92 188.435 222.038 184.906 221.277 181.066C220.517 177.225 220.912 173.245 222.413 169.629C223.914 166.013 226.453 162.923 229.71 160.75C232.967 158.577 236.795 157.418 240.71 157.42C243.315 157.411 245.896 157.918 248.304 158.911C250.711 159.905 252.899 161.366 254.739 163.21C256.579 165.054 258.035 167.244 259.024 169.653C260.013 172.063 260.515 174.645 260.5 177.25Z" fill="white"/>
<path d="M240.71 197.54C235.908 197.543 231.261 195.843 227.594 192.744C223.927 189.644 221.477 185.345 220.68 180.61C219.883 175.875 220.79 171.011 223.24 166.881C225.69 162.752 229.525 159.624 234.063 158.055C238.601 156.486 243.548 156.575 248.026 158.309C252.504 160.042 256.223 163.307 258.521 167.523C260.82 171.738 261.549 176.633 260.581 181.335C259.612 186.038 257.007 190.246 253.23 193.21C249.659 196.014 245.25 197.539 240.71 197.54ZM240.71 157.95C236.696 157.948 232.782 159.199 229.512 161.528C226.243 163.856 223.781 167.147 222.47 170.94C221.159 174.734 221.065 178.842 222.199 182.693C223.334 186.543 225.641 189.943 228.8 192.42C232.191 195.113 236.4 196.566 240.73 196.54C245.771 196.425 250.567 194.342 254.092 190.736C257.617 187.13 259.591 182.288 259.591 177.245C259.591 172.202 257.617 167.36 254.092 163.754C250.567 160.148 245.771 158.065 240.73 157.95H240.71Z" fill="#263238"/>
<path d="M246.549 180.003C249.779 176.774 249.779 171.537 246.549 168.308C243.32 165.078 238.084 165.078 234.854 168.308C231.624 171.537 231.624 176.774 234.854 180.003C238.084 183.233 243.32 183.233 246.549 180.003Z" fill="#263238"/>
<path d="M252.93 192.81C249.447 195.557 245.141 197.051 240.705 197.051C236.269 197.051 231.963 195.557 228.48 192.81C229.095 190.026 230.642 187.535 232.865 185.75C235.088 183.965 237.854 182.992 240.705 182.992C243.556 182.992 246.322 183.965 248.545 185.75C250.768 187.535 252.315 190.026 252.93 192.81Z" fill="#263238"/>
<path d="M228.8 219.86V211.23H230.38V218.77H232.47V219.86H228.8Z" fill="#263238"/>
<path d="M235.57 219.98C235.058 220.002 234.55 219.884 234.1 219.64C233.736 219.405 233.464 219.052 233.33 218.64C233.16 218.152 233.079 217.637 233.09 217.12V213.89C233.078 213.38 233.16 212.871 233.33 212.39C233.459 211.975 233.732 211.621 234.1 211.39C234.56 211.173 235.062 211.06 235.57 211.06C236.078 211.06 236.58 211.173 237.04 211.39C237.408 211.623 237.684 211.976 237.82 212.39C237.99 212.871 238.072 213.38 238.06 213.89V217.13C238.072 217.64 237.99 218.149 237.82 218.63C237.675 219.039 237.402 219.39 237.04 219.63C236.593 219.884 236.083 220.005 235.57 219.98ZM235.57 218.82C235.777 218.834 235.983 218.774 236.15 218.65C236.274 218.519 236.361 218.356 236.4 218.18C236.441 217.966 236.461 217.748 236.46 217.53V213.53C236.462 213.312 236.442 213.094 236.4 212.88C236.362 212.709 236.275 212.552 236.15 212.43C235.983 212.306 235.777 212.245 235.57 212.26C235.366 212.247 235.164 212.307 235 212.43C234.868 212.549 234.777 212.706 234.74 212.88C234.698 213.094 234.678 213.312 234.68 213.53V217.53C234.679 217.748 234.699 217.966 234.74 218.18C234.769 218.36 234.857 218.525 234.99 218.65C235.157 218.774 235.363 218.834 235.57 218.82Z" fill="#263238"/>
<path d="M241.39 219.98C240.91 220.004 240.435 219.878 240.03 219.62C239.695 219.366 239.445 219.018 239.31 218.62C239.157 218.107 239.083 217.575 239.09 217.04V214.12C239.076 213.578 239.15 213.038 239.31 212.52C239.436 212.11 239.702 211.756 240.06 211.52C240.51 211.256 241.029 211.131 241.55 211.16C242.035 211.138 242.517 211.241 242.95 211.46C243.294 211.649 243.559 211.954 243.7 212.32C243.868 212.753 243.947 213.216 243.93 213.68V214.12H242.43V213.63C242.433 213.392 242.413 213.154 242.37 212.92C242.344 212.749 242.263 212.591 242.14 212.47C241.965 212.353 241.76 212.291 241.55 212.291C241.34 212.291 241.135 212.353 240.96 212.47C240.831 212.623 240.751 212.811 240.73 213.01C240.697 213.249 240.68 213.489 240.68 213.73V217.35C240.678 217.609 240.705 217.867 240.76 218.12C240.798 218.313 240.892 218.49 241.03 218.63C241.195 218.759 241.401 218.822 241.61 218.81C241.825 218.822 242.037 218.751 242.2 218.61C242.342 218.464 242.439 218.28 242.48 218.08C242.535 217.814 242.562 217.542 242.56 217.27V216.46H241.63V215.46H243.98V219.84H242.98L242.87 218.99C242.756 219.262 242.578 219.502 242.35 219.69C242.073 219.894 241.734 219.996 241.39 219.98Z" fill="#263238"/>
<path d="M245.22 219.86V211.23H246.8V219.86H245.22Z" fill="#263238"/>
<path d="M248.11 219.86V211.23H249.21L251.31 216.15V211.23H252.61V219.86H251.61L249.49 214.7V219.86H248.11Z" fill="#263238"/>
<path d="M222.15 253.53C221.645 253.561 221.143 253.428 220.72 253.15C220.38 252.908 220.136 252.554 220.03 252.15C219.902 251.633 219.841 251.102 219.85 250.57V244.85H221V250.62C221 250.955 221.027 251.289 221.08 251.62C221.116 251.886 221.227 252.135 221.4 252.34C221.5 252.434 221.618 252.506 221.747 252.553C221.876 252.599 222.013 252.619 222.15 252.61C222.288 252.62 222.428 252.601 222.558 252.555C222.689 252.509 222.809 252.435 222.91 252.34C223.083 252.135 223.194 251.886 223.23 251.62C223.283 251.289 223.31 250.955 223.31 250.62V244.85H224.45V250.57C224.459 251.102 224.398 251.633 224.27 252.15C224.161 252.55 223.922 252.902 223.59 253.15C223.164 253.429 222.658 253.563 222.15 253.53Z" fill="#CCCCCC"/>
<path d="M227.8 253.53C227.364 253.545 226.934 253.434 226.56 253.21C226.227 252.994 225.966 252.684 225.81 252.32C225.63 251.906 225.528 251.461 225.51 251.01L226.58 250.72C226.596 251.021 226.643 251.319 226.72 251.61C226.782 251.871 226.909 252.112 227.09 252.31C227.287 252.482 227.539 252.576 227.8 252.576C228.061 252.576 228.313 252.482 228.51 252.31C228.681 252.099 228.766 251.831 228.75 251.56C228.779 251.205 228.684 250.852 228.48 250.56C228.284 250.296 228.059 250.054 227.81 249.84L226.36 248.56C226.099 248.334 225.885 248.059 225.73 247.75C225.589 247.404 225.521 247.033 225.53 246.66C225.515 246.39 225.555 246.119 225.648 245.865C225.741 245.61 225.884 245.377 226.07 245.18C226.481 244.82 227.015 244.634 227.56 244.66C227.866 244.656 228.17 244.703 228.46 244.8C228.709 244.877 228.933 245.018 229.11 245.21C229.292 245.41 229.431 245.645 229.52 245.9C229.634 246.222 229.705 246.559 229.73 246.9L228.73 247.18C228.71 246.913 228.667 246.649 228.6 246.39C228.546 246.17 228.427 245.972 228.26 245.82C228.061 245.671 227.819 245.59 227.57 245.59C227.321 245.59 227.079 245.671 226.88 245.82C226.791 245.914 226.723 246.026 226.68 246.149C226.637 246.271 226.62 246.401 226.63 246.53C226.62 246.754 226.665 246.977 226.76 247.18C226.872 247.377 227.017 247.553 227.19 247.7L228.65 248.98C228.99 249.267 229.283 249.604 229.52 249.98C229.772 250.403 229.9 250.888 229.89 251.38C229.9 251.764 229.807 252.144 229.62 252.48C229.454 252.785 229.199 253.032 228.89 253.19C228.564 253.399 228.187 253.516 227.8 253.53Z" fill="#CCCCCC"/>
<path d="M230.8 253.42V244.79H234.14V245.68H232V248.54H233.74V249.42H232V252.59H234.17V253.42H230.8Z" fill="#CCCCCC"/>
<path d="M235.1 253.42V244.79H236.8C237.287 244.771 237.773 244.85 238.23 245.02C238.591 245.151 238.89 245.411 239.07 245.75C239.267 246.165 239.359 246.621 239.34 247.08C239.342 247.387 239.305 247.692 239.23 247.99C239.17 248.243 239.054 248.479 238.89 248.68C238.73 248.877 238.514 249.02 238.27 249.09L239.5 253.42H238.34L237.21 249.42H236.27V253.42H235.1ZM236.3 248.51H236.8C237.082 248.516 237.363 248.472 237.63 248.38C237.837 248.298 238.005 248.141 238.1 247.94C238.213 247.668 238.264 247.374 238.25 247.08C238.286 246.695 238.187 246.31 237.97 245.99C237.823 245.856 237.648 245.757 237.458 245.698C237.268 245.639 237.067 245.623 236.87 245.65H236.34L236.3 248.51Z" fill="#CCCCCC"/>
<path d="M240.63 253.42V244.79H241.45L243.9 250.52V244.79H244.9V253.42H244.14L241.65 247.53V253.42H240.63Z" fill="#CCCCCC"/>
<path d="M245.8 253.42L247.63 244.79H248.8L250.65 253.42H249.51L249.11 251.25H247.35L246.94 253.42H245.8ZM247.5 250.42H248.94L248.22 246.53L247.5 250.42Z" fill="#CCCCCC"/>
<path d="M251.48 253.42L251.64 244.79H252.8L254.33 251.79L255.86 244.79H257.03L257.19 253.42H256.19L256.1 247.15L254.69 253.42H254.01L252.56 247.15L252.46 253.42H251.48Z" fill="#CCCCCC"/>
<path d="M258.54 253.42V244.79H261.88V245.68H259.74V248.54H261.48V249.42H259.74V252.59H261.91V253.42H258.54Z" fill="#CCCCCC"/>
<path d="M219.09 289.15V280.52H221.23C221.661 280.496 222.091 280.593 222.47 280.8C222.783 280.989 223.022 281.278 223.15 281.62C223.301 282.033 223.372 282.471 223.36 282.91C223.37 283.316 223.288 283.72 223.12 284.09C222.971 284.412 222.726 284.681 222.42 284.86C222.057 285.051 221.65 285.144 221.24 285.13H220.29V289.13L219.09 289.15ZM220.29 284.27H220.85C221.128 284.281 221.406 284.24 221.67 284.15C221.767 284.116 221.855 284.062 221.929 283.991C222.003 283.921 222.062 283.835 222.1 283.74C222.191 283.477 222.232 283.198 222.22 282.92C222.23 282.601 222.199 282.282 222.13 281.97C222.107 281.869 222.061 281.774 221.995 281.695C221.929 281.615 221.845 281.551 221.75 281.51C221.464 281.411 221.162 281.367 220.86 281.38H220.29V284.27Z" fill="#CCCCCC"/>
<path d="M223.33 289.15L225.17 280.52H226.33L228.17 289.15H227.03L226.64 286.98H224.88L224.46 289.15H223.33ZM225.04 286.15H226.48L225.75 282.26L225.04 286.15Z" fill="#CCCCCC"/>
<path d="M231.08 289.25C230.644 289.265 230.214 289.154 229.84 288.93C229.509 288.717 229.248 288.411 229.09 288.05C228.911 287.632 228.81 287.184 228.79 286.73L229.86 286.45C229.88 286.747 229.927 287.041 230 287.33C230.066 287.589 230.193 287.829 230.37 288.03C230.463 288.122 230.574 288.194 230.696 288.241C230.819 288.287 230.949 288.307 231.08 288.3C231.21 288.309 231.341 288.291 231.463 288.246C231.585 288.201 231.697 288.131 231.79 288.04C231.962 287.83 232.048 287.561 232.03 287.29C232.046 286.952 231.951 286.619 231.76 286.34C231.559 286.08 231.335 285.839 231.09 285.62L229.64 284.35C229.376 284.123 229.162 283.844 229.01 283.53C228.862 283.179 228.791 282.801 228.8 282.42C228.783 282.15 228.823 281.88 228.918 281.626C229.013 281.373 229.16 281.142 229.35 280.95C229.545 280.77 229.773 280.63 230.022 280.539C230.271 280.448 230.535 280.408 230.8 280.42C231.106 280.416 231.41 280.463 231.7 280.56C231.947 280.641 232.171 280.782 232.35 280.97C232.533 281.173 232.673 281.411 232.76 281.67C232.879 281.991 232.95 282.328 232.97 282.67L231.97 282.95C231.95 282.687 231.907 282.426 231.84 282.17C231.786 281.948 231.668 281.746 231.5 281.59C231.301 281.441 231.059 281.36 230.81 281.36C230.561 281.36 230.319 281.441 230.12 281.59C230.031 281.684 229.963 281.796 229.92 281.919C229.877 282.041 229.86 282.171 229.87 282.3C229.86 282.524 229.905 282.747 230 282.95C230.109 283.149 230.255 283.325 230.43 283.47L231.89 284.75C232.225 285.041 232.518 285.378 232.76 285.75C233.015 286.172 233.143 286.658 233.13 287.15C233.141 287.537 233.048 287.921 232.86 288.26C232.69 288.56 232.437 288.803 232.13 288.96C231.81 289.144 231.449 289.244 231.08 289.25Z" fill="#CCCCCC"/>
<path d="M236.12 289.25C235.685 289.264 235.254 289.153 234.88 288.93C234.549 288.717 234.288 288.411 234.13 288.05C233.951 287.632 233.849 287.184 233.83 286.73L234.9 286.45C234.92 286.747 234.967 287.041 235.04 287.33C235.106 287.589 235.233 287.829 235.41 288.03C235.503 288.122 235.614 288.194 235.736 288.241C235.858 288.287 235.989 288.307 236.12 288.3C236.25 288.309 236.38 288.291 236.503 288.246C236.625 288.201 236.737 288.131 236.83 288.04C237.002 287.83 237.088 287.561 237.07 287.29C237.084 286.954 236.993 286.622 236.81 286.34C236.603 286.085 236.38 285.844 236.14 285.62L234.69 284.35C234.42 284.128 234.205 283.848 234.06 283.53C233.91 283.187 233.838 282.814 233.85 282.44C233.833 282.17 233.873 281.9 233.968 281.646C234.063 281.393 234.21 281.162 234.4 280.97C234.598 280.786 234.831 280.645 235.086 280.553C235.34 280.462 235.61 280.424 235.88 280.44C236.186 280.436 236.49 280.483 236.78 280.58C237.028 280.658 237.252 280.8 237.43 280.99C237.613 281.195 237.756 281.432 237.85 281.69C237.961 282.013 238.028 282.349 238.05 282.69L237.05 282.97C237.035 282.706 236.992 282.444 236.92 282.19C236.87 281.968 236.755 281.766 236.59 281.61C236.396 281.453 236.149 281.375 235.9 281.39C235.645 281.378 235.394 281.463 235.2 281.63C235.111 281.724 235.043 281.836 235 281.959C234.957 282.081 234.94 282.211 234.95 282.34C234.94 282.564 234.985 282.787 235.08 282.99C235.193 283.189 235.342 283.365 235.52 283.51L236.98 284.79C237.31 285.084 237.599 285.42 237.84 285.79C238.095 286.212 238.223 286.697 238.21 287.19C238.219 287.576 238.129 287.958 237.95 288.3C237.775 288.595 237.522 288.837 237.22 289C236.881 289.177 236.502 289.263 236.12 289.25Z" fill="#CCCCCC"/>
<path d="M240.25 289.15L238.8 280.52H239.8L240.73 286.72L241.89 280.55H242.8L243.97 286.76L244.88 280.52H245.88L244.49 289.15H243.62L242.41 282.76L241.2 289.15H240.25Z" fill="#CCCCCC"/>
<path d="M249.02 289.25C248.533 289.276 248.05 289.158 247.63 288.91C247.272 288.673 247.007 288.32 246.88 287.91C246.723 287.433 246.649 286.932 246.66 286.43V283.15C246.645 282.653 246.723 282.158 246.89 281.69C247.025 281.303 247.285 280.972 247.63 280.75C248.053 280.511 248.535 280.397 249.02 280.42C249.505 280.399 249.986 280.513 250.41 280.75C250.752 280.974 251.012 281.304 251.15 281.69C251.312 282.159 251.39 282.654 251.38 283.15V286.42C251.388 286.92 251.31 287.417 251.15 287.89C251.022 288.297 250.761 288.649 250.41 288.89C249.993 289.147 249.509 289.272 249.02 289.25ZM249.02 288.3C249.279 288.321 249.538 288.25 249.75 288.1C249.917 287.958 250.033 287.765 250.08 287.55C250.135 287.273 250.162 286.992 250.16 286.71V282.93C250.162 282.651 250.135 282.373 250.08 282.1C250.034 281.891 249.918 281.703 249.75 281.57C249.527 281.446 249.275 281.38 249.02 281.38C248.764 281.38 248.513 281.446 248.29 281.57C248.119 281.7 248.001 281.889 247.96 282.1C247.895 282.372 247.865 282.651 247.87 282.93V286.71C247.866 286.993 247.896 287.275 247.96 287.55C248.002 287.766 248.119 287.961 248.29 288.1C248.502 288.25 248.761 288.321 249.02 288.3Z" fill="#CCCCCC"/>
<path d="M252.56 289.15V280.52H254.3C254.787 280.506 255.272 280.584 255.73 280.75C256.085 280.89 256.382 281.148 256.57 281.48C256.767 281.895 256.859 282.351 256.84 282.81C256.842 283.117 256.805 283.423 256.73 283.72C256.672 283.976 256.556 284.216 256.39 284.42C256.223 284.609 256.009 284.75 255.77 284.83L257 289.15H255.8L254.67 285.1H253.8V289.15H252.56ZM253.77 284.24H254.22C254.506 284.251 254.791 284.207 255.06 284.11C255.163 284.071 255.258 284.012 255.339 283.937C255.419 283.861 255.484 283.771 255.53 283.67C255.639 283.397 255.687 283.103 255.67 282.81C255.703 282.427 255.608 282.043 255.4 281.72C255.252 281.587 255.077 281.488 254.887 281.43C254.697 281.371 254.497 281.354 254.3 281.38H253.8L253.77 284.24Z" fill="#CCCCCC"/>
<path d="M258.09 289.15V280.52H259.97C260.492 280.497 261.013 280.597 261.49 280.81C261.853 280.999 262.136 281.311 262.29 281.69C262.463 282.157 262.544 282.652 262.53 283.15V286.33C262.545 286.854 262.463 287.376 262.29 287.87C262.155 288.284 261.879 288.638 261.51 288.87C261.068 289.106 260.57 289.217 260.07 289.19L258.09 289.15ZM259.3 288.29H259.98C260.314 288.32 260.648 288.227 260.92 288.03C261.117 287.832 261.234 287.569 261.25 287.29C261.294 286.895 261.314 286.497 261.31 286.1V283.3C261.32 282.935 261.293 282.57 261.23 282.21C261.212 282.089 261.169 281.973 261.103 281.87C261.038 281.767 260.951 281.678 260.85 281.61C260.576 281.458 260.263 281.388 259.95 281.41H259.3V288.29Z" fill="#CCCCCC"/>
</svg>
