<svg width="155" height="311" viewBox="0 0 155 311" fill="none" xmlns="http://www.w3.org/2000/svg">
<path d="M1.07999 63.88C1.93874 62.1089 3.31192 60.6381 5.01999 59.66L107.68 1.25999C108.153 1.07861 108.653 0.977219 109.16 0.959983C114.44 0.859983 119.75 5.82998 120.5 8.44998C120.67 8.78102 120.759 9.14776 120.76 9.51998V231.47C120.76 233.203 120.302 234.906 119.431 236.404C118.559 237.902 117.307 239.143 115.8 240L13.14 298.5C13.0137 298.562 12.8834 298.615 12.75 298.66C6.62 301.26 0.100006 295.86 0.100006 290.2V68.2C0.0926736 66.7041 0.427884 65.2263 1.07999 63.88Z" fill="#263238"/>
<path d="M120.49 8.45999C119.74 5.83999 114.43 0.869992 109.15 0.969992C108.643 0.987229 108.143 1.08861 107.67 1.26999L5 59.66C3.49877 60.5265 2.24856 61.7684 1.37201 63.2638C0.495456 64.7592 0.0226634 66.4568 0 68.19V290.19C0 295.85 6.51999 301.25 12.65 298.65C12.7834 298.605 12.9137 298.552 13.04 298.49L115.8 240C117.305 239.142 118.555 237.9 119.425 236.402C120.294 234.904 120.751 233.202 120.75 231.47V9.52999C120.749 9.15777 120.66 8.79103 120.49 8.45999Z" fill="#455A64"/>
<path d="M14.38 91.66C14.3824 90.7932 14.6129 89.9424 15.0482 89.1929C15.4835 88.4434 16.1083 87.8216 16.86 87.39L112.18 33.17C112.553 32.9583 112.974 32.8481 113.403 32.8504C113.831 32.8526 114.252 32.9673 114.622 33.1828C114.993 33.3984 115.3 33.7073 115.514 34.0789C115.727 34.4504 115.84 34.8714 115.84 35.3V214.35C115.839 215.216 115.609 216.066 115.173 216.814C114.738 217.562 114.112 218.182 113.36 218.61L18 272.93C17.6259 273.141 17.2029 273.251 16.7732 273.248C16.3435 273.245 15.9221 273.13 15.5508 272.913C15.1796 272.697 14.8716 272.387 14.6574 272.014C14.4432 271.642 14.3303 271.22 14.33 270.79L14.38 91.66Z" fill="#51754C"/>
<path opacity="0.2" d="M14.38 91.66C14.3824 90.7932 14.6129 89.9424 15.0482 89.1929C15.4835 88.4434 16.1083 87.8216 16.86 87.39L112.18 33.17C112.553 32.9583 112.974 32.8481 113.403 32.8504C113.831 32.8526 114.252 32.9673 114.622 33.1828C114.993 33.3984 115.3 33.7073 115.514 34.0789C115.727 34.4504 115.84 34.8714 115.84 35.3V214.35C115.839 215.216 115.609 216.066 115.173 216.814C114.738 217.562 114.112 218.182 113.36 218.61L18 272.93C17.6259 273.141 17.2029 273.251 16.7732 273.248C16.3435 273.245 15.9221 273.13 15.5508 272.913C15.1796 272.697 14.8716 272.387 14.6574 272.014C14.4432 271.642 14.3303 271.22 14.33 270.79L14.38 91.66Z" fill="black"/>
<path opacity="0.3" d="M0.0599976 68.19V290.19C0.0599976 295.85 6.57999 301.25 12.71 298.65C12.3413 298.783 11.9461 298.825 11.5576 298.774C11.1692 298.722 10.7988 298.578 10.4774 298.354C10.1561 298.129 9.89332 297.831 9.71106 297.484C9.5288 297.137 9.43241 296.752 9.42999 296.36V74.36C9.43674 72.4292 10.0143 70.5434 11.09 68.94L1.04001 63.94C0.398241 65.2651 0.0632683 66.7177 0.0599976 68.19Z" fill="black"/>
<path opacity="0.1" d="M109.16 0.999966C108.653 1.0172 108.153 1.11859 107.68 1.29997L5 59.66C3.29193 60.6381 1.91875 62.1089 1.06 63.88L11.11 68.88C11.9525 67.5976 13.0824 66.5293 14.41 65.76L117.08 7.38997C117.372 7.22548 117.694 7.12256 118.027 7.08757C118.36 7.05259 118.697 7.08627 119.017 7.18655C119.336 7.28683 119.632 7.45157 119.885 7.67059C120.139 7.88962 120.345 8.15827 120.49 8.45997C119.75 5.82997 114.44 0.859966 109.16 0.999966Z" fill="white"/>
<path d="M77.76 44.06C78.48 43.64 79.08 43.96 79.08 44.79C79.0559 45.2462 78.9248 45.6903 78.6972 46.0864C78.4696 46.4825 78.152 46.8194 77.77 47.07L57.63 58.69C56.91 59.11 56.33 58.76 56.33 57.93C56.3517 57.481 56.48 57.0436 56.7043 56.6541C56.9286 56.2646 57.2425 55.9341 57.62 55.69L77.76 44.06Z" fill="#263238"/>
<path d="M52.45 58.67C53.17 58.26 53.76 58.59 53.76 59.42C53.734 59.8718 53.6029 60.3114 53.3773 60.7037C53.1516 61.0961 52.8375 61.4303 52.46 61.68C51.74 62.1 51.14 61.75 51.14 60.93C51.1664 60.4771 51.2986 60.0367 51.5261 59.6441C51.7536 59.2516 52.0701 58.918 52.45 58.67Z" fill="#263238"/>
<path d="M65.34 42.37C66.78 41.54 67.95 42.2 67.95 43.85C67.9053 44.7556 67.6474 45.6379 67.1974 46.4251C66.7473 47.2123 66.1178 47.8821 65.36 48.38C63.92 49.21 62.73 48.53 62.72 46.87C62.7734 45.9671 63.0384 45.0893 63.4935 44.3076C63.9486 43.526 64.5811 42.8622 65.34 42.37Z" fill="#263238"/>
<path d="M65.35 251.4C68.28 249.71 70.65 251.05 70.66 254.4C70.5672 256.241 70.0416 258.035 69.126 259.635C68.2103 261.235 66.9304 262.597 65.39 263.61C62.45 265.3 60.02 263.92 60.01 260.54C60.1206 258.704 60.6616 256.921 61.5893 255.333C62.517 253.745 63.8053 252.398 65.35 251.4Z" fill="#263238"/>
<path d="M30 99.74C30.1232 98.7386 30.4139 97.765 30.86 96.86C31.0557 96.4644 31.2796 96.0834 31.53 95.72C32.2836 94.6117 33.2785 93.6886 34.44 93.02L127.62 40.02L127.76 39.96C127.884 39.9184 128.011 39.885 128.14 39.86C128.414 39.8049 128.691 39.7715 128.97 39.76C130.485 39.7497 131.981 40.0921 133.34 40.76C134.668 41.4152 135.892 42.2645 136.97 43.28L137.54 43.85C138.299 44.598 138.886 45.5023 139.26 46.5C139.333 46.6468 139.39 46.801 139.43 46.96C139.479 47.1254 139.503 47.2974 139.5 47.47V249C139.496 250.572 139.077 252.114 138.287 253.473C137.497 254.832 136.364 255.959 135 256.74L41.82 309.84C41.7036 309.895 41.5832 309.942 41.46 309.98C35.9 312.34 29.98 307.44 29.98 302.3V100.77C29.9665 100.427 29.9732 100.083 30 99.74Z" fill="#51754C"/>
<path d="M139.28 46.55C138.6 44.18 133.78 39.66 128.99 39.76C128.529 39.7708 128.072 39.8587 127.64 40.02L34.46 93.02C32.9116 93.9158 31.6652 95.2527 30.88 96.86C30.2777 98.0756 29.9629 99.4134 29.96 100.77V302.31C29.96 307.45 35.88 312.31 41.44 309.99C41.5632 309.952 41.6835 309.905 41.8 309.85L135 256.72C136.366 255.941 137.501 254.815 138.291 253.455C139.082 252.096 139.499 250.552 139.5 248.98V47.52C139.501 47.1841 139.426 46.8524 139.28 46.55Z" fill="#51754C"/>
<path opacity="0.2" d="M30 100.77V302.31C30 307.45 35.92 312.31 41.48 309.99C41.1441 310.119 40.7818 310.163 40.4247 310.12C40.0675 310.077 39.7263 309.947 39.4307 309.742C39.1351 309.537 38.894 309.263 38.7283 308.944C38.5626 308.625 38.4774 308.27 38.48 307.91V106.34C38.4843 104.588 39.0061 102.876 39.98 101.42L30.86 96.86C30.2784 98.0805 29.9842 99.4181 30 100.77Z" fill="white"/>
<path opacity="0.4" d="M129 39.75C128.539 39.7608 128.082 39.8487 127.65 40.01L34.47 93.01C32.9216 93.9057 31.6752 95.2426 30.89 96.85L40 101.42C40.7632 100.254 41.7911 99.2839 43 98.59L136.18 45.59C136.446 45.4404 136.74 45.3475 137.043 45.3172C137.347 45.2868 137.654 45.3196 137.944 45.4136C138.234 45.5075 138.502 45.6605 138.73 45.863C138.958 46.0654 139.142 46.313 139.27 46.59C138.61 44.17 133.79 39.65 129 39.75Z" fill="white"/>
<path opacity="0.3" d="M139.28 46.55C138.6 44.18 133.78 39.66 128.99 39.76C128.529 39.7708 128.072 39.8587 127.64 40.02L34.46 93.02C32.9116 93.9158 31.6652 95.2527 30.88 96.86C30.2777 98.0756 29.9629 99.4134 29.96 100.77V302.31C29.96 307.45 35.88 312.31 41.44 309.99C41.5632 309.952 41.6835 309.905 41.8 309.85L135 256.72C136.366 255.941 137.501 254.815 138.291 253.455C139.082 252.096 139.499 250.552 139.5 248.98V47.52C139.501 47.1841 139.426 46.8524 139.28 46.55Z" fill="white"/>
<path d="M130.12 58.47L129.08 59.08L129.06 54.59L130.11 53.99L130.12 58.47Z" fill="white"/>
<path d="M131.91 57.44L130.87 58.04L130.86 54.41L131.9 53.81L131.91 57.44Z" fill="white"/>
<path d="M133.71 56.4L132.67 57L132.66 54.31L133.7 53.71L133.71 56.4Z" fill="white"/>
<path d="M135.5 55.37L134.46 55.97V54.15L135.5 53.55V55.37Z" fill="white"/>
<path d="M126.24 60.72L119.85 64.41L119.84 60.64L126.23 56.95L126.24 60.72Z" fill="white"/>
<path d="M116.67 66.24L113.48 68.08L113.47 64.32L116.66 62.48L116.67 66.24Z" fill="white"/>
<path d="M50.74 103.83L50.73 100.8L47.3 102.78L50.73 100.8L50.74 103.83Z" fill="white"/>
<path d="M50.74 103.83L47.31 105.81L47.3 102.78L50.73 100.8L50.74 103.83Z" fill="#51754C"/>
<path d="M44.88 104.63V103.45L51.36 99.71V104.19L44.88 107.93V106.75L44.05 107.23V105.11L44.88 104.63ZM47.31 105.81L50.74 103.81V100.81L47.31 102.81V105.81Z" fill="white"/>
<path d="M60.64 98.52L54.25 102.2L54.24 98.44L60.63 94.75L60.64 98.52Z" fill="white"/>
<path d="M91.13 80.69L84.74 84.38L84.73 80.62L91.12 76.93L91.13 80.69Z" fill="white"/>
<path d="M55.52 116.51L149.41 62.3C149.68 62.1127 149.991 61.9946 150.318 61.9562C150.644 61.9178 150.974 61.9604 151.28 62.08H151.33L153.33 63.22L152.1 64.44L152.17 91.25V91.88V99.11C152.119 100.051 151.847 100.967 151.377 101.784C150.906 102.6 150.249 103.295 149.46 103.81L59.23 156L55.76 159.42L53.82 158.31C53.7491 158.278 53.682 158.237 53.62 158.19H53.53C53.3112 157.986 53.1411 157.735 53.032 157.457C52.923 157.178 52.8779 156.878 52.9 156.58V149.96V148.72L52.82 121.29C52.8572 120.336 53.1216 119.404 53.5912 118.573C54.0608 117.742 54.7221 117.034 55.52 116.51Z" fill="#51754C"/>
<path opacity="0.2" d="M55.52 116.51L149.41 62.3C149.68 62.1127 149.991 61.9946 150.318 61.9562C150.644 61.9178 150.974 61.9604 151.28 62.08H151.33L153.33 63.22L152.1 64.44L152.17 91.25V91.88V99.11C152.119 100.051 151.847 100.967 151.377 101.784C150.906 102.6 150.249 103.295 149.46 103.81L59.23 156L55.76 159.42L53.82 158.31C53.7491 158.278 53.682 158.237 53.62 158.19H53.53C53.3112 157.986 53.1411 157.735 53.032 157.457C52.923 157.178 52.8779 156.878 52.9 156.58V149.96V148.72L52.82 121.29C52.8572 120.336 53.1216 119.404 53.5912 118.573C54.0608 117.742 54.7221 117.034 55.52 116.51Z" fill="black"/>
<path d="M57.53 117.64C56.7409 118.156 56.0843 118.85 55.6134 119.666C55.1426 120.483 54.8708 121.399 54.82 122.34L54.9 149.76L154.23 92.4201V93.6701L54.9 151V157.61C54.9 159.34 56.13 160.04 57.63 159.17L151.54 105C152.328 104.486 152.984 103.793 153.454 102.978C153.925 102.164 154.198 101.25 154.25 100.31L154.15 65.0201C154.15 63.3001 152.93 62.6001 151.42 63.4601L57.53 117.64Z" fill="#51754C"/>
<path d="M54.9 149.76V151.01L154.23 93.67V92.42L54.9 149.76Z" fill="#51754C"/>
<g opacity="0.2">
<path d="M54.9 149.76V151.01L154.23 93.67V92.42L54.9 149.76Z" fill="white"/>
</g>
<g opacity="0.6">
<path d="M103.42 126.14L103.43 129.2L151.1 101.67L151.09 98.62L103.42 126.14Z" fill="white"/>
</g>
<path d="M133.41 77.67C132.937 77.9794 132.544 78.396 132.262 78.886C131.981 79.3761 131.819 79.9256 131.79 80.49V98.83C131.79 99.83 132.52 100.28 133.43 99.76L149.38 90.54C149.855 90.2339 150.25 89.8196 150.533 89.3311C150.816 88.8427 150.98 88.2939 151.01 87.73L150.96 69.39C150.96 68.39 150.22 67.93 149.32 68.45L133.41 77.67Z" fill="white"/>
<g opacity="0.6">
<path d="M75.12 113.27L75.13 117.28L125.64 88.12L125.63 84.11L75.12 113.27Z" fill="white"/>
</g>
<g opacity="0.6">
<path d="M97.47 114.46L97.48 118.47L125.68 102.19L125.67 98.1801L97.47 114.46Z" fill="white"/>
</g>
<g opacity="0.6">
<path d="M75.14 120.31L75.15 124.31L125.66 95.15L125.65 91.15L75.14 120.31Z" fill="white"/>
</g>
<g opacity="0.5">
<path d="M58.66 120.99L60.18 122.35L58.39 126.06L59.89 125.19L60.97 122.85L61.96 124L63.47 123.12L61.64 121.51L63.1 118.43L61.62 119.28L60.84 121L60.16 120.13L58.66 120.99Z" fill="white"/>
</g>
<path d="M55.52 166.46L149.41 112.25C149.681 112.064 149.993 111.948 150.319 111.911C150.645 111.875 150.975 111.919 151.28 112.04H151.33L153.33 113.18L152.1 114.4L152.17 141.21V141.84V149.07C152.118 150.01 151.845 150.924 151.374 151.738C150.904 152.553 150.248 153.246 149.46 153.76L59.16 205.9L55.69 209.32L53.75 208.2C53.6794 208.171 53.6122 208.134 53.55 208.09L53.46 208.04C53.2412 207.836 53.0711 207.585 52.962 207.307C52.853 207.028 52.8079 206.728 52.83 206.43V199.81V198.56L52.75 171.14C52.8105 170.197 53.093 169.281 53.5743 168.468C54.0557 167.655 54.7223 166.967 55.52 166.46Z" fill="#51754C"/>
<path opacity="0.2" d="M55.52 166.46L149.41 112.25C149.681 112.064 149.993 111.948 150.319 111.911C150.645 111.875 150.975 111.919 151.28 112.04H151.33L153.33 113.18L152.1 114.4L152.17 141.21V141.84V149.07C152.118 150.01 151.845 150.924 151.374 151.738C150.904 152.553 150.248 153.246 149.46 153.76L59.16 205.9L55.69 209.32L53.75 208.2C53.6794 208.171 53.6122 208.134 53.55 208.09L53.46 208.04C53.2412 207.836 53.0711 207.585 52.962 207.307C52.853 207.028 52.8079 206.728 52.83 206.43V199.81V198.56L52.75 171.14C52.8105 170.197 53.093 169.281 53.5743 168.468C54.0557 167.655 54.7223 166.967 55.52 166.46Z" fill="black"/>
<path d="M57.53 167.6C56.7409 168.115 56.0843 168.81 55.6134 169.626C55.1426 170.443 54.8708 171.359 54.82 172.3L54.9 199.72L154.23 142.38V143.62L54.9 201V207.61C54.9 209.34 56.13 210.04 57.63 209.17L151.52 154.96C152.308 154.446 152.964 153.753 153.434 152.938C153.905 152.123 154.178 151.209 154.23 150.27L154.13 114.98C154.13 113.25 152.91 112.55 151.4 113.42L57.53 167.6Z" fill="#51754C"/>
<path d="M54.9 199.72V200.97L154.23 143.62V142.38L54.9 199.72Z" fill="#51754C"/>
<g opacity="0.2">
<path d="M54.9 199.72V200.97L154.23 143.62V142.38L54.9 199.72Z" fill="white"/>
</g>
<path d="M133.41 127.63C132.937 127.939 132.544 128.356 132.262 128.846C131.981 129.336 131.819 129.886 131.79 130.45V148.78C131.79 149.78 132.52 150.23 133.43 149.72L149.38 140.5C149.856 140.193 150.252 139.777 150.535 139.287C150.819 138.796 150.981 138.246 151.01 137.68L150.96 119.35C150.96 118.35 150.22 117.89 149.32 118.41L133.41 127.63Z" fill="white"/>
<g opacity="0.6">
<path d="M75.12 163.23L75.13 167.24L125.64 138.07L125.63 134.06L75.12 163.23Z" fill="white"/>
</g>
<g opacity="0.5">
<path d="M58.66 170.95L60.18 172.31L58.39 176.01L59.89 175.15L60.97 172.81L61.96 173.95L63.47 173.08L61.64 171.47L63.1 168.39L61.62 169.24L60.84 170.96L60.16 170.09L58.66 170.95Z" fill="white"/>
</g>
<path opacity="0.6" d="M151.09 148.58L151.1 151.63L123.39 167.63V164.57L151.09 148.58Z" fill="white"/>
<path opacity="0.6" d="M125.65 141.1L125.66 145.11L101.57 159.01V155L125.65 141.1Z" fill="white"/>
<path d="M55.52 267.07L149.41 212.86C149.68 212.673 149.991 212.555 150.318 212.516C150.644 212.478 150.974 212.52 151.28 212.64H151.33L153.33 213.78L152.1 215L152.17 241.81V242.44V249.67C152.119 250.611 151.847 251.527 151.377 252.344C150.906 253.16 150.249 253.854 149.46 254.37L59.16 306.5L55.69 309.92L53.75 308.81L53.55 308.7L53.46 308.64C53.2412 308.436 53.0711 308.185 52.962 307.907C52.853 307.628 52.8079 307.328 52.83 307.03V300.42V299.17L52.75 271.74C52.8121 270.799 53.0952 269.885 53.5765 269.074C54.0578 268.262 54.7236 267.576 55.52 267.07Z" fill="#51754C"/>
<path opacity="0.2" d="M55.52 267.07L149.41 212.86C149.68 212.673 149.991 212.555 150.318 212.516C150.644 212.478 150.974 212.52 151.28 212.64H151.33L153.33 213.78L152.1 215L152.17 241.81V242.44V249.67C152.119 250.611 151.847 251.527 151.377 252.344C150.906 253.16 150.249 253.854 149.46 254.37L59.16 306.5L55.69 309.92L53.75 308.81L53.55 308.7L53.46 308.64C53.2412 308.436 53.0711 308.185 52.962 307.907C52.853 307.628 52.8079 307.328 52.83 307.03V300.42V299.17L52.75 271.74C52.8121 270.799 53.0952 269.885 53.5765 269.074C54.0578 268.262 54.7236 267.576 55.52 267.07Z" fill="black"/>
<path d="M57.53 268.21C56.7422 268.724 56.0864 269.417 55.6156 270.232C55.1449 271.046 54.8723 271.96 54.82 272.9L54.9 300.33L154.23 243V244.25L54.9 301.59V308.21C54.9 309.93 56.13 310.63 57.63 309.77L151.52 255.56C152.309 255.044 152.966 254.35 153.437 253.534C153.907 252.717 154.179 251.801 154.23 250.86L154.13 215.58C154.13 213.85 152.91 213.15 151.4 214.02L57.53 268.21Z" fill="#51754C"/>
<path d="M54.9 300.33V301.57L154.23 244.23V242.98L54.9 300.33Z" fill="#51754C"/>
<g opacity="0.2">
<path d="M54.9 300.33V301.57L154.23 244.23V242.98L54.9 300.33Z" fill="white"/>
</g>
<path d="M133.41 228.23C132.938 228.54 132.545 228.957 132.263 229.447C131.982 229.937 131.82 230.486 131.79 231.05V249.39C131.79 250.39 132.52 250.84 133.43 250.32L149.38 241.11C149.855 240.802 150.25 240.386 150.533 239.896C150.817 239.405 150.98 238.855 151.01 238.29L151 220C151 219 150.26 218.55 149.36 219.07L133.41 228.23Z" fill="white"/>
<g opacity="0.6">
<path d="M75.12 263.83L75.13 267.84L125.64 238.68L125.63 234.67L75.12 263.83Z" fill="white"/>
</g>
<g opacity="0.5">
<path d="M58.66 271.56L60.18 272.92L58.39 276.62L59.89 275.76L60.97 273.42L61.96 274.56L63.47 273.69L61.64 272.07L63.1 268.99L61.62 269.85L60.84 271.57L60.16 270.69L58.66 271.56Z" fill="white"/>
</g>
<path opacity="0.6" d="M151.09 249.18L151.1 252.24L123.39 268.23V265.17L151.09 249.18Z" fill="white"/>
<path opacity="0.6" d="M125.65 241.71L125.66 245.71L114.77 251.99V247.98L125.65 241.71Z" fill="white"/>
<path d="M55.52 216.42L149.41 162.21C149.678 162.019 149.991 161.9 150.318 161.863C150.645 161.826 150.976 161.874 151.28 162H151.33L153.33 163.15L152.1 164.36L152.17 191.18V191.81V199.04C152.118 199.98 151.845 200.894 151.374 201.708C150.904 202.523 150.248 203.216 149.46 203.73L59.16 255.87L55.69 259.29L53.75 258.17L53.55 258.06L53.46 258.01C53.2399 257.805 53.0689 257.553 52.9598 257.272C52.8507 256.992 52.8063 256.69 52.83 256.39V249.78V248.53L52.75 221.11C52.809 220.165 53.0907 219.248 53.5721 218.433C54.0535 217.618 54.721 216.928 55.52 216.42Z" fill="#51754C"/>
<path opacity="0.2" d="M55.52 216.42L149.41 162.21C149.678 162.019 149.991 161.9 150.318 161.863C150.645 161.826 150.976 161.874 151.28 162H151.33L153.33 163.15L152.1 164.36L152.17 191.18V191.81V199.04C152.118 199.98 151.845 200.894 151.374 201.708C150.904 202.523 150.248 203.216 149.46 203.73L59.16 255.87L55.69 259.29L53.75 258.17L53.55 258.06L53.46 258.01C53.2399 257.805 53.0689 257.553 52.9598 257.272C52.8507 256.992 52.8063 256.69 52.83 256.39V249.78V248.53L52.75 221.11C52.809 220.165 53.0907 219.248 53.5721 218.433C54.0535 217.618 54.721 216.928 55.52 216.42Z" fill="black"/>
<path d="M57.53 217.56C56.7422 218.075 56.0864 218.767 55.6156 219.582C55.1449 220.397 54.8723 221.311 54.82 222.25L54.9 249.68L154.23 192.33V193.58L54.9 250.93V257.54C54.9 259.27 56.13 259.96 57.63 259.1L151.52 204.89C152.308 204.376 152.964 203.683 153.434 202.868C153.905 202.054 154.178 201.14 154.23 200.2L154.13 164.91C154.13 163.18 152.91 162.48 151.4 163.35L57.53 217.56Z" fill="#51754C"/>
<path d="M54.9 249.68V250.93L154.23 193.58V192.33L54.9 249.68Z" fill="#51754C"/>
<g opacity="0.2">
<path d="M54.9 249.68V250.93L154.23 193.58V192.33L54.9 249.68Z" fill="white"/>
</g>
<g opacity="0.6">
<path d="M115.64 219.11L115.65 222.16L151.1 201.59L151.09 198.54L115.64 219.11Z" fill="white"/>
</g>
<path d="M133.41 177.58C132.938 177.89 132.545 178.307 132.263 178.797C131.982 179.287 131.82 179.836 131.79 180.4V198.74C131.79 199.74 132.52 200.19 133.43 199.67L149.38 190.46C149.856 190.153 150.252 189.737 150.535 189.247C150.819 188.756 150.981 188.206 151.01 187.64L150.96 169.31C150.96 168.31 150.22 167.85 149.32 168.37L133.41 177.58Z" fill="white"/>
<g opacity="0.6">
<path d="M75.12 213.18L75.13 217.19L125.64 188.03L125.63 184.02L75.12 213.18Z" fill="white"/>
</g>
<g opacity="0.6">
<path d="M84.03 222.22L84.04 226.23L125.68 202.11L125.67 198.1L84.03 222.22Z" fill="white"/>
</g>
<g opacity="0.6">
<path d="M75.14 220.22L75.15 224.23L125.66 195.07L125.65 191.06L75.14 220.22Z" fill="white"/>
</g>
<g opacity="0.5">
<path d="M58.66 220.91L60.18 222.27L58.39 225.97L59.89 225.11L60.97 222.77L61.96 223.91L63.47 223.04L61.64 221.43L63.1 218.35L61.62 219.2L60.84 220.92L60.16 220.05L58.66 220.91Z" fill="white"/>
</g>
</svg>
