<svg width="358" height="349" viewBox="0 0 358 349" fill="none" xmlns="http://www.w3.org/2000/svg">
<path d="M267.929 348.861C267.929 348.861 219.932 349 219.852 349C219.773 349 198.149 311.631 198.109 311.611L198.348 311.73C198.129 311.73 154.624 311.909 154.525 311.869C154.425 311.83 132.325 273.465 132.186 273.386L132.623 273.624H89.4752H89.1572L88.9982 273.346L67.3747 235.957L67.8914 236.255H24.7835H24.4258L24.2271 235.937L0.198756 194.349L-1.57906e-06 194.01L0.198756 193.672L24.1475 152.124L24.3662 151.746H24.7835H67.3548L66.6791 152.144L88.7597 113.74L88.9982 113.342H89.495H133.219L132.484 113.76L151.861 80.0716V80.9869L129.999 43.1798L129.721 42.7022L129.999 42.2246L153.889 0.497463L154.167 0L154.743 0L202.74 0L203.297 0L203.555 0.477568L225.099 37.9067L224.324 37.449H263.636L262.88 37.8868L284.484 0.577059L284.723 0.179087L285.2 0.179087L333.197 0.179087L333.654 0.179087L333.872 0.577059L357.801 42.2644L358 42.6226L357.801 42.9808L335.939 80.788V80.1114L357.801 117.919L357.98 118.237L357.801 118.555L335.939 156.363V155.766L357.801 193.573L357.96 193.851L357.801 194.13L333.753 235.718L333.614 235.957H333.316L289.592 235.837L289.93 235.658L270.353 269.525V269.247L292.076 307.173C292.235 307.313 267.948 348.721 267.948 348.96L267.929 348.861ZM267.929 348.861C267.929 348.861 291.977 306.736 291.778 307.313L269.737 269.386C269.876 269.386 289.015 235.559 289.135 235.559L289.254 235.379H289.473L333.197 235.26L332.759 235.499L356.728 193.911V194.468L334.866 156.661L334.707 156.363L334.866 156.064L356.728 118.257V118.894L334.866 81.0864L334.667 80.7482L334.866 80.4099L356.728 42.6027V43.3191L332.521 1.373L333.197 1.77097L285.2 1.77097L285.915 1.373L264.391 38.8419L264.133 39.2797H263.636H224.324H223.807L223.549 38.822L201.925 1.47249L202.74 1.95005L154.743 1.95005L155.598 1.45259L131.55 43.0604V42.1053L153.412 79.9124L153.67 80.3701L153.412 80.8278L133.974 114.476L133.716 114.894H133.219H89.495L90.2105 114.496L68.0504 152.781L67.8119 153.179H67.3747H24.8034L25.4394 152.801L1.41107 194.408V193.732L25.2605 235.36L24.704 235.041H67.8119H68.1498L68.3287 235.34L89.8726 272.769L89.3957 272.49H132.543H132.841L132.981 272.729L155.081 311.312C153.094 310.894 198.805 311.312 198.348 311.312H198.507V311.432C198.388 311.432 220.369 349.239 219.852 348.821L267.849 348.96L267.929 348.861Z" fill="#DBDBDB" fill-opacity="0.07"/>
<path d="M290.943 74.3011C301.636 73.8832 316.979 73.3659 327.472 73.1072L326.439 73.7041L335.263 57.7853L344.187 41.8665V43.6574C337.927 33.0316 331.964 22.4854 325.743 11.9392L327.472 12.9341C315.289 12.9341 303.126 12.9341 290.943 12.7351L292.493 11.8397L283.152 27.5595L273.712 43.2196V42.0257C278.7 51.1989 285.974 64.8891 290.943 74.3011ZM290.943 74.3011C284.385 63.8743 277.746 53.2883 271.307 42.6426L271.645 42.0257L280.469 26.0074L289.393 10.0886L289.89 9.21308C302.411 9.03399 314.932 9.0539 327.472 9.0141H328.625L329.182 10.009C335.402 20.794 341.683 31.6984 347.864 42.6824L347.347 43.5579L337.927 59.2379L328.486 74.8981L328.108 75.495C315.687 75.2363 303.206 74.7588 290.923 74.3011H290.943Z" fill="#DBDBDB" fill-opacity="0.07"/>
<path d="M225.675 111.69C236.348 111.272 251.711 110.755 262.185 110.516L261.171 111.093L269.995 95.1744L278.919 79.2556V81.0465C272.678 70.5401 266.617 59.8745 260.416 49.3482L262.125 50.3431C249.962 50.3431 237.779 50.3431 225.615 50.1441L227.166 49.2487L217.825 64.9685L208.384 80.6286V79.4347C213.373 88.6079 220.627 102.278 225.615 111.69H225.675ZM225.675 111.69C219.117 101.283 212.459 90.6973 206.019 80.0516L206.377 79.4347L215.201 63.5159L224.125 47.5971L224.642 46.6619C237.163 46.4828 249.684 46.5027 262.204 46.443H263.357L263.934 47.4379C270.154 58.3224 276.435 69.187 282.536 80.1312L282.019 81.0067L272.678 96.7066L263.218 112.327L262.86 112.944C250.439 112.685 237.958 112.208 225.675 111.73V111.69Z" fill="#DBDBDB" fill-opacity="0.07"/>
<path d="M225.675 187.444C236.348 187.026 251.711 186.509 262.185 186.25L261.171 186.847L269.995 170.928L278.919 155.009V156.8C272.678 146.314 266.617 135.768 260.475 125.221L262.185 126.216C250.021 126.216 237.838 126.216 225.675 126.017L227.225 125.122L217.884 140.842L208.444 156.502V155.308C213.432 164.481 220.687 178.171 225.675 187.583V187.444ZM225.675 187.444C219.117 177.017 212.459 166.431 206.019 155.785L206.377 155.169L215.201 139.25L224.125 123.331L224.642 122.276C237.163 122.097 249.684 122.117 262.204 122.077H263.357L263.934 123.092C270.154 133.977 276.435 144.821 282.536 155.766L282.019 156.641L272.678 172.361L263.238 188.021L262.88 188.618C250.459 188.359 237.977 187.882 225.695 187.424L225.675 187.444Z" fill="#DBDBDB" fill-opacity="0.07"/>
<path d="M225.675 263.178C236.348 262.76 251.711 262.242 262.185 261.984L261.171 262.581L269.995 246.662L278.919 230.743V232.514C272.678 222.047 266.617 211.481 260.475 200.955L262.185 201.95C250.021 201.95 237.838 201.95 225.675 201.751L227.225 200.856L217.884 216.575L208.444 232.216V231.022C213.432 240.195 220.687 253.885 225.675 263.297V263.178ZM225.675 263.178C219.116 252.751 212.459 242.165 206.019 231.539L206.377 230.902L215.201 214.983L224.125 199.065L224.622 198.189C237.143 198.01 249.664 198.03 262.185 197.97H263.337L263.914 198.965C270.134 209.85 276.415 220.714 282.516 231.658L281.999 232.514L272.658 248.234L263.218 263.894L262.86 264.511C250.439 264.232 237.958 263.775 225.675 263.297V263.178Z" fill="#DBDBDB" fill-opacity="0.07"/>
<path d="M225.675 338.912C236.348 338.494 251.711 337.976 262.185 337.718L261.171 338.315L269.995 322.396L278.919 306.477V308.268C272.678 297.781 266.617 287.215 260.475 276.689L262.185 277.684C250.021 277.684 237.838 277.684 225.675 277.485L227.225 276.589L217.884 292.309L208.444 307.969V306.775C213.432 315.949 220.687 329.619 225.675 339.031V338.912ZM225.675 338.912C219.116 328.505 212.459 317.899 206.019 307.273L206.377 306.656L215.201 290.737L224.125 274.818L224.622 273.943C237.143 273.764 249.664 273.784 262.185 273.724H263.337L263.914 274.719C270.134 285.603 276.415 296.468 282.516 307.412L281.999 308.288L272.658 323.988L263.218 339.648L262.86 340.265C250.439 339.986 237.958 339.528 225.675 339.051V338.912Z" fill="#DBDBDB" fill-opacity="0.07"/>
<path d="M290.944 150.134C301.636 149.716 316.979 149.199 327.473 148.94L326.439 149.537L335.264 133.519L344.187 117.6V119.391C337.927 108.785 331.965 98.219 325.744 87.6927L327.473 88.6876C315.29 88.6876 303.127 88.6876 290.944 88.4886L292.494 87.5932L283.153 103.313L273.712 118.953V117.759C278.701 126.933 285.975 140.623 290.944 150.035V150.134ZM290.944 150.134C284.385 139.707 277.747 129.121 271.307 118.496L271.645 117.859L280.47 101.94L289.393 86.0212L289.89 85.1258C302.411 84.9666 314.932 84.9666 327.473 84.9268H328.626L329.182 85.9217C335.403 96.8062 341.683 107.651 347.785 118.615L347.268 119.471L337.947 135.19L328.506 150.851L328.129 151.448C315.707 151.189 303.226 150.731 290.944 150.254V150.134Z" fill="#DBDBDB" fill-opacity="0.07"/>
<path d="M290.944 225.749C301.636 225.331 316.979 224.813 327.473 224.555L326.439 225.152L335.264 209.233L344.187 193.314V195.085C337.927 184.519 331.965 174.013 325.744 163.427L327.473 164.421C315.29 164.421 303.127 164.421 290.944 164.222L292.494 163.327L283.153 179.047L273.712 194.707V193.513C278.701 202.686 285.975 216.357 290.944 225.769V225.749ZM290.944 225.749C284.385 215.322 277.747 204.736 271.307 194.11L271.645 193.493L280.47 177.475L289.393 161.556L289.89 160.681C302.411 160.501 314.932 160.521 327.473 160.462H328.626L329.182 161.457C335.403 172.341 341.683 183.206 347.785 194.15L347.268 195.005L337.947 210.725L328.506 226.385L328.129 227.002C315.707 226.724 303.226 226.266 290.944 225.788V225.749Z" fill="#DBDBDB" fill-opacity="0.07"/>
<path d="M160.487 74.3011C171.179 73.8832 186.523 73.3659 196.996 73.1072L195.983 73.7041L204.807 57.7853L213.731 41.8665V43.6574C207.49 33.1709 201.428 22.6247 195.287 12.0785L197.016 13.0734C184.833 13.0734 172.65 13.0734 160.487 12.8744L162.037 11.979L152.696 27.6988L143.156 43.2196V42.0257C148.145 51.1989 155.399 64.8891 160.388 74.3011H160.487ZM160.487 74.3011C153.928 63.8743 147.27 53.2883 140.831 42.6426L141.189 42.0257L150.013 26.0074L158.937 10.0886L159.434 9.21308C171.955 9.03399 184.476 9.0539 197.016 9.0141H198.149L198.726 10.009C204.946 20.9134 211.227 31.7581 217.328 42.7023L216.811 43.5778L207.47 59.2976L198.03 74.9578L197.672 75.5547C185.251 75.296 172.769 74.8185 160.487 74.3608V74.3011Z" fill="#DBDBDB" fill-opacity="0.07"/>
<path d="M95.1991 187.444C105.892 187.026 121.255 186.509 131.729 186.25L130.695 186.847L139.519 170.928L148.443 155.009V156.8C142.222 146.314 136.141 135.768 130.019 125.221L131.729 126.216C119.565 126.216 107.382 126.216 95.1991 126.017L96.7493 125.122L87.4282 140.842L77.9878 156.502V155.308C82.9763 164.481 90.2305 178.171 95.1991 187.583V187.444ZM95.1991 187.444C88.6405 177.017 82.0025 166.431 75.5631 155.785L75.901 155.169L84.7253 139.25L93.6489 123.331L94.1458 122.436C106.687 122.256 119.208 122.276 131.729 122.237H132.881L133.458 123.251C139.678 134.136 145.939 144.981 152.06 155.925L151.543 156.8L142.202 172.52L132.762 188.18L132.404 188.777C119.983 188.519 107.501 188.041 95.1991 187.583V187.444Z" fill="#DBDBDB" fill-opacity="0.07"/>
<path d="M95.1991 263.178C105.892 262.76 121.255 262.242 131.729 261.984L130.695 262.581L139.519 246.662L148.443 230.743V232.514C142.222 222.047 136.141 211.481 130.019 200.955L131.729 201.95C119.565 201.95 107.382 201.95 95.1991 201.751L96.7493 200.856L87.4282 216.575L77.9878 232.216V231.022C82.9763 240.195 90.2305 253.885 95.1991 263.297V263.178ZM95.1991 263.178C88.6405 252.751 82.0025 242.165 75.5631 231.539L75.901 230.902L84.7253 214.983L93.6489 199.065L94.1458 198.189C106.687 198.01 119.208 198.03 131.729 197.97H132.881L133.458 198.965C139.678 209.85 145.939 220.714 152.06 231.658L151.543 232.514L142.202 248.234L132.762 263.894L132.404 264.511C119.983 264.232 107.501 263.775 95.1991 263.297V263.178Z" fill="#DBDBDB" fill-opacity="0.07"/>
<path d="M160.487 150.134C171.179 149.716 186.523 149.199 196.996 148.94L195.983 149.537L204.767 133.419L213.691 117.501V119.292C207.45 108.825 201.389 98.2588 195.248 87.7325L196.977 88.7274C184.794 88.7274 172.61 88.7274 160.447 88.5284L161.997 87.633L152.656 103.353L143.156 118.953V117.759C148.145 126.933 155.399 140.623 160.388 150.035L160.487 150.134ZM160.487 150.134C153.928 139.707 147.27 129.121 140.831 118.496L141.189 117.859L150.013 101.94L158.937 86.0212L159.434 85.1258C171.955 84.9666 184.476 84.9666 197.016 84.9268H198.149L198.726 85.9217C204.946 96.8062 211.227 107.651 217.328 118.615L216.811 119.471L207.47 135.19L198.03 150.851L197.672 151.448C185.251 151.189 172.769 150.731 160.487 150.254V150.134Z" fill="#DBDBDB" fill-opacity="0.07"/>
<path d="M160.487 225.749C171.179 225.331 186.523 224.813 196.996 224.555L195.983 225.152L204.807 209.233L213.731 193.314V195.085C207.49 184.618 201.428 174.052 195.287 163.526L197.016 164.521C184.833 164.521 172.65 164.521 160.487 164.322L162.037 163.427L152.696 179.146L143.156 194.707V193.513C148.145 202.686 155.399 216.357 160.388 225.769L160.487 225.749ZM160.487 225.749C153.928 215.322 147.27 204.736 140.831 194.11L141.189 193.493L150.013 177.475L158.937 161.556L159.434 160.681C171.955 160.501 184.476 160.521 197.016 160.462H198.149L198.726 161.457C204.946 172.341 211.227 183.206 217.328 194.15L216.811 195.005L207.47 210.725L198.03 226.385L197.672 227.002C185.251 226.724 172.769 226.266 160.487 225.788V225.749Z" fill="#DBDBDB" fill-opacity="0.07"/>
<path d="M160.487 301.502C171.179 301.084 186.523 300.587 196.996 300.328L195.983 300.925L204.767 284.907L213.691 268.988V270.779C207.45 260.292 201.389 249.726 195.248 239.2L196.977 240.195C184.794 240.195 172.61 240.195 160.447 239.996L161.997 239.1L152.656 254.82L143.216 270.48V269.286C148.204 278.46 155.459 292.13 160.447 301.542L160.487 301.502ZM160.487 301.502C153.928 291.095 147.27 280.509 140.831 269.863L141.189 269.247L150.013 253.228L158.937 237.31L159.434 236.434C171.955 236.255 184.476 236.275 197.016 236.215H198.149L198.726 237.21C204.946 248.114 211.227 258.959 217.328 269.903L216.811 270.779L207.47 286.499L198.03 302.139L197.672 302.756C185.251 302.497 172.769 302.019 160.487 301.542V301.502Z" fill="#DBDBDB" fill-opacity="0.07"/>
<path d="M30.5275 225.749C41.22 225.331 56.5632 224.813 67.0569 224.555L66.0234 225.152L74.8477 209.233L83.7714 193.314V195.085C77.5308 184.618 71.469 174.052 65.3278 163.526L67.0569 164.521C54.8738 164.521 42.6907 164.521 30.5275 164.322L32.0777 163.427L22.7367 179.146L13.2963 194.806V193.613C18.2848 202.786 25.5589 216.456 30.5275 225.868V225.749ZM30.5275 225.749C23.9689 215.322 17.3109 204.736 10.8716 194.11L11.2293 193.493L20.0536 177.475L28.9773 161.556L29.4742 160.681C41.9951 160.501 54.5161 160.521 67.0569 160.462H68.1897L68.7661 161.457C74.9868 172.341 81.2672 183.206 87.3687 194.15L86.8519 195.005L77.5109 210.725L68.0705 226.385L67.7127 227.002C55.2912 226.724 42.81 226.266 30.5275 225.788V225.749Z" fill="#DBDBDB" fill-opacity="0.07"/>
</svg>
