<svg width="33" height="33" viewBox="0 0 33 33" fill="none" xmlns="http://www.w3.org/2000/svg">
<mask id="mask0_0_3" style="mask-type:luminance" maskUnits="userSpaceOnUse" x="2" y="2" width="29" height="29">
<path d="M30.25 16.5C30.25 8.90608 24.0939 2.75 16.5 2.75C8.90608 2.75 2.75 8.90608 2.75 16.5C2.75 24.0939 8.90608 30.25 16.5 30.25C24.0939 30.25 30.25 24.0939 30.25 16.5Z" fill="white"/>
</mask>
<g mask="url(#mask0_0_3)">
<path d="M30.25 16.5C30.25 8.90608 24.0939 2.75 16.5 2.75C8.90608 2.75 2.75 8.90608 2.75 16.5C2.75 24.0939 8.90608 30.25 16.5 30.25C24.0939 30.25 30.25 24.0939 30.25 16.5Z" fill="#FFC100"/>
<line y1="-1" x2="15.5221" y2="-1" transform="matrix(0.684078 -0.729409 0.711482 0.702704 11.7692 22.322)" stroke="#1F1B13" stroke-width="2"/>
<line y1="-1" x2="15.2644" y2="-1" transform="matrix(0.685006 0.728538 -0.709728 0.704476 10.3125 11.3178)" stroke="#1F1B13" stroke-width="2"/>
</g>
<path d="M29.9062 16.5C29.9062 9.09593 23.9041 3.09375 16.5 3.09375C9.09593 3.09375 3.09375 9.09593 3.09375 16.5C3.09375 23.9041 9.09593 29.9062 16.5 29.9062C23.9041 29.9062 29.9062 23.9041 29.9062 16.5Z" stroke="#1F1B13"/>
</svg>
