<svg width="369" height="481" viewBox="0 0 369 481" fill="none" xmlns="http://www.w3.org/2000/svg">
<path d="M184.512 430.967V481L193.282 476.832L202.077 422.632L184.512 430.967Z" fill="#37474F"/>
<path d="M184.512 430.967V481L175.718 476.832L166.923 422.632L184.512 430.967Z" fill="#263238"/>
<path opacity="0.3" d="M200.607 431.672L184.512 439.303L168.393 431.672L166.923 422.632L184.512 430.967L202.077 422.632L200.607 431.672Z" fill="black"/>
<path d="M35.1534 360.096V410.129L43.9478 405.961L52.7178 351.76L35.1534 360.096Z" fill="#37474F"/>
<path d="M35.1533 360.096V410.129L26.3588 405.961L17.5889 351.76L35.1533 360.096Z" fill="#263238"/>
<path opacity="0.3" d="M51.2479 360.8L35.1533 368.431L19.0587 360.8L17.5889 351.76L35.1533 360.096L52.7177 351.76L51.2479 360.8Z" fill="black"/>
<path d="M333.871 360.096V410.129L325.077 405.961L316.282 351.76L333.871 360.096Z" fill="#37474F"/>
<path d="M333.871 360.096V410.129L342.641 405.961L351.436 351.76L333.871 360.096Z" fill="#263238"/>
<path opacity="0.3" d="M317.752 360.8L333.847 368.431L349.966 360.8L351.436 351.76L333.871 360.096L316.282 351.76L317.752 360.8Z" fill="black"/>
<path d="M184.512 405.961L369 318.418L184.512 230.856L0 318.418L184.512 405.961Z" fill="#455A64"/>
<path d="M184.512 430.967V405.961L369 318.418V343.425L184.512 430.967Z" fill="#37474F"/>
<path d="M184.512 405.961L0 318.418V343.425L184.512 430.967V405.961Z" fill="#263238"/>
<path d="M276.768 370.525C279.218 369.377 281.153 370.304 281.153 372.538C281.066 373.791 280.624 375.009 279.863 376.096C279.102 377.183 278.042 378.109 276.768 378.8C274.319 379.948 272.359 379.022 272.359 376.787C272.437 375.53 272.878 374.307 273.645 373.219C274.411 372.13 275.482 371.207 276.768 370.525Z" fill="black"/>
<path d="M184.512 397.625V305.895L351.436 226.688V318.418L184.512 397.625Z" fill="#37474F"/>
<path d="M184.512 397.625V305.895L17.5645 226.688V318.418L184.512 397.625Z" fill="#263238"/>
<path d="M184.512 305.895L351.436 226.688L184.512 147.481L17.5645 226.688L184.512 305.895Z" fill="black"/>
<g opacity="0.2">
<path d="M66.4117 307.848C71.8657 311.169 78.4622 312.981 85.2499 313.022C91.3007 313.022 96.984 311.613 102.888 311.009C115.64 310.188 128.427 312.205 139.903 316.848C147.866 319.923 155.391 323.711 162.342 328.143C169.836 333.082 176.969 338.38 183.704 344.008C184.12 344.331 184.022 343.203 183.704 342.901C177.834 337.19 171.267 331.988 164.106 327.378C158.245 323.5 151.983 320.05 145.39 317.069C133.725 311.479 120.506 308.449 107.003 308.271C94.7548 308.432 83.5107 313.546 70.0373 307.405C56.1719 301.103 43.5558 286.607 30.6214 275.473C26.592 271.954 22.2613 268.677 17.6624 265.667V267.963C21.431 270.36 24.9841 272.977 28.2942 275.795C40.9837 286.506 53.0362 300.318 66.4117 307.848Z" fill="black"/>
<path d="M37.603 274.526C44.9521 280.949 52.0073 287.996 59.6504 292.647C65.7968 296.574 73.0083 299.22 80.6689 300.358C88.4996 301.471 96.5538 300.73 103.892 298.224C104.456 298.043 103.598 296.211 103.035 296.211C90.2473 299.412 76.088 300.096 61.0222 291.499C53.3546 287.11 46.2015 280.204 38.9748 273.761C32.474 267.871 25.2956 262.51 17.5399 257.755V259.688C24.7648 264.12 31.4805 269.087 37.603 274.526Z" fill="black"/>
<path d="M56.5393 334.888C68.3469 339.66 80.1545 344.089 91.9866 349.425C103.819 354.76 115.847 360.76 127.777 367.304C137.919 372.901 148.052 378.84 158.178 385.122L166.531 389.149C144.628 374.064 121.066 360.685 96.1511 349.183C84.4905 343.767 72.8788 339.116 61.2427 334.586C48.8496 330.03 37.0476 324.459 26.0159 317.955C23.1742 316.224 20.3816 314.351 17.5644 312.418V314.593L21.1654 317.009C32.1016 324.042 43.9679 330.04 56.5393 334.888Z" fill="black"/>
<path d="M75.3531 279.942C72.5045 277.919 69.3611 276.195 65.9952 274.808C59.6803 272.307 52.7923 270.935 45.7851 270.781C45.3686 270.781 45.6381 272.03 46.1036 272.09C52.5463 273.197 58.8665 273.801 65.5297 276.419C68.7083 277.665 71.6937 279.22 74.4222 281.05C76.1571 282.198 77.7941 283.442 79.3216 284.774C80.816 286.083 82.2368 287.613 83.7311 288.922C84.2211 289.345 84.1721 288.318 83.8781 287.935C81.5945 284.901 78.7137 282.2 75.3531 279.942Z" fill="black"/>
<path d="M249.16 355.827C249.552 355.706 249.748 354.539 249.356 354.659C243.452 356.673 237.573 358.424 231.645 360.7C226.248 362.804 221.084 365.29 216.211 368.129C211.094 371.183 206.263 374.548 201.758 378.196C196.981 381.981 192.253 385.968 187.403 389.431C186.447 390.135 185.468 390.78 184.512 391.444C183.532 390.8 182.552 390.156 181.597 389.431C176.698 385.968 172.019 381.981 167.242 378.196C162.737 374.548 157.905 371.183 152.788 368.129C147.916 365.29 142.752 362.804 137.355 360.7C131.427 358.384 125.548 356.552 119.668 354.659C119.276 354.539 119.448 355.706 119.864 355.827C131.083 359.298 141.77 363.832 151.711 369.337C161.926 375.176 171.48 384.075 181.45 391.283C182.479 392.048 183.532 392.753 184.586 393.457C185.615 392.753 186.668 392.048 187.697 391.283C197.692 384.075 207.294 375.176 217.436 369.337C227.336 363.836 237.983 359.302 249.16 355.827Z" fill="black"/>
<path d="M324.758 239.352L305.161 248.594C313.367 245.252 321.549 242.131 329.658 239.312C337.007 236.815 344.086 234.5 351.289 232.144V230.856C342.494 233.453 333.675 236.292 324.856 239.272L324.758 239.352Z" fill="black"/>
<path d="M63.7415 248.594L44.1438 239.352H43.9234C35.0799 236.372 26.261 233.534 17.4665 230.936V232.225C24.8156 234.58 31.8953 236.896 39.0974 239.393C47.402 242.131 55.535 245.251 63.7415 248.594Z" fill="black"/>
<path d="M53.5017 264.842C70.6497 269.896 88.0181 274.808 105.436 284.191C110.729 287.027 115.764 290.177 120.501 293.613C125.254 297.016 129.761 301.043 134.367 304.989C134.612 305.211 134.661 304.627 134.367 304.405C127.346 297.061 119.099 290.567 109.87 285.117C101.894 280.276 93.3514 276.101 84.368 272.654C66.4361 265.708 48.7737 261.882 30.8663 255.54C26.4079 253.943 21.9249 252.151 17.4174 250.164V252.319C20.1366 253.527 22.8558 254.654 25.5505 255.701C35.0064 259.325 44.2663 262.124 53.5017 264.842Z" fill="black"/>
<path d="M111.829 272.03C123.539 278.976 135.151 286.989 146.86 294.177C159.378 301.808 172.092 308.412 184.512 311.271C196.908 308.412 209.646 301.808 222.14 294.177C233.849 287.029 245.461 279.016 257.195 272.03C259.228 270.822 261.286 269.654 263.344 268.486L245.216 277.103C225.055 289.888 204.673 304.325 184.586 308.774C164.425 304.325 144.043 289.969 123.882 277.103L105.754 268.486C107.714 269.755 109.772 270.822 111.829 272.03Z" fill="black"/>
<path d="M284.485 272.654C275.509 276.102 266.975 280.277 259.008 285.117C249.785 290.573 241.539 297.066 234.511 304.405C234.315 304.627 234.388 305.211 234.633 304.989C239.239 300.962 243.746 296.935 248.474 293.613C253.216 290.181 258.251 287.032 263.54 284.191C280.982 274.808 298.277 269.896 315.498 264.842C324.734 262.124 333.969 259.325 343.278 255.701C345.973 254.654 348.692 253.527 351.411 252.319V250.164C346.92 252.164 342.437 253.956 337.962 255.54C320.104 261.882 302.441 265.728 284.485 272.654Z" fill="black"/>
<path d="M285.342 288.902C286.837 287.593 288.233 286.063 289.727 284.754C291.255 283.422 292.892 282.178 294.627 281.03C297.355 279.2 300.341 277.645 303.519 276.399C310.182 273.781 316.503 273.177 322.97 272.07C323.411 272.07 323.705 270.741 323.264 270.761C316.265 270.917 309.385 272.289 303.078 274.788C299.701 276.169 296.549 277.894 293.696 279.922C290.346 282.202 287.482 284.923 285.22 287.976C285.024 288.298 284.828 289.325 285.342 288.902Z" fill="black"/>
<path d="M330.025 273.902C322.798 280.345 315.645 287.251 307.978 291.64C292.912 300.237 278.753 299.553 265.941 296.351C265.402 296.211 264.52 298.103 265.083 298.365C272.43 300.873 280.492 301.613 288.331 300.499C295.99 299.356 303.201 296.711 309.349 292.788C316.992 288.076 324.048 281.03 331.397 274.667C337.522 269.231 344.228 264.259 351.435 259.808V258.037C343.69 262.743 336.52 268.056 330.025 273.902Z" fill="black"/>
<path d="M307.757 334.526C296.121 339.116 284.509 343.707 272.849 349.123C247.941 360.634 224.38 374.013 202.469 389.088L210.847 385.062C220.939 378.793 231.073 372.854 241.247 367.243C253.153 360.706 265.075 354.747 277.013 349.364C288.87 344.029 300.653 339.599 312.485 334.827C325.052 329.96 336.91 323.942 347.834 316.888L351.435 314.472V312.298C348.643 314.311 345.826 316.103 343.009 317.834C331.972 324.359 320.161 329.951 307.757 334.526Z" fill="black"/>
<path d="M295.754 257.674C282.536 262.305 270.022 268.19 258.469 275.211C245.324 283.193 232.729 291.77 220.743 300.902C214.44 305.6 208.16 310.398 201.905 315.298C196.124 319.828 190.245 324.217 184.512 329.049C178.78 324.217 172.876 319.828 167.095 315.298C160.848 310.405 154.552 305.593 148.281 300.902C136.287 291.77 123.684 283.193 110.531 275.211C98.984 268.182 86.4695 262.296 73.2463 257.674C60.9978 253.506 48.7492 250.788 36.6721 247.728C30.3274 246.137 23.9581 244.386 17.5644 242.352V244.748C34.7124 250.245 51.8603 253.245 68.8613 258.56C82.1737 262.777 94.8098 268.315 106.489 275.05C119.465 282.617 131.875 290.82 143.651 299.613C150.584 304.687 157.492 309.942 164.4 315.277C171.308 320.613 177.751 325.828 184.512 330.68C191.249 325.828 197.937 320.432 204.624 315.277C211.312 310.123 218.416 304.687 225.349 299.613C237.129 290.815 249.547 282.612 262.536 275.05C274.206 268.315 286.834 262.778 300.139 258.56C317.287 253.245 334.263 250.245 351.435 244.748V242.352C345.042 244.366 338.673 246.137 332.352 247.728C320.177 250.829 308.051 253.647 295.754 257.674Z" fill="black"/>
<path d="M324.219 316.485C298.277 333.257 272.604 336.72 246.98 345.035C234.782 348.855 223.251 353.979 212.684 360.277C201.887 366.852 192.407 374.773 184.586 383.753C176.645 374.785 167.049 366.891 156.145 360.357C145.584 354.052 134.051 348.927 121.849 345.116C96.2491 336.801 70.5517 333.338 44.6337 316.566C37.505 311.975 30.5234 306.499 23.4437 301.466C21.484 300.096 19.4997 298.768 17.4909 297.439V299.049C19.124 300.056 20.7572 301.123 22.3903 302.251C28.6371 306.6 34.8104 311.492 41.0572 315.841C52.4277 323.644 65.2365 329.91 79.0032 334.405C103.133 342.458 126.993 345.962 151.417 359.371C158.121 363.045 164.395 367.224 170.157 371.854C175.311 376.099 180.1 380.633 184.488 385.424C188.862 380.624 193.651 376.088 198.819 371.854C204.575 367.219 210.849 363.039 217.559 359.371C242.056 345.962 265.843 342.498 289.948 334.405C303.718 329.916 316.528 323.649 327.894 315.841C334.165 311.492 340.314 306.6 346.585 302.251C348.177 301.123 349.794 300.056 351.485 299.049V297.439C349.476 298.687 347.492 300.016 345.532 301.466C338.403 306.338 331.421 311.895 324.219 316.485Z" fill="black"/>
<path d="M338.501 275.473C325.567 286.607 312.926 301.103 299.085 307.405C285.244 313.707 274.27 308.432 262.095 308.271C248.617 308.454 235.422 311.484 223.781 317.069C217.148 320.067 210.852 323.544 204.967 327.458C197.807 332.069 191.24 337.271 185.37 342.982C185.076 343.284 184.953 344.411 185.37 344.089C192.07 338.435 199.17 333.11 206.633 328.143C213.584 323.711 221.11 319.923 229.072 316.848C240.549 312.205 253.335 310.188 266.088 311.009C272.016 311.532 277.675 312.881 283.726 313.022C290.521 312.98 297.124 311.168 302.588 307.848C315.939 300.318 327.992 286.506 340.681 275.855C344.026 273.019 347.611 270.381 351.411 267.963V265.728C346.826 268.714 342.511 271.971 338.501 275.473Z" fill="black"/>
<path d="M328.408 299.13C318.386 308.668 306.033 316.365 292.153 321.72C280.238 325.917 267.847 329.134 255.162 331.324C242.928 333.498 231.018 336.759 219.641 341.049C205.985 346.383 193.995 354.214 184.586 363.941C175.15 354.211 163.135 346.381 149.457 341.049C138.077 336.765 126.168 333.504 113.936 331.324C101.251 329.134 88.86 325.917 76.9454 321.72C63.0573 316.366 50.6959 308.669 40.6652 299.13C34.5409 293.492 28.5636 287.372 22.2924 282.258C20.7736 281.009 19.2058 279.821 17.6379 278.734V281.07C24.5891 286.334 31.0652 292.006 37.0151 298.043C42.2636 303.11 47.998 307.823 54.1631 312.136C59.7466 315.933 65.7976 319.24 72.2175 322.002C96.7146 332.613 120.183 332.995 144.533 341.391C151.475 343.755 158.1 346.704 164.302 350.19C171.65 354.543 178.438 359.502 184.561 364.988H184.586C190.709 359.502 197.497 354.543 204.845 350.19C211.05 346.708 217.675 343.759 224.614 341.391C248.964 332.995 272.383 332.613 296.954 322.002C303.366 319.239 309.409 315.933 314.984 312.136C321.155 307.828 326.89 303.115 332.132 298.043C338.082 292.006 344.558 286.334 351.509 281.07V278.734C349.941 279.821 348.373 281.009 346.855 282.258C340.51 287.372 334.533 293.492 328.408 299.13Z" fill="black"/>
</g>
<path d="M197.986 326.834C199.676 326.029 201.048 326.673 201.048 328.284C200.987 329.155 200.678 330.003 200.146 330.758C199.615 331.513 198.874 332.155 197.986 332.633C196.295 333.418 194.924 332.774 194.924 331.183C194.98 330.311 195.288 329.463 195.82 328.707C196.352 327.951 197.094 327.309 197.986 326.834Z" fill="#263238"/>
<path d="M197.986 357.982C199.676 357.176 201.048 357.841 201.048 359.431C200.987 360.302 200.678 361.15 200.146 361.905C199.615 362.66 198.874 363.303 197.986 363.78C196.295 364.585 194.924 363.921 194.924 362.33C194.98 361.458 195.288 360.61 195.82 359.854C196.352 359.098 197.094 358.457 197.986 357.982Z" fill="#263238"/>
<path d="M337.938 260.533C339.628 259.728 341 260.392 341 261.983C340.943 262.855 340.636 263.703 340.104 264.459C339.571 265.215 338.829 265.857 337.938 266.332C336.272 267.137 334.9 266.473 334.9 264.882C334.958 264.013 335.263 263.167 335.791 262.411C336.318 261.656 337.053 261.013 337.938 260.533Z" fill="#263238"/>
<path d="M337.938 291.68C339.628 290.895 341 291.539 341 293.13C340.943 294.002 340.636 294.851 340.104 295.606C339.571 296.362 338.829 297.004 337.938 297.479C336.272 298.284 334.9 297.64 334.9 296.029C334.96 295.16 335.266 294.315 335.793 293.56C336.32 292.805 337.055 292.161 337.938 291.68Z" fill="#263238"/>
<path d="M171.014 326.834C169.324 326.029 167.977 326.673 167.977 328.284C168.033 329.154 168.337 330.001 168.865 330.756C169.392 331.511 170.129 332.154 171.014 332.633C172.705 333.418 174.077 332.774 174.077 331.183C174.02 330.311 173.712 329.463 173.18 328.707C172.648 327.951 171.906 327.309 171.014 326.834Z" fill="black"/>
<path d="M171.014 357.982C169.324 357.176 167.977 357.841 167.977 359.431C168.033 360.301 168.337 361.148 168.865 361.903C169.392 362.659 170.129 363.302 171.014 363.78C172.705 364.585 174.077 363.921 174.077 362.33C174.02 361.458 173.712 360.61 173.18 359.854C172.648 359.098 171.906 358.457 171.014 357.982Z" fill="black"/>
<path d="M31.0623 260.533C29.372 259.728 28.0002 260.392 28.0002 261.983C28.0572 262.855 28.3643 263.703 28.8965 264.459C29.4287 265.215 30.1708 265.857 31.0623 266.332C32.7526 267.137 34.1 266.473 34.1 264.882C34.0477 264.012 33.7451 263.164 33.2171 262.408C32.6891 261.652 31.9507 261.009 31.0623 260.533Z" fill="black"/>
<path d="M33.2121 297.655C34.4072 297.088 34.4108 295.254 33.2203 293.559C32.0297 291.864 30.0957 290.95 28.9006 291.517C27.7055 292.084 27.7018 293.918 28.8924 295.613C30.0829 297.308 32.017 298.222 33.2121 297.655Z" fill="black"/>
<path d="M295.533 276.137L241.419 301.828L244.873 313.022L292.104 290.613L295.533 276.137Z" fill="#263238"/>
<path d="M290.242 278.654L241.419 301.828L243.795 309.499L287.89 288.58L290.242 278.654Z" fill="black"/>
<path d="M184.512 298.868V207.138L351.436 127.931V219.641L184.512 298.868Z" fill="#37474F"/>
<path d="M184.512 298.868V207.138L17.5645 127.931V219.641L184.512 298.868Z" fill="#263238"/>
<path d="M184.512 207.138L351.436 127.931L184.512 48.7242L17.5645 127.931L184.512 207.138Z" fill="black"/>
<g opacity="0.2">
<path d="M66.4116 209.091C71.8712 212.404 78.4641 214.215 85.2499 214.265C91.3007 214.265 96.984 212.856 102.888 212.252C115.64 211.431 128.427 213.448 139.903 218.091C147.86 221.166 155.385 224.947 162.342 229.366C169.824 234.316 176.956 239.613 183.704 245.231C184.12 245.574 184.022 244.446 183.704 244.144C177.834 238.433 171.267 233.231 164.106 228.621C158.212 224.712 151.917 221.229 145.292 218.212C133.621 212.636 120.404 209.613 106.905 209.433C94.6568 209.594 83.4126 214.708 69.9392 208.568C56.0738 202.266 43.4578 187.769 30.5233 176.635C26.4879 173.116 22.1577 169.832 17.5644 166.81V169.125C21.3744 171.577 24.9605 174.256 28.2941 177.138C40.9836 187.749 53.0362 201.561 66.4116 209.091Z" fill="black"/>
<path d="M37.603 175.769C44.9521 182.192 52.0073 189.239 59.6504 193.89C65.7968 197.817 73.0083 200.462 80.6689 201.601C88.4996 202.714 96.5538 201.973 103.892 199.467C104.456 199.286 103.598 197.454 103.035 197.454C90.2473 200.655 76.088 201.339 61.0222 192.742C53.3546 188.353 46.2015 181.447 38.9748 175.004C32.474 169.114 25.2956 163.753 17.5399 158.998V160.77C24.7733 165.253 31.4894 170.274 37.603 175.769Z" fill="black"/>
<path d="M56.5393 236.131C68.3469 240.903 80.1545 245.332 91.9866 250.668C103.819 256.003 115.847 262.003 127.777 268.546C137.919 274.144 148.052 280.083 158.178 286.365L166.531 290.392C144.628 275.307 121.066 261.928 96.1511 250.426C84.4905 245.01 72.8788 240.359 61.2427 235.829C48.8593 231.258 37.059 225.687 26.0159 219.198C23.1742 217.467 20.3816 215.594 17.5644 213.661V215.816C18.7648 216.641 20.0141 217.467 21.1654 218.252C32.1016 225.285 43.9679 231.283 56.5393 236.131Z" fill="black"/>
<path d="M75.3531 181.165C72.5108 179.135 69.3663 177.41 65.9952 176.031C59.6803 173.53 52.7923 172.158 45.7851 172.004C45.3686 172.004 45.6381 173.253 46.1036 173.313C52.5463 174.42 58.8665 175.024 65.5297 177.622C68.7095 178.874 71.695 180.436 74.4222 182.273C76.163 183.415 77.8005 184.66 79.3216 185.997C80.816 187.306 82.2368 188.836 83.7311 190.125C84.2211 190.568 84.1721 189.541 83.8781 189.138C81.5877 186.114 78.7075 183.421 75.3531 181.165Z" fill="black"/>
<path d="M249.16 257.07C249.552 256.929 249.748 255.782 249.356 255.903C243.452 257.916 237.573 259.668 231.645 261.943C226.243 264.032 221.079 266.512 216.211 269.352C211.097 272.445 206.266 275.844 201.758 279.52C196.981 283.305 192.253 287.271 187.403 290.754C186.447 291.459 185.468 292.103 184.512 292.768C183.532 292.123 182.552 291.479 181.597 290.754C176.698 287.271 172.019 283.305 167.242 279.52C162.734 275.844 157.903 272.445 152.788 269.352C147.921 266.512 142.756 264.032 137.355 261.943C131.427 259.627 125.548 257.795 119.668 255.903C119.276 255.782 119.448 256.929 119.864 257.07C131.083 260.541 141.77 265.075 151.711 270.58C161.926 276.419 171.48 285.298 181.45 292.526C182.479 293.291 183.532 293.996 184.586 294.681C185.615 293.996 186.668 293.291 187.697 292.526C197.692 285.298 207.294 276.419 217.436 270.58C227.336 265.079 237.983 260.545 249.16 257.07Z" fill="black"/>
<path d="M324.758 140.595L305.161 149.837C313.367 146.495 321.549 143.374 329.658 140.555C337.007 138.058 344.086 135.743 351.289 133.367V132.099C342.494 134.696 333.675 137.535 324.856 140.515L324.758 140.595Z" fill="black"/>
<path d="M63.7415 149.837L44.1438 140.595H43.9234C35.0799 137.616 26.261 134.777 17.4665 132.179V133.448C24.8156 135.824 31.8953 138.139 39.0974 140.636C47.402 143.374 55.535 146.495 63.7415 149.837Z" fill="black"/>
<path d="M53.5017 166.085C70.6497 171.138 88.0181 176.051 105.436 185.434C110.723 188.27 115.757 191.412 120.501 194.836C125.254 198.259 129.761 202.266 134.367 206.232C134.612 206.453 134.661 205.849 134.367 205.648C127.346 198.303 119.099 191.81 109.87 186.36C101.894 181.519 93.3514 177.344 84.368 173.897C66.4361 166.951 48.7737 163.125 30.8663 156.783C26.4079 155.199 21.9249 153.407 17.4174 151.407V153.562C20.1366 154.77 22.8558 155.897 25.5505 156.944C35.0064 160.568 44.2663 163.367 53.5017 166.085Z" fill="black"/>
<path d="M111.829 173.273C123.539 180.219 135.151 188.212 146.86 195.42C159.378 203.071 172.092 209.675 184.512 212.534C196.908 209.675 209.646 203.071 222.14 195.42C233.849 188.272 245.461 180.279 257.195 173.273C259.228 172.065 261.286 170.897 263.344 169.729L245.216 178.346C225.055 191.232 204.673 205.568 184.586 210.017C164.425 205.568 144.043 191.212 123.882 178.346L105.754 169.729C107.714 170.897 109.772 172.065 111.829 173.273Z" fill="black"/>
<path d="M284.485 173.897C275.509 177.344 266.975 181.519 259.008 186.36C249.785 191.816 241.539 198.309 234.511 205.648C234.315 205.849 234.388 206.453 234.633 206.232C239.239 202.205 243.746 198.178 248.474 194.836C253.223 191.417 258.257 188.275 263.54 185.434C280.982 176.051 298.277 171.138 315.498 166.085C324.734 163.367 333.969 160.568 343.278 156.944C345.973 155.897 348.692 154.77 351.411 153.562V151.407C346.92 153.394 342.437 155.186 337.962 156.783C320.104 163.045 302.441 166.951 284.485 173.897Z" fill="black"/>
<path d="M285.342 190.125C286.837 188.836 288.233 187.306 289.727 185.997C291.248 184.66 292.886 183.415 294.627 182.273C297.354 180.436 300.339 178.874 303.519 177.622C310.182 175.024 316.503 174.42 322.97 173.313C323.411 173.313 323.705 171.984 323.264 172.004C316.265 172.16 309.385 173.533 303.078 176.031C299.696 177.406 296.543 179.131 293.696 181.165C290.361 183.418 287.498 186.104 285.22 189.118C285.024 189.541 284.828 190.568 285.342 190.125Z" fill="black"/>
<path d="M330.025 175.125C322.798 181.568 315.645 188.474 307.978 192.863C292.912 201.46 278.753 200.776 265.941 197.574C265.402 197.433 264.52 199.326 265.083 199.588C272.43 202.096 280.492 202.836 288.331 201.722C295.99 200.579 303.201 197.934 309.349 194.011C316.992 189.299 324.048 182.252 331.397 175.89C337.522 170.454 344.228 165.481 351.435 161.031V159.259C343.69 163.966 336.52 169.279 330.025 175.125Z" fill="black"/>
<path d="M307.757 235.768C296.121 240.339 284.509 244.95 272.849 250.366C247.941 261.877 224.38 275.256 202.469 290.331L210.847 286.305C220.939 280.036 231.073 274.097 241.247 268.486C253.153 261.949 265.075 255.99 277.013 250.607C288.87 245.272 300.653 240.842 312.485 236.07C325.052 231.203 336.91 225.185 347.834 218.131C349.035 217.346 350.284 216.52 351.435 215.695V213.541C348.643 215.554 345.826 217.346 343.009 219.077C331.96 225.587 320.151 231.178 307.757 235.768Z" fill="black"/>
<path d="M295.754 159.018C282.531 163.64 270.017 169.526 258.469 176.555C245.318 184.531 232.723 193.108 220.743 202.246C214.44 206.93 208.16 211.729 201.905 216.641C196.124 221.171 190.245 225.561 184.512 230.393C178.78 225.561 172.876 221.171 167.095 216.641C160.848 211.749 154.552 206.937 148.281 202.246C136.293 193.107 123.69 184.53 110.531 176.555C98.9899 169.518 86.4743 163.631 73.2463 159.018C60.9978 154.85 48.7492 152.132 36.6721 149.072C30.3274 147.481 23.9581 145.73 17.5644 143.696V146.092C34.7124 151.588 51.8603 154.588 68.8613 159.904C82.1737 164.121 94.8098 169.659 106.489 176.394C119.465 183.961 131.875 192.163 143.651 200.957C150.584 206.031 157.492 211.286 164.4 216.621C171.308 221.957 177.751 227.151 184.512 232.024C191.249 227.151 197.937 221.775 204.624 216.621C211.312 211.467 218.416 206.031 225.349 200.957C237.129 192.158 249.547 183.956 262.536 176.394C274.206 169.659 286.834 164.121 300.139 159.904C317.287 154.588 334.263 151.588 351.435 146.092V143.696C345.042 145.709 338.673 147.481 332.352 149.072C320.177 152.072 308.051 154.79 295.754 159.018Z" fill="black"/>
<path d="M324.219 217.729C298.277 234.5 272.604 237.862 246.98 246.278C234.782 250.098 223.251 255.222 212.684 261.52C201.882 268.089 192.4 276.011 184.586 284.996C176.682 275.999 167.11 268.078 156.218 261.52C145.657 255.214 134.124 250.089 121.922 246.278C96.3226 237.963 70.6251 234.5 44.7072 217.729C37.5785 213.138 30.5968 207.561 23.5172 202.628C21.5574 201.259 19.5732 199.93 17.5644 198.601V200.232C19.1812 201.239 20.798 202.245 22.4638 203.413C28.7106 207.782 34.8838 212.675 41.1306 217.024C52.5009 224.822 65.3101 231.081 79.0766 235.567C103.206 243.621 127.066 247.144 151.49 260.553C158.195 264.227 164.468 268.406 170.23 273.036C175.396 277.3 180.192 281.855 184.586 286.667C188.96 281.867 193.749 277.331 198.917 273.097C204.673 268.462 210.947 264.282 217.657 260.614C242.154 247.205 265.941 243.742 290.046 235.628C303.815 231.146 316.625 224.886 327.992 217.084C334.263 212.735 340.412 207.843 346.683 203.474C348.275 202.366 349.892 201.299 351.583 200.293V198.662C349.574 199.93 347.589 201.259 345.63 202.688C338.403 207.561 331.421 213.138 324.219 217.729Z" fill="black"/>
<path d="M338.501 176.716C325.567 187.85 312.926 202.346 299.085 208.648C285.244 214.95 274.27 209.675 262.095 209.514C248.62 209.698 235.429 212.721 223.781 218.292C217.152 221.304 210.857 224.787 204.967 228.701C197.807 233.312 191.24 238.514 185.37 244.225C185.076 244.527 184.953 245.654 185.37 245.312C192.087 239.71 199.186 234.426 206.633 229.487C213.591 225.067 221.115 221.287 229.072 218.212C240.549 213.568 253.335 211.551 266.088 212.373C272.016 212.896 277.675 214.245 283.726 214.386C290.518 214.333 297.118 212.522 302.588 209.212C315.939 201.682 327.992 187.87 340.681 177.219C344.026 174.382 347.611 171.745 351.411 169.326V167.011C346.834 169.991 342.52 173.234 338.501 176.716Z" fill="black"/>
<path d="M328.408 200.373C318.386 209.911 306.033 217.608 292.153 222.963C280.234 227.151 267.844 230.367 255.162 232.567C242.928 234.741 231.018 238.002 219.641 242.292C205.985 247.626 193.995 255.457 184.586 265.184C175.15 255.454 163.135 247.624 149.457 242.292C138.077 238.008 126.168 234.748 113.936 232.567C101.254 230.367 88.864 227.151 76.9454 222.963C63.0573 217.609 50.6959 209.912 40.6652 200.373C34.5409 194.736 28.5636 188.615 22.2924 183.501C20.7736 182.252 19.2058 181.065 17.6379 179.977V182.293C24.5833 187.569 31.0589 193.248 37.0151 199.286C42.2636 204.353 47.998 209.066 54.1631 213.38C59.7466 217.176 65.7976 220.483 72.2175 223.245C96.7146 233.856 120.183 234.238 144.533 242.634C151.475 244.998 158.1 247.947 164.302 251.433C171.65 255.786 178.438 260.745 184.561 266.231H184.586C190.709 260.745 197.497 255.786 204.845 251.433C211.05 247.951 217.675 245.003 224.614 242.634C248.964 234.238 272.383 233.856 296.954 223.245C303.366 220.482 309.409 217.176 314.984 213.38C321.155 209.071 326.89 204.358 332.132 199.286C338.088 193.248 344.564 187.569 351.509 182.293V179.977C349.941 181.065 348.373 182.252 346.855 183.501C340.51 188.615 334.533 194.736 328.408 200.373Z" fill="black"/>
</g>
<path d="M197.986 228.077C199.676 227.272 201.048 227.916 201.048 229.527C200.991 230.396 200.684 231.242 200.151 231.995C199.619 232.747 198.877 233.385 197.986 233.856C196.295 234.661 194.924 234.017 194.924 232.426C194.979 231.554 195.285 230.705 195.817 229.949C196.35 229.193 197.093 228.551 197.986 228.077Z" fill="#263238"/>
<path d="M197.986 259.225C199.676 258.419 201.048 259.063 201.048 260.674C200.987 261.545 200.678 262.393 200.146 263.148C199.615 263.903 198.874 264.546 197.986 265.023C196.295 265.808 194.924 265.164 194.924 263.573C194.98 262.701 195.288 261.853 195.82 261.097C196.352 260.341 197.094 259.7 197.986 259.225Z" fill="#263238"/>
<path d="M337.938 161.776C339.628 160.971 341 161.635 341 163.226C340.939 164.097 340.63 164.945 340.098 165.7C339.567 166.455 338.826 167.097 337.938 167.575C336.272 168.36 334.9 167.716 334.9 166.125C334.958 165.256 335.263 164.409 335.791 163.654C336.318 162.899 337.053 162.256 337.938 161.776Z" fill="#263238"/>
<path d="M337.938 192.924C339.628 192.138 341 192.783 341 194.373C340.943 195.245 340.636 196.094 340.104 196.85C339.571 197.605 338.829 198.247 337.938 198.722C336.272 199.527 334.9 198.883 334.9 197.272C334.96 196.403 335.266 195.558 335.793 194.803C336.32 194.048 337.055 193.404 337.938 192.924Z" fill="#263238"/>
<path d="M171.014 228.077C169.324 227.272 167.977 227.916 167.977 229.527C168.029 230.395 168.332 231.24 168.86 231.993C169.388 232.745 170.127 233.384 171.014 233.856C172.705 234.661 174.077 234.017 174.077 232.426C174.021 231.554 173.715 230.705 173.183 229.949C172.65 229.193 171.907 228.551 171.014 228.077Z" fill="black"/>
<path d="M171.014 259.225C169.324 258.419 167.977 259.063 167.977 260.674C168.033 261.544 168.337 262.391 168.865 263.146C169.392 263.902 170.129 264.545 171.014 265.023C172.705 265.808 174.077 265.164 174.077 263.573C174.02 262.701 173.712 261.853 173.18 261.097C172.648 260.341 171.906 259.7 171.014 259.225Z" fill="black"/>
<path d="M31.0623 161.776C29.372 160.971 28.0002 161.635 28.0002 163.226C28.061 164.097 28.3698 164.945 28.9016 165.7C29.4334 166.455 30.1735 167.097 31.0623 167.575C32.7526 168.36 34.1 167.716 34.1 166.125C34.0477 165.255 33.7451 164.407 33.2171 163.651C32.6891 162.895 31.9507 162.252 31.0623 161.776Z" fill="black"/>
<path d="M31.0623 192.924C29.372 192.138 28.0002 192.783 28.0002 194.373C28.0572 195.245 28.3643 196.094 28.8965 196.85C29.4287 197.605 30.1708 198.247 31.0623 198.722C32.7526 199.527 34.1 198.883 34.1 197.272C34.0438 196.403 33.7396 195.556 33.2119 194.8C32.6843 194.045 31.9479 193.402 31.0623 192.924Z" fill="black"/>
<path d="M295.533 177.38L241.419 203.051V203.071L244.873 214.265L292.104 191.856L295.533 177.38Z" fill="#263238"/>
<path d="M290.242 179.897L241.419 203.051V203.071L243.795 210.742L287.89 189.823L290.242 179.897Z" fill="black"/>
<path d="M184.512 175.085L369 87.5424L184.512 0L0 87.5424L184.512 175.085Z" fill="#785A0B"/>
<path opacity="0.6" d="M184.512 175.085L369 87.5424L184.512 0L0 87.5424L184.512 175.085Z" fill="#334D30"/>
<path d="M184.512 200.091V175.085L369 87.5424V112.549L184.512 200.091Z" fill="#785A0B"/>
<path opacity="0.3" d="M184.512 200.091V175.085L369 87.5424V112.549L184.512 200.091Z" fill="#CCEBC4"/>
<path d="M184.512 175.085L0 87.5424V112.549L184.512 200.091V175.085Z" fill="#082008"/>
<path d="M144.974 89.6162L197.692 114.643V97.9717L144.974 72.9453V89.6162Z" fill="#082008"/>
<path d="M197.692 114.643L224.051 102.14V85.4485L197.692 97.9718V114.643Z" fill="#785A0B"/>
<path opacity="0.3" d="M197.692 114.643L224.051 102.14V85.4485L197.692 97.9718V114.643Z" fill="#B0CFA9"/>
<path opacity="0.5" d="M144.974 72.9453L171.333 60.4421L224.051 85.4485L171.333 63.281L144.974 72.9453Z" fill="#897D3B"/>
</svg>
