<svg width="196" height="290" viewBox="0 0 196 290" fill="none" xmlns="http://www.w3.org/2000/svg">
<path d="M148.089 235.368L149.297 221.325L132.938 221.869C132.938 221.869 133.882 227.259 134.467 233.002C134.911 237.324 134.703 239.165 133.325 241.664C131.947 244.164 128.369 247.436 124.347 249.23C120.326 251.023 116.512 253.379 117.739 255.707C118.967 258.035 125.084 258.884 127.727 258.216C130.37 257.548 136.157 254.171 139.055 251.805C141.953 249.439 146.909 248.199 148.042 247.665C149.175 247.131 149.392 245.48 149.25 242.752C149.017 240.268 148.629 237.802 148.089 235.368Z" fill="#FFA8A7"/>
<path d="M116.909 255.927C116.741 256.482 116.725 257.073 116.861 257.637C116.997 258.201 117.281 258.717 117.683 259.132C119.023 260.172 122.884 261.803 127.821 260.887C132.758 259.972 135.373 258.293 137.261 256.509C139.149 254.725 141.83 252.216 144.058 251.595C146.125 251.023 149.458 249.687 150.1 248.972C150.742 248.256 150.487 245.394 150.487 245.394L116.909 255.927Z" fill="#263238"/>
<path d="M148.089 235.368C148.291 235.455 148.471 235.586 148.618 235.75C148.765 235.915 148.874 236.11 148.939 236.322C149.137 237.114 149.193 238.135 149.599 239.422C150.231 241.696 150.518 244.054 150.449 246.415C150.26 247.913 145.786 249.411 143.652 250.365C141.15 251.626 138.852 253.263 136.836 255.221C133.883 257.65 130.321 259.205 126.547 259.714C121.6 260.048 118.325 258.865 117.239 257.129C116.295 255.621 116.965 253.313 118.183 252.168C119.961 250.653 121.921 249.371 124.017 248.352C127.179 246.568 130.7 244.383 132.598 241.187C133.417 239.826 133.809 238.246 133.721 236.656C133.683 236.41 133.702 236.158 133.778 235.921C133.896 235.729 134.058 235.568 134.25 235.452C134.442 235.336 134.659 235.268 134.882 235.253C137.29 234.757 139.47 235.73 141.783 236.484C142.338 236.605 142.839 236.907 143.208 237.343C143.869 238.297 143.152 239.623 143.407 240.758C143.421 240.833 143.45 240.904 143.492 240.968C143.652 241.197 144.011 241.121 144.247 240.968C145.106 240.415 145.314 239.279 145.786 238.373C146.16 237.658 146.726 237.063 147.419 236.656C147.635 236.539 147.859 236.437 148.089 236.351C148.089 236.351 148.117 235.377 148.089 235.368Z" fill="#37474F"/>
<path d="M121.591 249.687C124.011 249.667 126.356 250.533 128.192 252.126C130.029 253.718 131.232 255.93 131.578 258.35C129.978 259.053 128.282 259.507 126.547 259.695C121.6 260.029 118.117 258.855 117.031 257.119C115.766 255.097 116.607 251.901 121.591 249.687Z" fill="#FAFAFA"/>
<path d="M131.503 250.203C131.583 250.193 131.659 250.16 131.72 250.107C131.785 250.041 131.821 249.952 131.821 249.859C131.821 249.766 131.785 249.677 131.72 249.611C130.653 248.438 127.802 246.453 125.216 246.873C125.125 246.892 125.044 246.944 124.99 247.02C124.936 247.096 124.912 247.19 124.923 247.283C124.93 247.33 124.946 247.374 124.97 247.414C124.995 247.454 125.027 247.488 125.065 247.515C125.103 247.542 125.146 247.561 125.191 247.57C125.237 247.579 125.284 247.579 125.329 247.57C127.746 247.188 130.351 249.153 131.201 250.088C131.239 250.13 131.286 250.162 131.338 250.182C131.391 250.202 131.447 250.209 131.503 250.203Z" fill="#F0F0F0"/>
<path d="M134.495 248.228C134.561 248.224 134.625 248.201 134.678 248.162C134.732 248.123 134.774 248.069 134.798 248.008C134.823 247.946 134.83 247.878 134.818 247.812C134.806 247.746 134.776 247.685 134.731 247.636C133.674 246.463 130.823 244.479 128.237 244.908C128.191 244.914 128.147 244.929 128.107 244.952C128.067 244.976 128.033 245.007 128.005 245.045C127.978 245.082 127.958 245.125 127.948 245.17C127.937 245.216 127.936 245.263 127.944 245.309C127.96 245.402 128.012 245.485 128.088 245.54C128.163 245.595 128.257 245.618 128.35 245.604C130.767 245.213 133.372 247.178 134.212 248.113C134.247 248.154 134.291 248.186 134.34 248.206C134.389 248.226 134.443 248.233 134.495 248.228Z" fill="#F0F0F0"/>
<path d="M137.242 246.015C137.323 246.007 137.399 245.974 137.46 245.919C137.522 245.852 137.557 245.763 137.557 245.671C137.557 245.579 137.522 245.49 137.46 245.423C136.393 244.24 133.532 242.265 130.955 242.685C130.909 242.692 130.865 242.707 130.825 242.732C130.785 242.756 130.75 242.788 130.723 242.826C130.695 242.863 130.675 242.907 130.664 242.952C130.653 242.998 130.652 243.045 130.659 243.092C130.667 243.138 130.683 243.183 130.708 243.223C130.733 243.262 130.765 243.297 130.804 243.324C130.842 243.351 130.885 243.37 130.93 243.38C130.976 243.39 131.023 243.39 131.069 243.382C133.485 242.99 136.1 244.965 136.94 245.9C136.979 245.941 137.026 245.972 137.079 245.992C137.131 246.011 137.187 246.019 137.242 246.015Z" fill="#F0F0F0"/>
<path d="M139.744 243.372C139.783 243.372 139.821 243.365 139.856 243.35C139.892 243.335 139.924 243.314 139.952 243.286C140.016 243.22 140.052 243.131 140.052 243.038C140.052 242.945 140.016 242.856 139.952 242.79C139.052 241.818 137.946 241.066 136.715 240.592C135.485 240.117 134.164 239.933 132.853 240.052C132.807 240.058 132.763 240.073 132.723 240.096C132.683 240.12 132.649 240.151 132.621 240.189C132.594 240.226 132.574 240.269 132.564 240.314C132.553 240.36 132.552 240.407 132.56 240.453C132.576 240.546 132.628 240.629 132.704 240.684C132.78 240.739 132.874 240.762 132.966 240.748C134.159 240.655 135.358 240.832 136.475 241.266C137.592 241.7 138.599 242.38 139.423 243.258C139.461 243.304 139.511 243.34 139.568 243.36C139.624 243.38 139.685 243.384 139.744 243.372Z" fill="#F0F0F0"/>
<path d="M125.801 109.383C120.911 127.995 123.479 145.635 125.074 163.122C125.858 171.612 127.642 183.671 128.086 187.449C129.332 198.095 132.579 222.47 132.579 222.47C132.579 222.47 141.585 225.694 149.429 222.231C150.279 208.77 154.263 189.538 150.317 178.271L154.395 110.766L125.801 109.383Z" fill="#455A64"/>
<path d="M143.879 178.08C143.378 174.684 142.935 142.782 142.935 142.477H142.217C142.217 143.794 142.642 174.741 143.161 178.185C143.342 179.261 143.585 180.325 143.888 181.372C145.376 186.785 146.104 192.382 146.05 198C146.05 205.164 146.05 216.126 146.003 223.328L146.72 223.147C146.72 215.906 146.796 205.107 146.72 198C146.775 192.32 146.038 186.662 144.53 181.19C144.259 180.166 144.042 179.128 143.879 178.08Z" fill="#37474F"/>
<path d="M150.317 178.271L152.205 142.076C140.631 140.912 132.381 135.398 130.087 130.676C130.688 133.481 131.979 136.087 133.84 138.254C135.701 140.422 138.073 142.081 140.735 143.078C140.735 143.078 144.228 165.134 145.795 172.862C147.362 180.589 149.175 184.415 151.818 196.979C152.261 189.948 152.082 183.318 150.317 178.271Z" fill="#37474F"/>
<path d="M132.079 218.94C135.383 221.115 144.653 222.899 149.798 218.997L149.127 225.771C146.031 228.013 136.667 229.224 132.796 225.112L132.079 218.94Z" fill="#37474F"/>
<path d="M178.675 247.188L178.476 233.775L163.637 234.9L166.327 248.371C166.327 248.371 167.384 253.837 167.62 255.163C168.225 258.955 168.628 262.776 168.829 266.611C169.074 271.668 169.508 276.342 170.962 278.622C172.416 280.902 173.926 281.198 176.145 280.359C177.619 279.667 178.899 278.615 179.87 277.297C180.841 275.979 181.472 274.438 181.705 272.812C182.422 268.767 181.016 262.881 180.468 261.546C179.921 260.21 178.939 252.139 178.675 247.188Z" fill="#FFA8A7"/>
<path d="M167.866 272.946C168.149 276.485 168.753 278.823 170.046 280.874C171.34 282.925 173.719 283.535 176.088 282.877C178.457 282.219 181.488 280.521 182.101 277.449C182.715 274.377 183.045 272.278 182.46 269.006L167.866 272.946Z" fill="#263238"/>
<path d="M178.675 247.188C179.619 247.245 179.505 251.958 180.176 256.728C180.902 261.822 181.676 263.826 182.309 268.004C183.036 272.774 182.309 274.93 180.695 277.859C179.081 280.788 173.256 283.745 170.311 279.662C167.866 276.333 167.686 272.593 167.79 267.813C167.82 263.802 167.504 259.796 166.846 255.841C166.346 252.025 165.496 248.81 166.346 248.39C166.346 248.39 167.026 251.309 167.29 251.92C167.403 252.177 167.79 252.874 167.922 251.834C167.922 251.538 167.856 250.88 167.875 250.565C167.881 250.304 167.968 250.051 168.124 249.842C168.28 249.633 168.497 249.479 168.744 249.401C170.039 248.744 171.466 248.394 172.916 248.381C174.804 248.333 176.494 248.237 177.58 248.762C178.231 249.086 178.231 249.716 178.316 250.298C178.401 250.88 178.439 251.462 178.608 251.319C178.901 251.004 178.58 247.703 178.675 247.188Z" fill="#37474F"/>
<path d="M182.649 270.752C182.881 273.307 182.292 275.87 180.968 278.059C179.364 280.988 173.058 283.965 170.056 279.882C168.564 277.859 168.121 275.426 167.866 272.946C169.537 269.712 179.836 268.09 182.649 270.752Z" fill="#FAFAFA"/>
<path d="M169.905 267.699H170.018C172.866 266.513 175.982 266.143 179.024 266.631C179.073 266.646 179.124 266.651 179.175 266.645C179.226 266.639 179.275 266.622 179.319 266.596C179.363 266.57 179.402 266.534 179.432 266.492C179.462 266.45 179.482 266.402 179.493 266.352C179.504 266.301 179.503 266.249 179.493 266.198C179.482 266.148 179.461 266.1 179.431 266.058C179.402 266.016 179.363 265.98 179.319 265.954C179.275 265.928 179.226 265.911 179.175 265.906C175.97 265.378 172.682 265.772 169.688 267.041C169.613 267.082 169.554 267.148 169.522 267.228C169.491 267.308 169.487 267.397 169.513 267.479C169.538 267.562 169.592 267.632 169.663 267.679C169.735 267.726 169.82 267.747 169.905 267.737V267.699Z" fill="#F0F0F0"/>
<path d="M178.722 263.034C178.792 263.025 178.859 262.996 178.914 262.951C178.969 262.905 179.011 262.845 179.033 262.776C179.048 262.73 179.053 262.681 179.048 262.633C179.044 262.585 179.029 262.538 179.007 262.495C178.984 262.452 178.953 262.415 178.915 262.384C178.877 262.354 178.834 262.332 178.788 262.318C174.351 260.907 169.499 263.272 169.348 263.368C169.305 263.39 169.267 263.42 169.237 263.458C169.206 263.495 169.184 263.538 169.17 263.585C169.157 263.631 169.153 263.68 169.16 263.728C169.166 263.776 169.182 263.822 169.206 263.864C169.254 263.947 169.332 264.009 169.423 264.036C169.515 264.062 169.613 264.052 169.697 264.007C169.744 264.007 174.464 261.698 178.599 263.053C178.641 263.053 178.682 263.046 178.722 263.034Z" fill="#F0F0F0"/>
<path d="M178.448 259.666C178.53 259.658 178.607 259.622 178.666 259.563C178.725 259.505 178.761 259.427 178.77 259.344C178.779 259.261 178.759 259.178 178.715 259.108C178.67 259.038 178.602 258.986 178.524 258.96C173.634 257.31 169.084 259.914 168.866 259.981C168.819 260.004 168.778 260.037 168.744 260.077C168.71 260.118 168.686 260.165 168.672 260.216C168.657 260.266 168.654 260.32 168.662 260.372C168.67 260.424 168.688 260.474 168.717 260.518C168.745 260.563 168.782 260.6 168.826 260.629C168.87 260.658 168.92 260.677 168.971 260.684C169.023 260.692 169.076 260.689 169.126 260.675C169.176 260.66 169.223 260.635 169.263 260.601C169.263 260.601 173.737 258.121 178.288 259.647C178.338 259.668 178.394 259.674 178.448 259.666Z" fill="#F0F0F0"/>
<path d="M178.184 256.365C178.266 256.358 178.343 256.321 178.402 256.262C178.46 256.204 178.497 256.127 178.506 256.044C178.515 255.961 178.495 255.877 178.45 255.807C178.405 255.737 178.338 255.685 178.259 255.66C173.671 254.038 168.725 256.671 168.545 256.785C168.504 256.81 168.468 256.842 168.439 256.881C168.41 256.92 168.39 256.965 168.378 257.012C168.367 257.059 168.365 257.108 168.372 257.156C168.38 257.204 168.397 257.25 168.423 257.291C168.474 257.374 168.554 257.433 168.648 257.456C168.741 257.479 168.84 257.464 168.923 257.415C168.923 257.415 173.728 254.82 178.014 256.346C178.068 256.367 178.126 256.373 178.184 256.365Z" fill="#EBEBEB"/>
<path d="M174.993 145.005C174.766 159.372 175.503 180.856 175.503 180.856C177.752 187.955 178.964 195.346 179.099 202.798C179.411 214.599 178.939 234.7 178.939 234.7C178.939 234.7 176.617 237.343 170.386 237.963C164.836 238.516 162.976 235.788 162.976 235.788C162.976 235.788 154.187 198.715 152.148 189.261C150.109 179.807 140.471 123.731 139.093 115.479L169.206 107.265C176.475 124.408 175.172 133.309 174.993 145.005Z" fill="#455A64"/>
<path d="M161.824 231.323C165.279 233.145 174.502 233.956 179.137 229.549V236.351C176.305 238.898 167.309 241.073 163.089 237.381L161.824 231.323Z" fill="#37474F"/>
<path d="M178.363 232.573H177.646C177.754 218.463 176.76 204.367 174.672 190.415C174.379 188.593 174.115 187.153 173.86 185.75C172.992 181.057 172.17 176.621 170.641 158.848C170.056 152.17 169.839 146.989 169.65 142.429C169.65 142.114 169.65 141.809 169.65 141.475C164.93 141.475 161.937 137.02 160.606 127.862C159.238 118.522 157.973 112.159 157.963 112.092L158.662 111.949C158.662 112.016 159.946 118.398 161.314 127.757C162.598 136.591 165.251 140.731 169.612 140.75C169.408 131.924 168.24 123.148 166.129 114.582H166.856C169.688 126.507 169.961 133.204 170.358 142.429C170.547 146.98 170.764 152.131 171.302 158.809C172.841 176.544 173.653 180.971 174.521 185.645C174.776 187.048 175.04 188.507 175.333 190.33C177.443 204.308 178.456 218.433 178.363 232.573Z" fill="#37474F"/>
<path d="M140.882 54.6354C123.077 46.8524 112.228 32.1655 116.651 21.8313C121.074 11.4972 139.094 9.42905 156.899 17.2121C174.705 24.9951 185.553 39.682 181.13 50.0161C176.707 60.3503 158.688 62.4184 140.882 54.6354Z" fill="#51754C"/>
<path d="M84.992 76.9849C82.2638 75.4775 81.3954 73.5409 79.951 71.9382C78.1197 69.9157 75.9485 68.7232 72.72 66.3859C72.1725 65.9852 71.6155 65.5941 71.0586 65.203C70.7811 65.0244 70.5162 64.8268 70.2656 64.6115C70.0296 64.4016 69.8314 64.2299 69.4915 64.4398C69.2573 64.5994 69.0893 64.8405 69.0195 65.1171C68.9087 65.5705 68.8951 66.0426 68.9798 66.5016C69.0644 66.9607 69.2454 67.3962 69.5104 67.7788C70.0367 68.5381 70.6307 69.247 71.2851 69.8966C71.7571 70.4309 70.9453 70.5072 70.5582 70.4881C68.6702 70.4023 65.1019 66.5672 63.5538 65.5273C62.8646 65.0599 62.3832 64.1822 61.4298 64.5733C61.1281 64.7287 60.8119 64.8534 60.4858 64.9454C60.1297 64.9769 59.771 64.9609 59.419 64.8977C58.8822 64.8266 58.3376 64.9481 57.8803 65.2411C57.655 65.3854 57.4767 65.5935 57.3676 65.8395C57.2585 66.0855 57.2234 66.3584 57.2667 66.6244C57.3611 67.0346 57.6915 67.3685 57.7198 67.7883C57.7118 67.9868 57.6897 68.1845 57.6538 68.3798C57.5782 69.2575 58.2674 69.973 58.7205 70.7266C59.1736 71.4803 59.2302 72.1099 59.589 72.7682C59.9381 73.4787 60.3454 74.1584 60.8067 74.8002C61.9528 76.2525 63.2399 77.5852 64.6488 78.7784C66.6451 80.2706 68.9131 81.3501 71.3229 81.9552C73.3613 82.3372 75.269 83.2404 76.8642 84.5787C79.6962 86.7347 90.335 94.8437 95.0645 97.6294C100.795 101.007 102.456 102.094 108.932 98.4976C113.236 96.1126 128.237 84.6073 128.237 84.6073L132.268 66.5386C132.268 66.5386 125.527 64.6306 116.616 72.5297L102.711 84.76C102.711 84.76 87.2954 78.2537 84.992 76.9849Z" fill="#FFA8A7"/>
<path d="M115.351 94.672C125.14 87.9272 128.454 85.6281 128.454 85.6281L135.317 61.158C126.821 61.4442 121.525 67.3113 118.749 69.744C115.219 72.8159 102.871 84.4738 102.871 84.4738L99.152 83.2526C99.2057 85.7411 98.8057 88.2182 97.972 90.5603C97.1711 93.1151 95.5669 95.336 93.4031 96.8853C93.4031 96.8853 98.9538 101.007 101.569 101.178C104.184 101.35 105.562 101.426 115.351 94.672Z" fill="#EBEBEB"/>
<path d="M102.871 84.4547C104.759 85.0843 107.724 88.3375 108.082 91.7337C108.307 90.0902 108.036 88.4163 107.305 86.9306C106.575 85.4449 105.418 84.2164 103.985 83.4053L102.871 84.4547Z" fill="#E0E0E0"/>
<path d="M101.37 85.1702C101.317 84.4966 101.067 83.8542 100.651 83.3244C100.236 82.7946 99.6752 82.4011 99.0388 82.1937C96.8109 81.2397 94.0922 79.7229 93.5541 80.839L95.2439 81.5164C95.2435 83.6654 94.7491 85.7849 93.7995 87.7078C91.2224 93.0598 88.6548 93.3174 88.6548 93.3174L87.4464 92.4492C87.4464 92.4492 86.8139 92.9548 88.0978 94.1187C89.791 95.5273 91.7054 96.6398 93.7618 97.41C95.8669 97.8202 98.3024 95.025 99.5957 92.4683C101.72 88.1944 101.512 86.3341 101.37 85.1702Z" fill="#E0E0E0"/>
<path d="M72.3802 71.299C72.012 74.3137 74.7307 77.2234 76.345 78.1678C76.345 78.1678 73.513 77.2901 72.569 75.4966C71.4928 73.56 71.776 72.3961 72.3802 71.299Z" fill="#F28F8F"/>
<path d="M167.837 40.8378C169.225 41.9158 169.433 44.3962 167.979 45.3502C169.247 45.4678 170.473 45.8721 171.566 46.5332C172.106 46.8726 172.559 47.3367 172.887 47.8873C173.216 48.4379 173.41 49.0593 173.454 49.7005C173.471 50.3445 173.26 50.9736 172.858 51.4739C172.457 51.9743 171.891 52.313 171.264 52.4289C172.203 53.2055 172.83 54.3009 173.028 55.5105C173.226 56.7201 172.982 57.9612 172.34 59.002C171.646 60.0077 170.661 60.7715 169.52 61.1884C168.379 61.6052 167.138 61.6546 165.968 61.3297C165.612 62.4183 164.994 63.4008 164.17 64.1898C163.347 64.9787 162.343 65.5496 161.248 65.8517C159.028 66.4339 156.673 66.1619 154.64 65.0885C154.147 64.7791 153.593 64.5836 153.017 64.5161C152.624 64.5461 152.233 64.6002 151.846 64.6783C151.223 64.7002 150.605 64.5501 150.06 64.2442C149.514 63.9384 149.061 63.4882 148.75 62.942C148.157 61.8323 147.834 60.5964 147.806 59.3359C147.438 54.3274 148.863 48.9754 152.526 45.5887C154.116 44.2049 155.905 43.0727 157.831 42.2307C160.323 41.0572 165.317 38.8726 167.837 40.8378Z" fill="#FFBDA7"/>
<path d="M169.206 107.236C168.14 102.667 168.196 100.301 169.461 93.4605C171.16 84.2448 173.36 80.2952 172.359 74.1992C171.746 70.5263 170.896 66.157 167.186 64.0772L153.026 60.7478C153.026 60.7478 149.411 60.5856 141.604 60.9481L135.298 61.158C131.633 65.7691 128.5 70.7878 125.962 76.1167C124.723 78.9594 124.116 82.0416 124.183 85.1468C124.25 88.2519 124.989 91.3046 126.349 94.0901C126.49 94.777 126.632 104.956 126.632 104.956L125.782 109.383C125.782 109.383 129.162 117.396 143.718 117.568C164.788 117.816 169.112 109.383 169.206 107.236Z" fill="#F5F5F5"/>
<path d="M125.273 76.2217C127.97 70.7875 131.346 65.7251 135.317 61.158L140.811 60.9767C138.564 63.0088 133.674 71.051 131.201 75.8973C133.089 75.8973 135.336 75.8973 137.648 76.0309C140.971 76.2407 146.305 76.8704 150.742 77.4237C151.644 71.76 153.821 66.3812 157.104 61.7018L162.91 63.066C159.813 65.928 157.369 75.6206 156.812 78.206L158.454 78.4349C158.454 78.4349 155.792 97.6676 159.568 102.18C163.344 106.692 168.791 103.869 168.791 103.869C169.497 107.191 170.444 110.456 171.623 113.638C171.623 113.638 157.029 120.144 142.585 119.591C128.142 119.037 125.131 111.959 125.131 111.959C125.131 111.959 125.084 104.947 125.084 100.32C125.084 95.6928 123.705 93.0025 123.12 87.5552C122.318 79.8182 125.273 76.2217 125.273 76.2217Z" fill="#455A64"/>
<path d="M148.891 81.8312C142.685 80.7921 136.395 80.3513 130.106 80.5147C129.671 82.1357 129.439 83.8056 129.417 85.485C129.417 85.485 133.967 90.6652 137.469 91.9913C140.96 89.9402 144.62 88.2006 148.41 86.792C148.41 86.792 148.24 83.4053 148.891 81.8312Z" fill="#37474F"/>
<path d="M151.695 80.5147C151.695 80.8317 151.788 81.1415 151.962 81.4051C152.137 81.6687 152.384 81.8741 152.674 81.9954C152.964 82.1167 153.283 82.1484 153.59 82.0866C153.898 82.0248 154.181 81.8721 154.402 81.648C154.624 81.4238 154.775 81.1382 154.836 80.8274C154.898 80.5165 154.866 80.1942 154.746 79.9013C154.626 79.6085 154.423 79.3582 154.162 79.1821C153.901 79.006 153.595 78.912 153.281 78.912C152.86 78.912 152.457 79.0808 152.16 79.3814C151.862 79.682 151.695 80.0896 151.695 80.5147Z" fill="#51754C"/>
<path d="M126.368 78.1678C126.366 78.446 126.446 78.7185 126.597 78.9505C126.749 79.1826 126.966 79.3638 127.22 79.4711C127.474 79.5785 127.754 79.6071 128.024 79.5532C128.294 79.4994 128.542 79.3657 128.736 79.169C128.931 78.9723 129.063 78.7215 129.117 78.4486C129.17 78.1757 129.142 77.8929 129.035 77.6363C128.929 77.3797 128.75 77.1607 128.52 77.0074C128.291 76.854 128.021 76.7731 127.746 76.775C127.381 76.7775 127.032 76.925 126.774 77.1857C126.516 77.4464 126.37 77.7992 126.368 78.1678Z" fill="#51754C"/>
<path d="M129.672 35.6767C129.427 36.2441 129.354 36.872 129.461 37.4814C129.569 38.0908 129.852 38.6545 130.276 39.1015C131.446 40.4276 133.24 40.6947 134.58 41.8109C136.174 43.1147 137.869 44.2857 139.65 45.3121C143.18 47.3727 146.928 49.0136 150.534 50.9216C151.941 51.5429 153.19 52.4791 154.187 53.6596C154.337 53.2801 154.511 52.9105 154.706 52.5529C156.245 49.6909 158.936 47.6112 160.767 44.9209C161.257 44.2068 161.683 43.4502 162.041 42.6599C162.506 41.6608 162.876 40.6195 163.146 39.5499C163.467 34.7799 158.426 28.8556 150.874 25.5261C145.446 23.1506 139.971 22.6641 136.1 23.8566C132.636 22.7595 129.615 24.1237 128.463 25.5261C127.288 26.8821 126.564 28.5777 126.396 30.3724C126.349 31.4873 126.637 32.5903 127.221 33.5369C127.806 34.4835 128.66 35.2294 129.672 35.6767Z" fill="#FFBDA7"/>
<path d="M160.248 39.6072C157.907 38.7199 156.594 40.0842 155.301 41.6296C155.128 41.8607 154.899 42.0427 154.636 42.1578C154.373 42.2729 154.085 42.3172 153.8 42.2865C153.515 42.2558 153.242 42.151 153.009 41.9824C152.776 41.8138 152.59 41.5871 152.469 41.3244C152.164 40.634 151.981 39.8943 151.931 39.1397C151.874 38.8535 152.007 37.7946 151.846 37.6896C151.763 37.6506 151.673 37.631 151.582 37.6324C149.758 37.6301 147.953 37.2672 146.267 36.5639C144.566 35.8353 143.212 34.4669 142.491 32.7479C142.453 33.5178 142.559 34.288 142.803 35.0184C140.958 34.8147 139.219 34.0484 137.816 32.8214C136.413 31.5944 135.413 29.9649 134.949 28.1496C132.541 28.7697 131.012 33.7114 131.173 37.2031C131.229 38.9584 131.097 40.6375 131.012 42.4024C130.531 52.0091 133.58 55.3005 135.137 56.264C136.695 57.2275 138.677 57.5901 141.878 57.5042L141.755 61.2057C141.755 61.2057 140.877 63.9342 140.981 71.9478C147.202 68.7519 153.121 64.4875 155.386 61.7972L155.858 49.2139C156.859 50.8548 159.7 50.416 161.116 48.5366C163.278 45.5792 163.712 40.9237 160.248 39.6072Z" fill="#FFA8A7"/>
<path d="M132.466 35.9915L135.524 34.5987C135.444 34.3938 135.323 34.2075 135.17 34.051C135.016 33.8946 134.833 33.7712 134.631 33.6882C134.429 33.6053 134.212 33.5646 133.994 33.5686C133.776 33.5726 133.562 33.6212 133.363 33.7114C132.953 33.9034 132.632 34.2468 132.465 34.6709C132.298 35.095 132.298 35.5676 132.466 35.9915Z" fill="#F0997A"/>
<path d="M144.917 34.2361L147.844 35.9152C147.961 35.7285 148.04 35.5195 148.074 35.301C148.109 35.0825 148.099 34.8591 148.045 34.6446C147.991 34.4301 147.894 34.2291 147.761 34.0538C147.627 33.8786 147.459 33.7328 147.268 33.6256C146.873 33.4043 146.409 33.3443 145.972 33.4579C145.535 33.5714 145.157 33.8499 144.917 34.2361Z" fill="#F0997A"/>
<path d="M145.333 39.7025C145.356 39.9789 145.297 40.256 145.165 40.4988C145.032 40.7417 144.832 40.9393 144.588 41.0669C144.344 41.1944 144.068 41.246 143.796 41.2152C143.523 41.1844 143.265 41.0725 143.056 40.8938C142.846 40.7151 142.693 40.4775 142.617 40.2111C142.541 39.9447 142.544 39.6614 142.627 39.397C142.71 39.1327 142.869 38.8992 143.083 38.726C143.298 38.5529 143.558 38.4478 143.832 38.4242C144.013 38.4085 144.196 38.4291 144.37 38.4849C144.544 38.5406 144.705 38.6304 144.844 38.7491C144.983 38.8678 145.098 39.0131 145.182 39.1767C145.266 39.3403 145.317 39.519 145.333 39.7025Z" fill="#263238"/>
<path d="M135.166 38.9584C135.191 39.2369 135.134 39.5166 135.001 39.7621C134.869 40.0077 134.667 40.208 134.422 40.3377C134.177 40.4674 133.9 40.5206 133.625 40.4906C133.349 40.4606 133.089 40.3488 132.877 40.1693C132.665 39.9898 132.511 39.7507 132.433 39.4822C132.356 39.2138 132.359 38.9282 132.442 38.6616C132.525 38.395 132.685 38.1594 132.901 37.9846C133.117 37.8099 133.38 37.7039 133.655 37.6801C133.838 37.663 134.022 37.6827 134.196 37.7378C134.371 37.793 134.533 37.8825 134.674 38.0014C134.814 38.1202 134.93 38.266 135.014 38.4302C135.099 38.5945 135.15 38.774 135.166 38.9584Z" fill="#263238"/>
<path d="M142.859 47.2487L137.469 48.632C137.576 49.0034 137.756 49.349 137.999 49.648C138.242 49.947 138.543 50.193 138.882 50.3714C139.222 50.5497 139.594 50.6566 139.976 50.6856C140.358 50.7146 140.741 50.665 141.103 50.54C141.433 50.4417 141.741 50.2783 142.008 50.0593C142.275 49.8403 142.497 49.57 142.66 49.264C142.823 48.958 142.925 48.6224 142.959 48.2765C142.993 47.9306 142.959 47.5813 142.859 47.2487Z" fill="#B16668"/>
<path d="M139.574 50.664C139.701 49.9439 140.088 49.2971 140.66 48.8493C141.232 48.4014 141.949 48.1846 142.67 48.2409C142.758 48.2326 142.847 48.2326 142.935 48.2409C142.917 48.7751 142.73 49.2894 142.4 49.7071C142.07 50.1249 141.615 50.4237 141.103 50.5591C140.61 50.7214 140.085 50.7575 139.574 50.664Z" fill="#F28F8F"/>
<path d="M139.451 37.6705L138.441 46.0657L133.929 44.2913C135.836 40.5802 138.205 37.785 139.451 37.6705Z" fill="#F28F8F"/>
<path d="M141.792 57.5328C144.889 57.218 151.44 55.9396 153.866 50.7117C153.866 50.7117 154.81 54.0603 150.015 57.2275C147.381 58.9638 141.717 59.9464 141.717 59.9464L141.792 57.5328Z" fill="#F28F8F"/>
<path d="M178.826 144.719C180.345 142.038 180.072 138.527 181.79 135.961C182.318 135.169 183.008 134.521 183.565 133.757C183.851 133.431 184.053 133.038 184.151 132.613C184.25 132.189 184.243 131.746 184.131 131.325C184.046 130.848 177.202 104.088 177.202 104.088L167.564 87.0305C163.731 78.9501 164.581 71.5089 166.195 67.4448C172.444 67.3494 174.361 68.914 176.739 72.73C178.288 75.2104 179.062 76.67 182.498 83.224C186.765 91.3235 186.576 90.7511 189.332 96.7136C190.503 99.2417 191.957 100.711 193.014 109.85C193.835 116.872 194.572 129.693 194.675 130.695C195.015 133.958 196.365 138.499 196.101 140.454C195.837 142.41 195.431 144.852 195.053 146.417C194.76 147.629 193.731 148.144 193.165 149.164C192.916 149.511 192.592 149.794 192.217 149.993C191.842 150.191 191.426 150.3 191.003 150.309C190.92 150.315 190.837 150.331 190.758 150.357C190.653 150.415 190.558 150.489 190.475 150.576C190.04 150.953 189.502 151.188 188.932 151.249C188.362 151.31 187.788 151.195 187.284 150.92C187.048 151.143 186.768 151.312 186.461 151.416C186.155 151.52 185.83 151.556 185.509 151.521C183.721 151.38 181.974 150.908 180.355 150.128C180.737 149.675 181.198 149.297 181.714 149.012C182.403 148.554 183.074 148.058 183.801 147.695C183.872 147.659 183.939 147.615 183.999 147.562C184.169 147.381 184.188 147.008 184.254 146.77C184.357 146.379 184.461 145.988 184.575 145.597C184.745 144.777 184.764 143.933 184.631 143.107C184.631 142.506 184.348 141.771 183.687 142.305C183.445 142.537 183.264 142.825 183.159 143.145C182.8 144.068 182.279 144.918 181.62 145.654C181.287 146.017 180.882 146.306 180.432 146.502C179.981 146.697 179.495 146.795 179.005 146.789C178.853 146.787 178.704 146.747 178.571 146.675C178.443 146.578 178.348 146.443 178.299 146.289C178.25 146.135 178.249 145.97 178.297 145.816C178.396 145.51 178.539 145.221 178.722 144.957C178.761 144.88 178.796 144.8 178.826 144.719Z" fill="#FFA8A7"/>
<path d="M167.186 64.0772C174.191 65.6609 176.249 68.6278 178.911 73.0639C181.573 77.5 186.906 88.8908 188.785 93.1742C190.805 97.2095 192.063 101.59 192.495 106.091C192.287 106.95 191.145 108.696 186.132 109.907C183.613 110.546 180.963 110.42 178.514 109.545L177.023 104.222L166.827 87.4216C166.827 87.4216 159.105 72.129 167.186 64.0772Z" fill="#EBEBEB"/>
<path d="M177.259 105.042C176.201 105.7 177.891 109.888 178.429 111.806C178.967 113.723 180.591 115.431 186.151 114.601C191.711 113.771 193.949 111.424 193.882 109.221C193.816 107.017 193.599 102.447 191.994 102.638L192.249 104.269C192.249 104.269 191.447 106.568 185.755 107.456C180.062 108.343 177.74 106.845 177.74 106.845L177.259 105.042Z" fill="#E0E0E0"/>
<path d="M190.607 149.937C190.965 148.478 191.211 146.989 191.456 145.492C191.436 147.015 191.249 148.532 190.899 150.014L190.814 150.309C190.71 150.368 190.614 150.442 190.531 150.529C190.493 150.357 190.56 150.147 190.607 149.937Z" fill="#F28F8F"/>
<path d="M193.354 148.583C193.695 147.903 193.937 147.177 194.071 146.427C194.223 145.68 194.289 144.918 194.269 144.156C194.062 144.891 193.939 145.635 193.779 146.369L193.354 148.583Z" fill="#F28F8F"/>
<path d="M187.378 149.641C187.865 148.425 188.231 147.163 188.473 145.873C188.614 147.657 188.177 149.438 187.227 150.948L187.378 149.641Z" fill="#F28F8F"/>
<path d="M5.15934 252.096C5.9635 241.06 4.09784 236.498 5.01459 219.27C5.095 214.854 5.25584 210.123 5.55338 205.917C6.5425 191.773 8.71374 186.945 8.91478 184.216C8.91478 184.216 9.98431 157.114 10.9011 126.17C11.3353 111.638 15.5411 107.206 18.8944 99.4798H58.797C63.252 118.549 64.5226 160.118 64.4261 179.768C64.3537 189.787 60.3249 243.377 60.2445 244.604C59.963 248.979 60.341 250.707 62.0538 252.548C65.6243 256.399 70.8112 260.064 75.2904 263.422C74.639 265.142 69.2511 265.037 66.5813 263.769C63.0915 261.938 59.766 259.806 56.6418 257.4C52.9588 254.663 48.2544 252.475 48.1901 248.309C48.173 248.058 48.1326 247.81 48.0695 247.567C47.9971 245.145 42.3599 209.291 41.8854 200.968C41.4834 193.815 42.3519 181.681 42.3519 181.681L37.752 151.382C37.752 151.382 34.2218 174.391 31.359 186.614C29.0269 196.568 25.1749 213.554 22.5132 225.801C19.9881 239.913 16.884 246.065 16.2648 253.129C16.0718 254.808 14.174 271.366 13.3859 275.153C12.5978 278.939 4.37126 279.044 3.84051 272.529C3.49472 268.185 5.01459 254.17 5.15934 252.096Z" fill="#FFBDA7"/>
<path d="M83.6778 268.904C83.911 268.904 84.297 271.487 83.0425 272.593C81.587 273.877 77.3168 276.008 71.6314 275.33C65.946 274.652 62.85 272.908 60.5581 271.043C58.2662 269.178 55.0496 266.498 52.5165 265.957C50.104 265.457 47.5226 264.399 46.7506 263.664C45.9786 262.93 46.051 259.628 46.051 259.628L83.6778 268.904Z" fill="#263238"/>
<path d="M47.8684 246.945C47.8684 246.945 47.4422 246.945 47.3055 247.752C47.1366 248.664 46.9758 251.304 46.622 252.798C46.0629 255.425 45.9029 258.123 46.1475 260.798C46.4772 262.478 50.3774 263.608 52.8784 264.536C55.818 265.785 58.5512 267.476 60.9843 269.55C63.6702 271.729 69.3074 273.885 73.0467 273.901C78.6759 273.901 82.3429 272.343 83.4526 270.292C84.8197 267.757 83.71 266.312 77.1882 263.358C75.9498 262.801 71.752 260.128 70.2724 259.224C68.6818 258.204 67.1758 257.056 65.7691 255.793C65.1052 255.215 64.4793 254.595 63.8954 253.936C63.2548 253.348 62.7119 252.661 62.287 251.902C62.2147 251.732 62.1745 251.369 62.1021 251.191C61.9131 250.701 61.7625 250.196 61.6518 249.682C61.5793 249.402 61.4506 249.14 61.2736 248.913C61.0966 248.685 60.875 248.496 60.6224 248.358C59.8885 248.06 59.0866 247.974 58.3065 248.107C57.4647 248.172 56.6288 248.299 55.8055 248.487C54.8486 248.713 53.7468 248.81 53.192 249.714C52.8224 250.448 52.6453 251.265 52.6773 252.087C52.6773 252.467 52.6773 252.846 52.6773 253.226C52.6773 253.387 52.7497 253.686 52.5245 253.613C52.2994 253.541 52.0581 252.992 51.9777 252.806C51.7927 252.378 51.6721 251.926 51.4711 251.506C51.255 251.022 50.9852 250.565 50.6669 250.142C50.3604 249.757 50.0125 249.408 49.6295 249.1C49.2405 248.886 48.8646 248.649 48.5037 248.39C48.1538 247.982 47.9327 247.479 47.8684 246.945Z" fill="#37474F"/>
<path d="M78.1773 263.818C70.007 264.472 67.49 269.574 67.1763 272.698C69.0428 273.385 71.0042 273.777 72.9904 273.861C78.6196 273.861 82.5198 272.303 83.6295 270.252C84.9162 267.879 83.9994 265.965 78.1773 263.818Z" fill="#FAFAFA"/>
<path d="M66.8869 264.48C66.7934 264.481 66.7024 264.45 66.6295 264.391C66.5888 264.359 66.5548 264.319 66.5295 264.273C66.5041 264.228 66.488 264.178 66.4821 264.126C66.4761 264.074 66.4803 264.022 66.4946 263.972C66.5089 263.921 66.5329 263.875 66.5652 263.834C67.5094 262.835 68.6547 262.05 69.9249 261.531C71.195 261.012 72.5609 260.77 73.9313 260.823C74.0367 260.833 74.1337 260.884 74.2015 260.966C74.2692 261.048 74.3022 261.153 74.2932 261.259C74.2892 261.311 74.2747 261.363 74.2505 261.41C74.2264 261.457 74.193 261.498 74.1526 261.532C74.1121 261.566 74.0652 261.592 74.0148 261.607C73.9644 261.622 73.9114 261.627 73.859 261.622C72.6193 261.576 71.3837 261.791 70.2315 262.252C69.0793 262.714 68.036 263.412 67.1683 264.302C67.1371 264.351 67.0958 264.392 67.0472 264.422C66.9985 264.453 66.9438 264.473 66.8869 264.48Z" fill="#F0F0F0"/>
<path d="M63.3405 262.461C63.2476 262.459 63.1577 262.428 63.0831 262.373C63.0015 262.305 62.9498 262.208 62.9393 262.102C62.9287 261.996 62.9602 261.89 63.0269 261.808C63.9686 260.808 65.1125 260.024 66.3818 259.505C67.651 258.987 69.016 258.748 70.3849 258.804C70.4375 258.808 70.4887 258.823 70.5355 258.847C70.5824 258.871 70.6239 258.905 70.6576 258.945C70.6914 258.986 70.7167 259.033 70.732 259.084C70.7473 259.134 70.7523 259.188 70.7468 259.24C70.7366 259.346 70.6853 259.443 70.604 259.511C70.5227 259.579 70.418 259.613 70.3126 259.604C69.0747 259.561 67.8416 259.779 66.6932 260.245C65.5449 260.711 64.5067 261.414 63.646 262.308C63.6098 262.355 63.5636 262.393 63.5107 262.42C63.4578 262.446 63.3996 262.461 63.3405 262.461Z" fill="#F0F0F0"/>
<path d="M60.0515 260.144C59.9609 260.143 59.8732 260.112 59.8022 260.056C59.7193 259.989 59.6661 259.892 59.654 259.786C59.642 259.681 59.6721 259.574 59.7379 259.491C60.6796 258.491 61.8236 257.707 63.0928 257.189C64.362 256.67 65.727 256.431 67.0959 256.487C67.2026 256.497 67.301 256.549 67.3697 256.631C67.4383 256.714 67.4714 256.82 67.4618 256.927C67.4522 257.034 67.4007 257.133 67.3185 257.202C67.2363 257.271 67.1302 257.304 67.0236 257.295C65.7857 257.257 64.5536 257.479 63.4058 257.946C62.258 258.413 61.2197 259.115 60.3571 260.007C60.32 260.052 60.2732 260.088 60.2202 260.112C60.1672 260.135 60.1095 260.147 60.0515 260.144Z" fill="#F0F0F0"/>
<path d="M57.1484 257.844C57.0582 257.849 56.9693 257.82 56.8992 257.763C56.8151 257.697 56.7603 257.601 56.7467 257.495C56.7331 257.389 56.7619 257.282 56.8268 257.198C58.3708 255.196 61.901 253.855 64.8684 254.146C64.921 254.15 64.9722 254.165 65.019 254.189C65.0659 254.213 65.1074 254.247 65.1411 254.287C65.1749 254.328 65.2001 254.375 65.2154 254.426C65.2308 254.476 65.2358 254.529 65.2303 254.582C65.2201 254.688 65.1688 254.785 65.0875 254.853C65.0062 254.921 64.9015 254.954 64.796 254.945C62.1182 254.679 58.8291 255.914 57.4621 257.69C57.425 257.738 57.3775 257.777 57.3231 257.804C57.2687 257.83 57.2089 257.844 57.1484 257.844Z" fill="#F0F0F0"/>
<path d="M15.9753 278.107C15.7582 281.886 15.1711 284.396 13.8362 286.608C12.5013 288.82 9.9843 289.523 7.40294 288.877C4.82158 288.231 1.5808 286.455 0.849011 283.226C0.117223 279.996 -0.308981 277.728 0.270016 274.224L15.9753 278.107Z" fill="#263238"/>
<path d="M5.24775 250.747C4.20234 250.828 3.88871 255.906 3.28559 260.984C2.63422 266.425 1.01785 268.678 0.430813 273.142C-0.2286 278.245 0.615773 280.529 2.39297 283.637C4.17017 286.746 10.4346 289.741 13.5789 285.325C16.112 281.724 16.2165 277.736 15.9914 272.642C15.8646 268.333 15.9774 264.021 16.3291 259.725C16.5382 255.906 17.3826 252.055 16.4658 251.651C16.3934 252.217 16.3291 252.927 16.2567 253.476C16.2188 254.165 16.1028 254.848 15.9109 255.51C15.8064 255.793 15.5732 256.092 15.4767 255.632C15.4284 255.316 15.4284 254.995 15.4767 254.679C15.6295 253.274 14.9218 253.161 14.5439 253.064C12.9325 252.749 11.3059 252.517 9.67064 252.37C8.86648 252.322 6.09212 252.2 5.73025 252.661C5.49817 253.115 5.3769 253.619 5.37641 254.13C5.28796 254.897 5.11104 255.462 5.08692 255.22C5.03867 254.671 5.14321 253.242 5.15929 252.895C5.17537 252.548 5.22362 252.087 5.23167 251.781C5.23971 251.474 5.24775 251.07 5.24775 250.747Z" fill="#37474F"/>
<path d="M0.141334 276.105C-0.0494928 278.834 0.641436 281.552 2.11153 283.855C3.88873 286.939 10.7 289.975 13.8041 285.559C15.348 283.355 15.7662 280.755 15.9753 278.107C14.0936 274.7 3.07653 273.183 0.141334 276.105Z" fill="#FAFAFA"/>
<path d="M13.6835 272.561C13.6409 272.568 13.5974 272.568 13.5548 272.561C13.5548 272.561 8.64941 270.518 3.90485 271.616C3.85522 271.628 3.80378 271.63 3.75348 271.622C3.70318 271.613 3.655 271.595 3.61169 271.568C3.56838 271.541 3.53078 271.506 3.50106 271.464C3.47133 271.423 3.45005 271.376 3.43844 271.326C3.42682 271.276 3.42509 271.224 3.43336 271.174C3.44162 271.123 3.45971 271.075 3.48659 271.032C3.51347 270.988 3.54862 270.95 3.59003 270.92C3.63144 270.891 3.6783 270.869 3.72793 270.858C8.73787 269.695 13.6995 271.762 13.8845 271.851C13.9808 271.893 14.0567 271.972 14.0958 272.07C14.1349 272.168 14.1341 272.278 14.0936 272.375C14.0531 272.445 13.9918 272.501 13.9183 272.534C13.8447 272.568 13.7626 272.577 13.6835 272.561Z" fill="#F0F0F0"/>
<path d="M4.14605 267.782C4.05502 267.777 3.9686 267.74 3.9021 267.677C3.83559 267.615 3.7933 267.531 3.78271 267.44C3.77211 267.349 3.7939 267.257 3.84421 267.181C3.89452 267.105 3.97011 267.049 4.05759 267.023C8.76998 265.408 14.0051 267.83 14.1981 267.927C14.2893 267.977 14.3578 268.06 14.3893 268.159C14.4208 268.259 14.4128 268.366 14.367 268.46C14.316 268.55 14.2325 268.617 14.1337 268.647C14.0349 268.677 13.9284 268.668 13.8362 268.621C13.796 268.621 8.69761 266.272 4.31492 267.766C4.26041 267.783 4.20284 267.788 4.14605 267.782Z" fill="#F0F0F0"/>
<path d="M4.31495 264.197C4.22868 264.186 4.14859 264.146 4.08717 264.084C4.02576 264.022 3.98648 263.942 3.97546 263.855C3.96444 263.768 3.98231 263.681 4.02626 263.605C4.07022 263.53 4.1378 263.471 4.21845 263.438C9.4053 261.581 14.367 264.205 14.5519 264.318C14.6397 264.373 14.7029 264.46 14.7284 264.561C14.7539 264.662 14.7396 264.769 14.6886 264.859C14.6338 264.948 14.5465 265.011 14.4457 265.035C14.3448 265.059 14.2385 265.042 14.1499 264.988C14.1499 264.988 9.32488 262.445 4.49991 264.181C4.44035 264.201 4.37701 264.206 4.31495 264.197Z" fill="#F0F0F0"/>
<path d="M4.57227 260.669C4.49961 260.662 4.43032 260.635 4.3721 260.591C4.31389 260.547 4.26904 260.487 4.24256 260.419C4.22469 260.371 4.21656 260.319 4.21864 260.268C4.22072 260.217 4.23298 260.166 4.25468 260.12C4.27639 260.073 4.30712 260.031 4.34507 259.997C4.38303 259.962 4.42746 259.936 4.47577 259.918C9.30074 258.086 14.6725 260.782 14.8736 260.903C14.9182 260.928 14.9575 260.962 14.989 261.003C15.0205 261.043 15.0436 261.09 15.0571 261.139C15.0706 261.189 15.0741 261.241 15.0674 261.292C15.0608 261.343 15.0441 261.392 15.0183 261.436C14.9662 261.525 14.8816 261.59 14.7824 261.617C14.6833 261.644 14.5775 261.632 14.4876 261.581C14.4393 261.581 9.26054 258.95 4.74918 260.645C4.69324 260.668 4.63233 260.676 4.57227 260.669Z" fill="#EBEBEB"/>
<path d="M11.3273 99.4798C9.45357 108.078 7.76483 118.177 6.80788 142.397C5.81876 167.424 6.94459 180.341 6.80788 183.441C6.67117 186.541 5.62576 194.3 3.40627 209.501C1.18678 224.703 2.90769 240.527 4.04156 255.067C4.04156 255.067 4.57231 256.891 10.3944 257.416C15.7663 257.9 17.6319 256.439 17.6319 256.439C20.0042 255.099 29.1716 214.749 30.6433 205.392C32.2516 195.317 37.9611 169.499 37.9611 169.499L40.824 189.012C40.2294 198.042 40.4528 207.108 41.4914 216.097C42.955 229.523 46.2521 253.234 46.2521 253.234C48.8374 254.129 51.5594 254.561 54.2937 254.509C57.4864 254.32 60.6127 253.514 63.5013 252.136C63.5013 252.136 67.0557 201.444 67.0557 186.251C67.0557 171.057 65.954 122.174 61.1934 99.6816L11.3273 99.4798Z" fill="#F0F0F0"/>
<path d="M11.8982 100.198L60.6064 100.36C65.2866 123.15 66.34 171.089 66.34 186.218C66.34 200.475 63.1234 246.767 62.8178 251.611C60.1355 252.848 57.2481 253.576 54.3017 253.759H53.964C51.5815 253.758 49.2135 253.387 46.9436 252.661C46.4853 249.431 43.5822 228.28 42.2393 216.008C41.2178 207.066 40.9971 198.05 41.5799 189.068V188.979V188.898L38.7171 169.386L38.1622 165.567L37.358 169.337C37.3017 169.595 31.6083 195.292 30.0321 205.271C28.2871 215.928 19.4413 253.807 17.3102 255.833C17.3102 255.833 16.0075 256.77 12.5898 256.77C11.9465 256.77 11.271 256.77 10.5714 256.673C6.08414 256.269 5.03068 255.099 4.85377 254.84C4.7251 253.226 4.59375 251.611 4.45973 249.996C3.37411 236.74 2.25632 223.032 4.21848 209.566C6.55055 193.654 7.53163 186.509 7.63617 183.425C7.63617 182.617 7.63617 181.237 7.53163 179.146C7.29842 172.841 6.85613 161.094 7.59596 142.389C8.56095 118.016 10.2819 108.037 11.9787 100.158M11.4077 99.4393C9.45358 108.078 7.76483 118.177 6.80788 142.397C5.81876 167.424 6.94459 180.341 6.80788 183.441C6.67117 186.541 5.62576 194.299 3.40627 209.501C1.18678 224.703 2.90769 240.527 4.04156 255.066C4.04156 255.066 4.57231 256.891 10.3944 257.416C11.1986 257.48 11.85 257.513 12.4772 257.513C16.2568 257.513 17.6239 256.439 17.6239 256.439C19.9961 255.099 29.1636 214.749 30.6352 205.392C32.2435 195.317 37.9531 169.499 37.9531 169.499L40.8159 189.011C40.2214 198.042 40.4448 207.107 41.4834 216.097C42.9469 229.523 46.244 253.234 46.244 253.234C48.7084 254.091 51.2997 254.522 53.9077 254.509H54.3017C57.4944 254.32 60.6207 253.514 63.5094 252.136C63.5094 252.136 67.0638 201.444 67.0638 186.25C67.0638 171.057 65.9621 122.173 61.2014 99.6815L11.3434 99.512L11.4077 99.4393Z" fill="#E0E0E0"/>
<path d="M45.7856 140.605L46.6622 140.265C48.4659 134.986 48.987 129.351 48.182 123.828L47.4824 123.925C48.3048 129.54 47.7217 135.272 45.7856 140.605Z" fill="#E0E0E0"/>
<path opacity="0.1" d="M37.7037 169.628L43.944 141.21C43.944 141.21 52.6933 138.917 56.7141 132.854C55.4918 139.725 47.1929 144.867 47.1929 144.867L39.4407 171.509L40.5344 189.149L37.7037 169.628Z" fill="black"/>
<path d="M78.1773 89.9614C72.6768 87.9512 69.9668 86.9097 69.9668 86.9097C69.9668 86.9097 67.876 77.4479 64.7639 65.984C63.6702 61.9474 60.8154 59.5254 55.323 58.0803L52.4521 75.5265C52.4521 75.5265 54.6877 86.498 57.2771 95.7095C58.7568 100.941 61.2979 102.443 65.4957 103.298C73.5373 104.913 82.7932 106.358 87.8112 107.165L89.0013 93.4409C86.1787 92.7466 82.4474 91.5357 78.1773 89.9614Z" fill="#E0E0E0"/>
<path d="M123.138 98.5674C122.947 98.2153 122.627 97.9518 122.245 97.8327C118.731 96.3553 114.614 97.7601 110.987 97.8327C109.805 97.8327 106.653 98.0991 105.873 96.8155C105.358 95.9517 108.108 95.7418 110.03 94.3935C111.952 93.0453 111.494 89.9452 109.95 90.8979C108.406 91.8505 105.881 91.7052 102.125 92.3995C98.3699 93.0938 95.692 94.4501 92.9016 94.216C91.5979 94.0635 90.3076 93.8125 89.0416 93.4651C86.7819 97.4452 86.2913 101.974 87.8514 107.19L89.7251 107.496C93.955 108.215 96.9626 110.346 104.321 110.451C107.762 110.508 112.057 110.346 114.566 107.569C115.071 106.855 115.672 106.214 116.351 105.664C116.788 105.43 117.243 105.231 117.71 105.066C118.262 104.827 118.774 104.506 119.23 104.114C119.496 103.904 119.7 103.625 119.817 103.306C119.978 102.822 119.769 102.281 119.905 101.789C120.004 101.527 120.16 101.291 120.362 101.098C120.564 100.905 120.806 100.761 121.071 100.675C121.601 100.508 122.111 100.283 122.591 100.004C122.826 99.8573 123.006 99.6373 123.105 99.378C123.203 99.1186 123.215 98.834 123.138 98.5674Z" fill="#455A64"/>
<path d="M40.9446 3.47317C34.4229 0.897821 30.8524 -1.37075 28.4158 0.9947C25.9791 3.36015 24.1537 4.32893 20.4706 5.24121C16.7876 6.15348 16.9002 9.27781 16.9002 15.8332L40.9446 3.47317Z" fill="#F0F0F0"/>
<path d="M68.3344 10.8036C72.7734 20.5884 62.0619 35.0232 44.4186 43.0964C26.7753 51.1696 8.87461 49.7568 4.44367 39.964C0.0127363 30.1713 10.7161 15.7444 28.3595 7.67124C46.0028 -0.401958 63.9035 1.00278 68.3344 10.8036Z" fill="#E6E6E6"/>
<path d="M8.95504 117.806C7.24217 116.651 8.51275 111.121 8.95504 101.086C9.38929 91.3984 8.95504 82.2838 9.39733 77.674C9.93732 71.2369 11.2884 64.8946 13.4181 58.7988C13.4181 58.7988 19.184 57.0631 22.0548 56.3768C23.6814 55.9814 25.3303 55.6848 26.9924 55.4888C31.3824 54.8708 35.8275 54.7462 40.245 55.1174C41.3226 55.2305 46.4129 56.1104 46.4129 56.1104C47.9569 56.4737 55.3231 58.0561 55.3231 58.0642C55.3231 58.0722 57.5184 60.1955 59.5449 65.7498C61.3141 70.5938 62.6731 75.4377 63.1154 85.1255C63.6864 97.4291 65.5279 117.297 63.9196 119.469C53.7389 125.758 21.7171 128.745 8.95504 117.806Z" fill="#F0F0F0"/>
<path d="M35.412 55.6341C37.8245 55.6341 39.5534 55.7794 40.1726 55.844C41.1778 55.949 45.9224 56.7644 46.2762 56.829C47.4905 57.1115 51.9616 58.0803 54.1168 58.5405L54.921 58.7262C55.4035 59.2751 57.1807 61.4711 58.8372 65.992C60.4456 70.3839 61.9091 75.1551 62.3675 85.1578C62.5123 88.3064 62.7374 91.8747 62.9787 95.653C63.5496 104.751 64.3377 117.144 63.3566 118.936C58.0411 122.165 46.8954 124.369 36.1438 124.369C24.2502 124.369 14.745 121.842 9.38123 117.241C8.57707 116.676 8.81027 113.398 9.14802 109.248C9.32494 107.036 9.5501 104.291 9.69485 101.175C9.90393 96.3311 9.90394 91.7698 9.90394 87.7089C9.90394 83.6481 9.90393 80.1121 10.1291 77.8112C10.6062 71.9389 11.7889 66.146 13.6513 60.5588C13.772 60.1793 13.8926 59.808 14.0052 59.4447C15.3159 59.0572 19.8353 57.717 22.2398 57.1438C23.8478 56.7523 25.4778 56.4584 27.1211 56.2638C29.876 55.8781 32.6545 55.6865 35.4361 55.6906M35.4361 54.9802C32.6195 54.9763 29.8061 55.1706 27.0165 55.5615C25.3544 55.7575 23.7055 56.054 22.079 56.4495C19.2081 57.1357 13.4423 58.8715 13.4423 58.8715C11.3125 64.9672 9.96143 71.3096 9.42144 77.7466C8.95502 82.3403 9.42144 91.4226 8.97915 101.159C8.53686 111.194 7.26628 116.724 8.97915 117.879C15.1229 123.142 25.7299 125.185 36.2081 125.185C47.4664 125.185 58.6523 122.811 63.9195 119.534C65.5842 117.362 63.7105 97.4937 63.1154 85.1901C62.6731 75.5023 61.314 70.6584 59.5449 65.8144C57.5184 60.2601 55.323 58.1287 55.323 58.1287C55.323 58.1287 47.9569 56.5141 46.4129 56.175C46.4129 56.175 41.3226 55.2951 40.245 55.182C39.1674 55.069 37.5269 54.9721 35.42 54.9721L35.4361 54.9802Z" fill="#E0E0E0"/>
<path d="M40.1002 59.1298C43.4536 65.4673 47.8684 74.9533 47.4583 84.1567C47.3216 87.3376 47.5789 93.1987 47.8604 99.407C48.2625 108.473 48.7048 118.492 48.1499 124.151L47.4261 124.248C48.0051 118.597 47.5387 108.183 47.1447 99.4393C46.8713 93.2149 46.6139 87.3295 46.7506 84.1002C47.1527 75.0421 42.7861 65.6691 39.5132 59.4124L40.1002 59.1298Z" fill="#E0E0E0"/>
<path d="M43.8476 54.52H25.2554C25.2554 54.52 24.8694 60.4296 37.5993 60.5749C50.3291 60.7202 43.8476 54.52 43.8476 54.52Z" fill="#E0E0E0"/>
<path d="M30.8845 24.5281C32.1873 29.2913 28.472 33.78 26.7752 35.1524C26.9361 37.8892 27.0406 43.9118 27.0567 46.6971C22.1754 45.5911 14.1419 20.3704 22.5212 17.5851C21.5241 12.3456 27.6277 9.62496 32.4687 8.26866C37.3098 6.91236 46.0028 7.58244 46.1395 8.76113C47.8765 8.01839 53.0231 13.7907 53.0231 13.7907C55.1139 14.0894 57.7275 15.5507 57.3415 17.9888C57.2236 18.5469 56.921 19.0486 56.4829 19.4121C56.0449 19.7757 55.4972 19.9797 54.929 19.9909C57.3415 20.4027 59.2956 22.8973 57.052 24.8349C56.8844 25.0199 56.7633 25.2425 56.699 25.484C56.6346 25.7256 56.6288 25.9792 56.6821 26.2235C56.8429 26.6917 57.4862 27.0308 57.8561 26.5302C57.6545 26.7648 57.3968 26.944 57.1071 27.0508C56.8175 27.1577 56.5055 27.1888 56.2006 27.1411C55.8957 27.0935 55.6079 26.9687 55.3643 26.7785C55.1207 26.5882 54.9294 26.3389 54.8084 26.0539C54.5349 25.4565 54.7681 24.8349 54.5832 24.2052C53.8594 26.8774 50.4739 25.7633 48.4635 26.0297C42.6333 25.1013 36.6986 25.0932 30.8845 24.5281Z" fill="#263238"/>
<path d="M20.752 41.7725C24.2421 43.5324 25.8745 40.7633 25.8745 40.7633L26.2284 56.0136C32.8547 65.1524 50.884 61.7375 43.5902 54.8591V50.5561C44.6083 50.5199 45.6234 50.4228 46.63 50.2655C49.7421 49.8134 51.7284 47.6174 52.6934 44.2509C54.1248 39.2698 54.7601 31.2692 52.9909 22.7358C52.6532 21.1212 51.9696 19.2805 50.4739 18.5216C46.7667 16.6244 43.2847 19.2482 38.0576 21.2181C35.8944 22.0254 30.6674 22.3322 29.3003 21.6702C31.0936 23.7046 29.9758 28.9361 29.4772 30.5507C28.7776 32.9404 27.7643 34.0868 27.2738 34.2159C25.1428 34.6357 24.9176 32.7951 23.9687 31.794C23.5105 31.3965 22.9666 31.1114 22.38 30.961C21.7933 30.8107 21.1798 30.7993 20.5879 30.9276C19.9961 31.056 19.442 31.3207 18.9695 31.7008C18.497 32.0809 18.1189 32.5661 17.8651 33.118C17.4816 33.8752 17.2521 34.7014 17.1899 35.5486C17.1277 36.3958 17.234 37.2469 17.5027 38.0524C17.7714 38.8578 18.1971 39.6016 18.7549 40.2403C19.3128 40.879 19.9917 41.3998 20.752 41.7725Z" fill="#B16668"/>
<path d="M30.3939 46.3822C31.0855 49.8457 35.7094 52.1788 43.6063 52.4694V50.5884C41.6637 50.5427 39.7276 50.3429 37.8163 49.991C34.1494 49.329 30.3939 46.3822 30.3939 46.3822Z" fill="#9A4A4D"/>
<path d="M38.2185 26.8047L34.7686 28.2579C34.5823 27.7838 34.5863 27.2557 34.7797 26.7845C34.9732 26.3132 35.341 25.9356 35.806 25.731C36.0341 25.6379 36.2787 25.5919 36.5249 25.5958C36.7712 25.5997 37.0142 25.6533 37.2393 25.7535C37.4645 25.8537 37.6673 25.9985 37.8355 26.1791C38.0037 26.3597 38.1339 26.5725 38.2185 26.8047Z" fill="#263238"/>
<path d="M51.2298 27.7574L47.6191 26.6594C47.6803 26.4204 47.7889 26.1962 47.9384 26.0004C48.0879 25.8045 48.2753 25.641 48.4894 25.5196C48.7034 25.3982 48.9396 25.3215 49.1839 25.294C49.4282 25.2665 49.6755 25.2888 49.911 25.3596C50.3943 25.5146 50.8001 25.8494 51.0453 26.2952C51.2906 26.7411 51.3566 27.2642 51.2298 27.7574Z" fill="#263238"/>
<path d="M36.0392 30.5103C36.0456 30.8139 36.1417 31.1088 36.3153 31.3575C36.4888 31.6063 36.732 31.7977 37.014 31.9075C37.296 32.0174 37.6042 32.0407 37.8994 31.9746C38.1947 31.9085 38.4637 31.7559 38.6725 31.5361C38.8812 31.3163 39.0203 31.0393 39.0721 30.7401C39.1239 30.4409 39.086 30.133 38.9633 29.8554C38.8406 29.5778 38.6386 29.343 38.3829 29.1808C38.1272 29.0186 37.8293 28.9362 37.5269 28.9441C37.3266 28.9483 37.1291 28.9922 36.9457 29.0733C36.7624 29.1544 36.5968 29.2711 36.4586 29.4166C36.3203 29.5622 36.2121 29.7337 36.1401 29.9214C36.0681 30.1091 36.0338 30.3093 36.0392 30.5103Z" fill="#263238"/>
<path d="M47.5306 30.365C47.5371 30.6686 47.6332 30.9635 47.8067 31.2122C47.9803 31.4609 48.2235 31.6524 48.5055 31.7622C48.7875 31.8721 49.0956 31.8954 49.3909 31.8293C49.6861 31.7632 49.9552 31.6105 50.1639 31.3908C50.3727 31.171 50.5118 30.894 50.5636 30.5948C50.6153 30.2956 50.5775 29.9877 50.4548 29.7101C50.3321 29.4325 50.1301 29.1977 49.8744 29.0355C49.6187 28.8733 49.3207 28.7909 49.0183 28.7988C48.8126 28.7828 48.6059 28.813 48.4132 28.8871C48.2205 28.9613 48.0466 29.0775 47.9042 29.2274C47.7618 29.3774 47.6544 29.5572 47.5898 29.754C47.5252 29.9507 47.505 30.1594 47.5306 30.365Z" fill="#263238"/>
<path d="M42.1267 28.6293L43.5742 37.7197L48.2625 36.6379C47.0163 33.4376 44.888 30.6597 42.1267 28.6293Z" fill="#9A4A4D"/>
<path d="M39.1272 38.8499L44.3783 40.8925C44.2606 41.2473 44.0726 41.5745 43.8257 41.8546C43.5789 42.1347 43.2782 42.3619 42.9418 42.5225C42.6053 42.683 42.2401 42.7738 41.8678 42.7892C41.4956 42.8046 41.1241 42.7443 40.7757 42.6121C40.0696 42.3208 39.5034 41.7661 39.196 41.0646C38.8886 40.3631 38.8639 39.5693 39.1272 38.8499Z" fill="#9A4A4D"/>
<path d="M39.6418 39.8672C39.4207 39.8098 39.1944 39.7747 38.9664 39.7622C38.9334 40.3696 39.09 40.9721 39.4143 41.4858C39.7386 41.9996 40.2146 42.3989 40.7757 42.6282C41.0588 42.7349 41.358 42.7922 41.6603 42.7977C41.7649 42.1423 41.6134 41.4715 41.2373 40.9255C40.8613 40.3795 40.2897 40.0003 39.6418 39.8672Z" fill="#F28F8F"/>
<path d="M52.9909 13.7584C46.2038 7.92151 20.5269 16.7778 19.5056 31.2611L15.9995 19.8456C19.0114 15.7759 22.7233 12.2791 26.9602 9.52C34.3102 4.5792 46.5657 5.24121 46.5657 5.24121L52.9909 13.7584Z" fill="#E6E6E6"/>
<path d="M46.4129 56.1266L43.8074 54.5119C43.8074 54.5119 46.5496 59.2751 40.5184 59.7999C34.4871 60.3247 30.1929 59.041 28.094 57.822C26.8185 57.053 25.8232 55.8925 25.2553 54.5119L22.0387 56.3849C22.0387 56.3849 25.7781 63.8284 41.8291 62.5609C49.9271 61.9312 46.4129 56.1266 46.4129 56.1266Z" fill="#E0E0E0"/>
<path d="M68.3344 10.8036C69.0474 12.1972 69.4714 13.7215 69.5808 15.2843C69.7188 16.8437 69.7564 18.4105 69.6934 19.9748C69.5808 23.1072 69.2431 26.2154 68.8893 29.3236C68.5354 32.4317 68.0851 35.5157 67.7071 38.6158C67.3292 41.7159 67.0558 44.8241 67.7071 47.8919C68.1977 50.9597 68.9214 54.0356 68.9616 57.2165C69.0008 58.8143 68.7753 60.4076 68.2942 61.9312C67.7881 63.4667 66.9125 64.8532 65.745 65.9678C63.3723 68.074 60.6286 69.7168 57.6551 70.8117C54.7301 71.9446 51.7107 72.8146 48.6324 73.4113C42.484 74.5881 36.2223 75.0594 29.9678 74.816C26.8074 74.7085 23.6554 74.4228 20.5269 73.9603C17.4098 73.5641 14.3543 72.7776 11.4318 71.6191C9.96448 71.0143 8.6061 70.1715 7.41103 69.1244C6.20815 68.0483 5.33983 66.6468 4.91009 65.0878C4.52064 63.5379 4.46308 61.9227 4.74121 60.3489C4.9905 58.7827 5.473 57.3053 5.69817 55.7633C6.24466 52.6944 6.30167 49.5579 5.86704 46.471C5.34041 43.3915 4.61513 40.3496 3.6958 37.3645C4.67778 40.3343 5.46486 43.3656 6.052 46.4387C6.54255 49.5464 6.54255 52.7122 6.052 55.8198C5.85096 57.3779 5.36846 58.8876 5.15134 60.4134C4.89501 61.9283 4.96355 63.4806 5.35238 64.9667C5.77586 66.4361 6.6137 67.751 7.76487 68.7531C8.93144 69.7509 10.2548 70.5475 11.6811 71.1104C14.5712 72.2112 17.581 72.9645 20.6476 73.3548C23.7186 73.793 26.8112 74.0625 29.9115 74.1621C36.1116 74.3771 42.316 73.8897 48.4072 72.7089C51.4457 72.1286 54.4273 71.2803 57.3174 70.1739C60.2152 69.1276 62.8933 67.5478 65.2143 65.5157C66.3131 64.4725 67.1413 63.1754 67.6267 61.7375C68.0946 60.2779 68.3122 58.7492 68.2701 57.2165C68.2701 54.1325 67.5946 51.0647 67.1282 47.9646C66.8638 46.4079 66.7641 44.8275 66.8306 43.2498C66.903 41.6836 67.0719 40.1255 67.2568 38.5674C67.6428 35.4673 68.1173 32.3752 68.5515 29.2832C68.9858 26.1912 69.3557 23.091 69.5246 19.9667C69.6292 18.4104 69.6292 16.8487 69.5246 15.2923C69.432 13.7311 69.0272 12.2045 68.3344 10.8036Z" fill="#E0E0E0"/>
<path d="M49.0425 102.402C42.2071 102.305 29.1475 101.676 24.7809 101.425C24.7809 101.425 22.8107 86.8451 21.0174 77.012C19.0151 65.984 15.6215 60.9705 13.4181 58.815C6.10827 60.9705 1.12246 63.8042 3.1972 80.653C4.34149 90.8928 6.03267 101.064 8.26342 111.121C10.0165 118.621 13.1849 119.001 21.4758 118.96C28.9143 118.92 42.384 117.491 46.7587 116.869C48.0212 116.692 49.1712 116.53 50.289 116.393L49.0425 102.402Z" fill="#E0E0E0"/>
<path d="M72.4115 100.214C72.5563 99.407 73.2157 98.8177 73.3202 98.0184C73.3244 97.6872 73.2429 97.3606 73.0836 97.0704C72.9243 96.7803 72.6927 96.5367 72.4115 96.3634C71.3644 95.9618 70.2893 95.638 69.1949 95.3946C68.5635 96.7182 68.2574 98.1744 68.3022 99.6411C67.903 100.195 67.3202 100.588 66.6584 100.749C65.9966 100.91 65.2993 100.83 64.6915 100.521C65.4797 99.4935 66.0937 98.3424 66.5089 97.1142C66.8015 96.4765 66.8449 95.7517 66.6304 95.0833C66.416 94.415 65.9593 93.8519 65.351 93.5055C64.8122 93.2472 64.3779 95.1767 62.5444 96.7348C60.2043 98.7208 58.4432 98.2283 55.8618 100.319C54.9049 101.127 54.1248 102.217 52.9025 102.346C52.2511 102.418 50.8599 102.426 49.0104 102.402C46.8472 108.288 47.772 112.712 50.2568 116.393C56.851 115.586 60.7672 115.319 65.6565 113.818C66.3884 113.647 67.1084 113.429 67.8117 113.164C68.6421 112.73 69.3884 112.15 70.0151 111.452C70.7808 110.682 71.2894 109.692 71.4706 108.619C71.6154 107.537 71.3259 106.39 71.728 105.389C72.0255 104.582 72.701 104.001 72.8136 103.185C72.9825 102.176 72.2266 101.223 72.4115 100.214Z" fill="#455A64"/>
</svg>
