<svg width="414" height="500" viewBox="0 0 414 500" fill="none" xmlns="http://www.w3.org/2000/svg">
<path d="M359.92 130.88C359.061 129.109 357.688 127.638 355.98 126.66L253.32 68.26C252.847 68.0786 252.347 67.9772 251.84 67.96C246.56 67.86 241.25 72.83 240.5 75.45C240.33 75.781 240.241 76.1478 240.24 76.52V298.47C240.24 300.203 240.698 301.906 241.569 303.404C242.441 304.902 243.693 306.143 245.2 307L347.86 365.5C347.986 365.562 348.117 365.615 348.25 365.66C354.38 368.26 360.9 362.86 360.9 357.2V135.2C360.907 133.704 360.572 132.226 359.92 130.88Z" fill="#263238"/>
<path d="M240.51 75.46C241.26 72.84 246.57 67.87 251.85 67.97C252.357 67.9872 252.857 68.0886 253.33 68.27L356 126.66C357.501 127.527 358.751 128.768 359.628 130.264C360.505 131.759 360.977 133.457 361 135.19V357.19C361 362.85 354.48 368.25 348.35 365.65C348.217 365.605 348.086 365.552 347.96 365.49L245.2 307C243.695 306.142 242.445 304.9 241.575 303.402C240.706 301.904 240.249 300.202 240.25 298.47V76.53C240.251 76.1578 240.34 75.791 240.51 75.46Z" fill="#455A64"/>
<path d="M346.62 158.66C346.618 157.793 346.387 156.942 345.952 156.193C345.516 155.443 344.892 154.822 344.14 154.39L248.82 100.17C248.447 99.9583 248.026 99.8481 247.597 99.8504C247.169 99.8526 246.748 99.9673 246.378 100.183C246.007 100.398 245.7 100.707 245.486 101.079C245.273 101.45 245.16 101.871 245.16 102.3V281.35C245.161 282.216 245.391 283.066 245.827 283.814C246.262 284.562 246.888 285.182 247.64 285.61L343 339.93C343.374 340.141 343.797 340.251 344.227 340.248C344.657 340.245 345.078 340.13 345.449 339.913C345.82 339.697 346.128 339.387 346.343 339.014C346.557 338.642 346.67 338.22 346.67 337.79L346.62 158.66Z" fill="#51754C"/>
<path opacity="0.2" d="M346.62 158.66C346.618 157.793 346.387 156.942 345.952 156.193C345.516 155.443 344.892 154.822 344.14 154.39L248.82 100.17C248.447 99.9583 248.026 99.8481 247.597 99.8504C247.169 99.8526 246.748 99.9673 246.378 100.183C246.007 100.398 245.7 100.707 245.486 101.079C245.273 101.45 245.16 101.871 245.16 102.3V281.35C245.161 282.216 245.391 283.066 245.827 283.814C246.262 284.562 246.888 285.182 247.64 285.61L343 339.93C343.374 340.141 343.797 340.251 344.227 340.248C344.657 340.245 345.078 340.13 345.449 339.913C345.82 339.697 346.128 339.387 346.343 339.014C346.557 338.642 346.67 338.22 346.67 337.79L346.62 158.66Z" fill="black"/>
<path opacity="0.3" d="M360.94 135.19V357.19C360.94 362.85 354.42 368.25 348.29 365.65C348.659 365.783 349.054 365.825 349.442 365.774C349.831 365.722 350.201 365.578 350.523 365.354C350.844 365.129 351.107 364.831 351.289 364.484C351.471 364.137 351.568 363.752 351.57 363.36V141.36C351.563 139.429 350.986 137.543 349.91 135.94L359.96 130.94C360.602 132.265 360.937 133.718 360.94 135.19Z" fill="black"/>
<path opacity="0.1" d="M251.84 68C252.347 68.0172 252.847 68.1186 253.32 68.3L356 126.66C357.708 127.638 359.081 129.109 359.94 130.88L349.89 135.88C349.047 134.598 347.918 133.529 346.59 132.76L243.92 74.39C243.628 74.2255 243.306 74.1226 242.973 74.0876C242.64 74.0526 242.303 74.0863 241.983 74.1866C241.664 74.2868 241.368 74.4516 241.115 74.6706C240.861 74.8896 240.655 75.1583 240.51 75.46C241.25 72.83 246.56 67.86 251.84 68Z" fill="white"/>
<path d="M283.24 111.06C282.52 110.64 281.92 110.96 281.92 111.79C281.944 112.246 282.075 112.69 282.303 113.086C282.53 113.482 282.848 113.819 283.23 114.07L303.37 125.69C304.09 126.11 304.67 125.76 304.67 124.93C304.648 124.481 304.52 124.044 304.296 123.654C304.071 123.265 303.757 122.934 303.38 122.69L283.24 111.06Z" fill="#263238"/>
<path d="M308.55 125.67C307.83 125.26 307.24 125.59 307.24 126.42C307.266 126.872 307.397 127.311 307.623 127.704C307.848 128.096 308.162 128.43 308.54 128.68C309.26 129.1 309.86 128.75 309.86 127.93C309.834 127.477 309.701 127.037 309.474 126.644C309.246 126.252 308.93 125.918 308.55 125.67Z" fill="#263238"/>
<path d="M295.66 109.37C294.22 108.54 293.05 109.2 293.05 110.85C293.095 111.756 293.353 112.638 293.803 113.425C294.253 114.212 294.882 114.882 295.64 115.38C297.08 116.21 298.27 115.53 298.28 113.87C298.227 112.967 297.962 112.089 297.507 111.308C297.051 110.526 296.419 109.862 295.66 109.37Z" fill="#263238"/>
<path d="M295.65 318.4C292.72 316.71 290.35 318.05 290.34 321.4C290.433 323.241 290.958 325.035 291.874 326.635C292.79 328.235 294.07 329.597 295.61 330.61C298.55 332.3 300.98 330.92 300.99 327.54C300.879 325.704 300.338 323.921 299.411 322.333C298.483 320.745 297.195 319.398 295.65 318.4Z" fill="#263238"/>
<path d="M331 166.74C330.877 165.739 330.586 164.765 330.14 163.86C329.944 163.464 329.72 163.083 329.47 162.72C328.716 161.612 327.722 160.689 326.56 160.02L233.38 107.02L233.24 106.96C233.116 106.918 232.989 106.885 232.86 106.86C232.586 106.805 232.309 106.771 232.03 106.76C230.515 106.75 229.019 107.092 227.66 107.76C226.332 108.415 225.108 109.264 224.03 110.28L223.46 110.85C222.701 111.598 222.114 112.502 221.74 113.5C221.667 113.647 221.61 113.801 221.57 113.96C221.521 114.125 221.497 114.297 221.5 114.47V316C221.504 317.572 221.923 319.114 222.713 320.473C223.503 321.832 224.636 322.959 226 323.74L319.18 376.84C319.296 376.895 319.417 376.942 319.54 376.98C325.1 379.34 331.02 374.44 331.02 369.3V167.77C331.034 167.427 331.027 167.083 331 166.74Z" fill="#51754C"/>
<path d="M221.72 113.55C222.4 111.18 227.22 106.66 232.01 106.76C232.471 106.771 232.928 106.859 233.36 107.02L326.54 160.02C328.088 160.916 329.335 162.253 330.12 163.86C330.722 165.076 331.037 166.413 331.04 167.77V369.31C331.04 374.45 325.12 379.31 319.56 376.99C319.437 376.952 319.316 376.905 319.2 376.85L226 323.72C224.634 322.941 223.499 321.815 222.709 320.455C221.918 319.096 221.501 317.552 221.5 315.98V114.52C221.499 114.184 221.574 113.852 221.72 113.55Z" fill="#51754C"/>
<path opacity="0.2" d="M331 167.77V369.31C331 374.45 325.08 379.31 319.52 376.99C319.856 377.119 320.218 377.163 320.575 377.12C320.932 377.077 321.274 376.947 321.569 376.742C321.865 376.537 322.106 376.263 322.272 375.944C322.437 375.625 322.523 375.27 322.52 374.91V173.34C322.516 171.588 321.994 169.876 321.02 168.42L330.14 163.86C330.722 165.081 331.016 166.418 331 167.77Z" fill="white"/>
<path opacity="0.4" d="M232 106.75C232.461 106.761 232.918 106.849 233.35 107.01L326.53 160.01C328.078 160.906 329.325 162.243 330.11 163.85L321 168.42C320.237 167.254 319.209 166.284 318 165.59L224.82 112.59C224.554 112.44 224.26 112.348 223.957 112.317C223.653 112.287 223.346 112.32 223.056 112.414C222.766 112.507 222.498 112.661 222.27 112.863C222.042 113.065 221.858 113.313 221.73 113.59C222.39 111.17 227.21 106.65 232 106.75Z" fill="white"/>
<path opacity="0.3" d="M221.72 113.55C222.4 111.18 227.22 106.66 232.01 106.76C232.471 106.771 232.928 106.859 233.36 107.02L326.54 160.02C328.088 160.916 329.335 162.253 330.12 163.86C330.722 165.076 331.037 166.413 331.04 167.77V369.31C331.04 374.45 325.12 379.31 319.56 376.99C319.437 376.952 319.316 376.905 319.2 376.85L226 323.72C224.634 322.941 223.499 321.815 222.709 320.455C221.918 319.096 221.501 317.552 221.5 315.98V114.52C221.499 114.184 221.574 113.852 221.72 113.55Z" fill="white"/>
<path d="M230.88 125.47L231.92 126.08L231.94 121.59L230.89 120.99L230.88 125.47Z" fill="white"/>
<path d="M229.09 124.44L230.13 125.04L230.14 121.41L229.1 120.81L229.09 124.44Z" fill="white"/>
<path d="M227.29 123.4L228.33 124L228.34 121.31L227.3 120.71L227.29 123.4Z" fill="white"/>
<path d="M225.5 122.37L226.54 122.97V121.15L225.5 120.55V122.37Z" fill="white"/>
<path d="M234.76 127.72L241.15 131.41L241.16 127.64L234.77 123.95L234.76 127.72Z" fill="white"/>
<path d="M244.33 133.24L247.52 135.08L247.53 131.32L244.34 129.48L244.33 133.24Z" fill="white"/>
<path d="M310.26 170.83L310.27 167.8L313.7 169.78L310.27 167.8L310.26 170.83Z" fill="white"/>
<path d="M310.26 170.83L313.69 172.81L313.7 169.78L310.27 167.8L310.26 170.83Z" fill="#51754C"/>
<path d="M316.12 171.63V170.45L309.64 166.71V171.19L316.12 174.93V173.75L316.95 174.23V172.11L316.12 171.63ZM313.69 172.81L310.26 170.81V167.81L313.69 169.81V172.81Z" fill="white"/>
<path d="M300.36 165.52L306.75 169.2L306.76 165.44L300.37 161.75L300.36 165.52Z" fill="white"/>
<path d="M269.87 147.69L276.26 151.38L276.27 147.62L269.88 143.93L269.87 147.69Z" fill="white"/>
<path d="M305.48 183.51L211.59 129.3C211.32 129.113 211.009 128.995 210.682 128.956C210.356 128.918 210.026 128.96 209.72 129.08H209.67L207.67 130.22L208.9 131.44L208.83 158.25V158.88V166.11C208.881 167.051 209.153 167.967 209.623 168.784C210.094 169.6 210.751 170.295 211.54 170.81L301.77 223L305.24 226.42L307.18 225.31C307.251 225.278 307.318 225.237 307.38 225.19H307.47C307.689 224.986 307.859 224.735 307.968 224.457C308.077 224.178 308.122 223.878 308.1 223.58V216.96V215.72L308.18 188.29C308.143 187.336 307.878 186.404 307.409 185.573C306.939 184.742 306.278 184.034 305.48 183.51Z" fill="#51754C"/>
<path opacity="0.2" d="M305.48 183.51L211.59 129.3C211.32 129.113 211.009 128.995 210.682 128.956C210.356 128.918 210.026 128.96 209.72 129.08H209.67L207.67 130.22L208.9 131.44L208.83 158.25V158.88V166.11C208.881 167.051 209.153 167.967 209.623 168.784C210.094 169.6 210.751 170.295 211.54 170.81L301.77 223L305.24 226.42L307.18 225.31C307.251 225.278 307.318 225.237 307.38 225.19H307.47C307.689 224.986 307.859 224.735 307.968 224.457C308.077 224.178 308.122 223.878 308.1 223.58V216.96V215.72L308.18 188.29C308.143 187.336 307.878 186.404 307.409 185.573C306.939 184.742 306.278 184.034 305.48 183.51Z" fill="black"/>
<path d="M303.47 184.64C304.259 185.156 304.916 185.85 305.387 186.666C305.857 187.483 306.129 188.399 306.18 189.34L306.1 216.76L206.77 159.42V160.67L306.1 218V224.61C306.1 226.34 304.87 227.04 303.37 226.17L209.46 172C208.672 171.486 208.016 170.793 207.546 169.978C207.075 169.164 206.802 168.25 206.75 167.31L206.85 132.02C206.85 130.3 208.07 129.6 209.58 130.46L303.47 184.64Z" fill="#51754C"/>
<path d="M306.1 216.76V218.01L206.77 160.67V159.42L306.1 216.76Z" fill="#51754C"/>
<g opacity="0.2">
<path d="M306.1 216.76V218.01L206.77 160.67V159.42L306.1 216.76Z" fill="white"/>
</g>
<g opacity="0.6">
<path d="M257.58 193.14L257.57 196.2L209.9 168.67L209.91 165.62L257.58 193.14Z" fill="white"/>
</g>
<path d="M227.59 144.67C228.063 144.979 228.456 145.396 228.738 145.886C229.019 146.376 229.181 146.926 229.21 147.49V165.83C229.21 166.83 228.48 167.28 227.57 166.76L211.62 157.54C211.145 157.234 210.75 156.82 210.467 156.331C210.184 155.843 210.02 155.294 209.99 154.73L210.04 136.39C210.04 135.39 210.78 134.93 211.68 135.45L227.59 144.67Z" fill="white"/>
<g opacity="0.6">
<path d="M285.88 180.27L285.87 184.28L235.36 155.12L235.37 151.11L285.88 180.27Z" fill="white"/>
</g>
<g opacity="0.6">
<path d="M263.53 181.46L263.52 185.47L235.32 169.19L235.33 165.18L263.53 181.46Z" fill="white"/>
</g>
<g opacity="0.6">
<path d="M285.86 187.31L285.85 191.31L235.34 162.15L235.35 158.15L285.86 187.31Z" fill="white"/>
</g>
<g opacity="0.5">
<path d="M302.34 187.99L300.82 189.35L302.61 193.06L301.11 192.19L300.03 189.85L299.04 191L297.53 190.12L299.36 188.51L297.9 185.43L299.38 186.28L300.16 188L300.84 187.13L302.34 187.99Z" fill="white"/>
</g>
<path d="M305.48 233.46L211.59 179.25C211.319 179.064 211.007 178.948 210.681 178.911C210.355 178.875 210.025 178.919 209.72 179.04H209.67L207.67 180.18L208.9 181.4L208.83 208.21V208.84V216.07C208.882 217.01 209.155 217.924 209.626 218.738C210.096 219.553 210.752 220.246 211.54 220.76L301.84 272.9L305.31 276.32L307.25 275.2C307.321 275.171 307.388 275.134 307.45 275.09L307.54 275.04C307.759 274.836 307.929 274.585 308.038 274.307C308.147 274.028 308.192 273.728 308.17 273.43V266.81V265.56L308.25 238.14C308.189 237.197 307.907 236.281 307.426 235.468C306.944 234.655 306.278 233.967 305.48 233.46Z" fill="#51754C"/>
<path opacity="0.2" d="M305.48 233.46L211.59 179.25C211.319 179.064 211.007 178.948 210.681 178.911C210.355 178.875 210.025 178.919 209.72 179.04H209.67L207.67 180.18L208.9 181.4L208.83 208.21V208.84V216.07C208.882 217.01 209.155 217.924 209.626 218.738C210.096 219.553 210.752 220.246 211.54 220.76L301.84 272.9L305.31 276.32L307.25 275.2C307.321 275.171 307.388 275.134 307.45 275.09L307.54 275.04C307.759 274.836 307.929 274.585 308.038 274.307C308.147 274.028 308.192 273.728 308.17 273.43V266.81V265.56L308.25 238.14C308.189 237.197 307.907 236.281 307.426 235.468C306.944 234.655 306.278 233.967 305.48 233.46Z" fill="black"/>
<path d="M303.47 234.6C304.259 235.115 304.916 235.81 305.387 236.626C305.857 237.443 306.129 238.359 306.18 239.3L306.1 266.72L206.77 209.38V210.62L306.1 268V274.61C306.1 276.34 304.87 277.04 303.37 276.17L209.48 221.96C208.692 221.446 208.036 220.753 207.566 219.938C207.095 219.123 206.822 218.209 206.77 217.27L206.87 181.98C206.87 180.25 208.09 179.55 209.6 180.42L303.47 234.6Z" fill="#51754C"/>
<path d="M306.1 266.72V267.97L206.77 210.62V209.38L306.1 266.72Z" fill="#51754C"/>
<g opacity="0.2">
<path d="M306.1 266.72V267.97L206.77 210.62V209.38L306.1 266.72Z" fill="white"/>
</g>
<path d="M227.59 194.63C228.063 194.939 228.456 195.356 228.738 195.846C229.019 196.336 229.181 196.886 229.21 197.45V215.78C229.21 216.78 228.48 217.23 227.57 216.72L211.62 207.5C211.144 207.193 210.748 206.777 210.465 206.287C210.181 205.796 210.019 205.246 209.99 204.68L210.04 186.35C210.04 185.35 210.78 184.89 211.68 185.41L227.59 194.63Z" fill="white"/>
<g opacity="0.6">
<path d="M285.88 230.23L285.87 234.24L235.36 205.07L235.37 201.06L285.88 230.23Z" fill="white"/>
</g>
<g opacity="0.5">
<path d="M302.34 237.95L300.82 239.31L302.61 243.01L301.11 242.15L300.03 239.81L299.04 240.95L297.53 240.08L299.36 238.47L297.9 235.39L299.38 236.24L300.16 237.96L300.84 237.09L302.34 237.95Z" fill="white"/>
</g>
<path opacity="0.6" d="M209.91 215.58L209.9 218.63L237.61 234.63V231.57L209.91 215.58Z" fill="white"/>
<path opacity="0.6" d="M235.35 208.1L235.34 212.11L259.43 226.01V222L235.35 208.1Z" fill="white"/>
<path d="M305.48 334.07L211.59 279.86C211.32 279.673 211.009 279.555 210.682 279.516C210.356 279.478 210.026 279.52 209.72 279.64H209.67L207.67 280.78L208.9 282L208.83 308.81V309.44V316.67C208.881 317.611 209.153 318.527 209.623 319.344C210.094 320.16 210.751 320.855 211.54 321.37L301.84 373.5L305.31 376.92L307.25 375.81L307.45 375.7L307.54 375.64C307.759 375.436 307.929 375.185 308.038 374.907C308.147 374.628 308.192 374.328 308.17 374.03V367.42V366.17L308.25 338.74C308.188 337.799 307.905 336.885 307.423 336.074C306.942 335.262 306.276 334.576 305.48 334.07Z" fill="#51754C"/>
<path opacity="0.2" d="M305.48 334.07L211.59 279.86C211.32 279.673 211.009 279.555 210.682 279.516C210.356 279.478 210.026 279.52 209.72 279.64H209.67L207.67 280.78L208.9 282L208.83 308.81V309.44V316.67C208.881 317.611 209.153 318.527 209.623 319.344C210.094 320.16 210.751 320.855 211.54 321.37L301.84 373.5L305.31 376.92L307.25 375.81L307.45 375.7L307.54 375.64C307.759 375.436 307.929 375.185 308.038 374.907C308.147 374.628 308.192 374.328 308.17 374.03V367.42V366.17L308.25 338.74C308.188 337.799 307.905 336.885 307.423 336.074C306.942 335.262 306.276 334.576 305.48 334.07Z" fill="black"/>
<path d="M303.47 335.21C304.258 335.725 304.914 336.417 305.384 337.232C305.855 338.047 306.128 338.961 306.18 339.9L306.1 367.33L206.77 310V311.25L306.1 368.59V375.21C306.1 376.93 304.87 377.63 303.37 376.77L209.48 322.56C208.691 322.045 208.034 321.35 207.563 320.534C207.093 319.717 206.821 318.801 206.77 317.86L206.87 282.58C206.87 280.85 208.09 280.15 209.6 281.02L303.47 335.21Z" fill="#51754C"/>
<path d="M306.1 367.33V368.57L206.77 311.23V309.98L306.1 367.33Z" fill="#51754C"/>
<g opacity="0.2">
<path d="M306.1 367.33V368.57L206.77 311.23V309.98L306.1 367.33Z" fill="white"/>
</g>
<path d="M227.59 295.23C228.062 295.54 228.455 295.957 228.737 296.447C229.018 296.937 229.18 297.486 229.21 298.05V316.39C229.21 317.39 228.48 317.84 227.57 317.32L211.62 308.11C211.145 307.802 210.75 307.386 210.467 306.896C210.183 306.405 210.02 305.855 209.99 305.29L210 287C210 286 210.74 285.55 211.64 286.07L227.59 295.23Z" fill="white"/>
<g opacity="0.6">
<path d="M285.88 330.83L285.87 334.84L235.36 305.68L235.37 301.67L285.88 330.83Z" fill="white"/>
</g>
<g opacity="0.5">
<path d="M302.34 338.56L300.82 339.92L302.61 343.62L301.11 342.76L300.03 340.42L299.04 341.56L297.53 340.69L299.36 339.07L297.9 335.99L299.38 336.85L300.16 338.57L300.84 337.69L302.34 338.56Z" fill="white"/>
</g>
<path opacity="0.6" d="M209.91 316.18L209.9 319.24L237.61 335.23V332.17L209.91 316.18Z" fill="white"/>
<path opacity="0.6" d="M235.35 308.71L235.34 312.71L246.23 318.99V314.98L235.35 308.71Z" fill="white"/>
<path d="M305.48 283.42L211.59 229.21C211.322 229.019 211.009 228.9 210.682 228.863C210.355 228.826 210.024 228.874 209.72 229H209.67L207.67 230.15L208.9 231.36L208.83 258.18V258.81V266.04C208.882 266.98 209.155 267.894 209.626 268.708C210.096 269.523 210.752 270.216 211.54 270.73L301.84 322.87L305.31 326.29L307.25 325.17L307.45 325.06L307.54 325.01C307.76 324.805 307.931 324.553 308.04 324.272C308.149 323.992 308.194 323.69 308.17 323.39V316.78V315.53L308.25 288.11C308.191 287.165 307.909 286.248 307.428 285.433C306.946 284.617 306.279 283.928 305.48 283.42Z" fill="#51754C"/>
<path opacity="0.2" d="M305.48 283.42L211.59 229.21C211.322 229.019 211.009 228.9 210.682 228.863C210.355 228.826 210.024 228.874 209.72 229H209.67L207.67 230.15L208.9 231.36L208.83 258.18V258.81V266.04C208.882 266.98 209.155 267.894 209.626 268.708C210.096 269.523 210.752 270.216 211.54 270.73L301.84 322.87L305.31 326.29L307.25 325.17L307.45 325.06L307.54 325.01C307.76 324.805 307.931 324.553 308.04 324.272C308.149 323.992 308.194 323.69 308.17 323.39V316.78V315.53L308.25 288.11C308.191 287.165 307.909 286.248 307.428 285.433C306.946 284.617 306.279 283.928 305.48 283.42Z" fill="black"/>
<path d="M303.47 284.56C304.258 285.075 304.914 285.767 305.384 286.582C305.855 287.397 306.128 288.311 306.18 289.25L306.1 316.68L206.77 259.33V260.58L306.1 317.93V324.54C306.1 326.27 304.87 326.96 303.37 326.1L209.48 271.89C208.692 271.376 208.036 270.683 207.566 269.868C207.095 269.054 206.822 268.14 206.77 267.2L206.87 231.91C206.87 230.18 208.09 229.48 209.6 230.35L303.47 284.56Z" fill="#51754C"/>
<path d="M306.1 316.68V317.93L206.77 260.58V259.33L306.1 316.68Z" fill="#51754C"/>
<g opacity="0.2">
<path d="M306.1 316.68V317.93L206.77 260.58V259.33L306.1 316.68Z" fill="white"/>
</g>
<g opacity="0.6">
<path d="M245.36 286.11L245.35 289.16L209.9 268.59L209.91 265.54L245.36 286.11Z" fill="white"/>
</g>
<path d="M227.59 244.58C228.062 244.89 228.455 245.307 228.737 245.797C229.018 246.287 229.18 246.836 229.21 247.4V265.74C229.21 266.74 228.48 267.19 227.57 266.67L211.62 257.46C211.144 257.153 210.748 256.737 210.465 256.247C210.181 255.756 210.019 255.206 209.99 254.64L210.04 236.31C210.04 235.31 210.78 234.85 211.68 235.37L227.59 244.58Z" fill="white"/>
<g opacity="0.6">
<path d="M285.88 280.18L285.87 284.19L235.36 255.03L235.37 251.02L285.88 280.18Z" fill="white"/>
</g>
<g opacity="0.6">
<path d="M276.97 289.22L276.96 293.23L235.32 269.11L235.33 265.1L276.97 289.22Z" fill="white"/>
</g>
<g opacity="0.6">
<path d="M285.86 287.22L285.85 291.23L235.34 262.07L235.35 258.06L285.86 287.22Z" fill="white"/>
</g>
<g opacity="0.5">
<path d="M302.34 287.91L300.82 289.27L302.61 292.97L301.11 292.11L300.03 289.77L299.04 290.91L297.53 290.04L299.36 288.43L297.9 285.35L299.38 286.2L300.16 287.92L300.84 287.05L302.34 287.91Z" fill="white"/>
</g>
</svg>
